<svg width="1667" height="817" viewBox="0 0 1667 817" fill="none" xmlns="http://www.w3.org/2000/svg">
<mask id="mask0_1_35" style="mask-type:alpha" maskUnits="userSpaceOnUse" x="0" y="0" width="1667" height="817">
<path fill-rule="evenodd" clip-rule="evenodd" d="M957.376 786.354L957.096 786.724C957.306 787.118 957.436 787.636 957.736 787.857C958.113 788.029 958.513 788.117 958.916 788.116L959.066 787.537L957.376 786.305V786.354ZM397.966 779.75L398.446 780.662C398.866 780.305 399.286 779.948 399.676 779.541C399.608 779.324 399.51 779.124 399.386 778.95C398.906 779.184 398.436 779.479 397.966 779.75ZM343.916 776.436C344.636 777.176 345.536 778.445 346.256 776.19L343.916 776.436ZM145.996 96.0848L145.506 95.9861C145.296 96.5433 145.144 97.1314 145.056 97.7358C145.092 98.2914 145.2 98.836 145.376 99.3496H145.756L145.996 96.1464V96.0848ZM212.426 67.7476L211.766 67.0822L210.666 68.9796L211.126 69.4233L212.406 67.6489L212.426 67.7476ZM792.366 36.6506C792.466 36.3795 792.566 36.1209 792.656 35.8498L790.656 35.2462C790.656 35.3324 790.656 35.4186 790.656 35.4925L792.366 36.6506ZM396.456 782.708L398.346 784.519C398.816 781.956 397.436 782.634 396.456 782.708ZM1007.34 782.116C1007.34 781.931 1007.34 781.746 1007.34 781.574H1004.28C1004.28 781.746 1004.28 781.931 1004.28 782.116H1007.34ZM156.856 100.877L155.346 97.3785L153.736 99.8426L156.856 100.927V100.877ZM1026.33 43.1928L1029.81 44.6096C1028.9 43.205 1027.99 41.8129 1026.33 43.1928ZM1058.03 781.278L1058.66 781.636C1059.39 780.268 1060.93 779.258 1059.6 776.473C1058.98 778.358 1058.51 779.812 1058.03 781.278ZM39.6657 51.4105C39.6657 51.1641 39.6656 50.9299 39.6156 50.6835L35.2558 50.3388V52.3839L39.6657 51.4105ZM336.116 778.851C335.496 780.527 334.956 782.018 334.376 783.607C336.526 783.533 336.856 781.303 338.046 779.911L336.116 778.79V778.851ZM1666.67 58.8892V794.424C1666.17 794.19 1665.59 793.599 1665.19 793.747C1660.03 795.656 1654.95 794.24 1649.84 793.389C1647.81 792.946 1645.75 792.715 1643.69 792.699C1641.3 792.81 1638.95 793.204 1637.07 790.827C1635.52 794.202 1635.07 794.326 1633.38 791.8C1632.6 790.543 1631.51 789.628 1630.28 789.188C1628.12 788.247 1626.02 787.14 1623.98 785.874C1622.86 787.106 1623.45 790.568 1620.77 790.371L1619.64 789.41C1619.35 789.032 1619.09 788.619 1618.88 788.178C1617.34 784.285 1615.48 783.841 1612.88 787.094C1611.88 784.63 1610.16 782.929 1610.37 780.058C1609.97 779.948 1609.72 779.763 1609.55 779.837C1608.29 780.379 1606.76 781.82 1605.88 781.352C1605 780.884 1604.51 778.592 1603.88 777.102C1603.88 777.003 1603.75 776.929 1603.71 776.855L1600.47 779.061C1600.41 777.41 1600.37 776.264 1600.32 775.057C1599.62 775.092 1598.92 774.916 1598.3 774.544C1597.67 774.173 1597.12 773.617 1596.71 772.925C1595.71 771.237 1594.76 771.594 1593.53 773.701C1595.44 773.849 1595.2 775.118 1594.36 776.387C1593.52 777.656 1592.65 778.359 1591.83 779.393C1589.64 782.178 1587.24 784.506 1583.92 784.703C1580.92 784.888 1579.6 783.804 1578.68 780.502C1577.36 784.827 1577.16 784.987 1574.28 784.654C1573.37 785.723 1572.39 786.68 1571.34 787.512C1568.98 788.917 1566.66 790.211 1564.93 792.835C1564.01 794.227 1562.78 794.621 1561.09 793.685C1558.22 792.323 1555.29 791.163 1552.32 790.211C1555.97 784.605 1555.87 777.804 1557.95 771.471L1554.06 769.414L1552.3 772.013C1550.65 770.215 1549.22 768.416 1547.59 766.962C1546.54 766.297 1545.45 765.76 1544.33 765.36C1543.11 764.874 1541.97 764.15 1540.94 763.216C1540.51 762.595 1539.94 762.146 1539.31 761.926C1538.67 761.706 1538 761.727 1537.38 761.984C1536.78 762.177 1536.18 762.325 1535.58 762.428C1535.05 761.319 1534.58 760.444 1534.36 759.964C1533.15 760.247 1532.02 760.999 1531.36 760.58C1528.98 759.003 1528.73 756.046 1529.1 752.399L1525.1 755.159C1524.85 755.38 1524.6 755.615 1524.36 755.861L1520.15 749.479C1517.1 755.233 1511.57 755.258 1507.26 758.104C1505.32 756.157 1504.15 758.695 1502.81 759.483C1501.72 758.67 1502.81 756.132 1500.62 756.378C1499.96 756.452 1499.14 754.444 1498.19 753.126C1498.64 749.331 1497.94 747.495 1495.47 745.906C1494.8 745.426 1494.03 745.213 1493.26 745.294C1492.49 745.376 1491.76 745.749 1491.18 746.362C1489.18 748.05 1487.28 748.715 1484.55 747.015C1481.39 745.031 1477.85 743.122 1473.82 745.29C1471.98 746.288 1469.82 745.204 1468.36 742.715C1467.36 740.925 1466.82 738.802 1466.83 736.629C1466.32 736.875 1465.94 736.949 1465.93 737.06C1465.78 739.031 1465.68 740.99 1463.31 739.992C1463.08 739.881 1462.71 740.128 1462.44 740.3C1459.61 742.124 1456.77 743.91 1453.99 745.808C1451.81 747.286 1450.81 747.188 1449.59 744.576C1448.2 741.656 1446.53 738.933 1445.91 735.458C1445.66 734.029 1444.48 732.846 1443.73 731.54C1442.98 730.234 1442.11 730.148 1440.92 731.023C1439.84 731.65 1438.71 732.133 1437.55 732.464C1436.55 730.21 1435.79 728.386 1434.89 726.304C1432.82 728.189 1431.12 729.138 1429.13 727.228C1428.32 726.759 1427.41 726.604 1426.53 726.785C1424.34 726.895 1422.16 727.154 1420.09 727.339C1419.55 728.313 1419.09 729.125 1418.68 729.889C1417.45 731.898 1413.2 733.906 1411.53 732.711C1408.31 730.407 1405.04 731.011 1401.68 731.54C1399.93 731.964 1398.15 732.085 1396.39 731.898C1395.41 731.672 1394.41 731.767 1393.47 732.174C1392.54 732.58 1391.71 733.284 1391.07 734.214C1390.49 735.037 1389.77 735.693 1388.97 736.136C1388.16 736.579 1387.29 736.798 1386.41 736.777C1386.16 736.777 1385.91 736.469 1385.47 736.198L1386.97 734.202C1386.31 732.969 1385.69 731.737 1385.04 730.579C1384.82 730.211 1384.58 729.865 1384.32 729.544C1382.73 731.121 1382.53 728.312 1381.32 728.041C1381.25 728.731 1381.19 729.273 1381.13 729.865C1379.97 731.097 1379.02 730.924 1378.33 729.212C1378.03 728.485 1377.95 727.524 1377.51 727.007C1377.07 726.489 1376 725.774 1375.66 726.058C1373.66 727.598 1370.75 728.078 1370.91 732.218C1365.71 726.859 1363.72 718.259 1357.11 714.131C1353.37 714.131 1350.11 716.719 1347.44 720.575C1345.86 718.456 1345.86 718.456 1344.28 718.604C1344.39 719.318 1344.5 719.996 1344.64 720.859C1344.21 720.625 1343.89 720.538 1343.87 720.415C1343.64 718.049 1341.87 717.372 1340.63 716.411C1339.39 715.45 1338.26 717.113 1337.22 718.135C1336.6 718.752 1335.48 718.481 1335.41 720.107C1335.41 720.477 1334.18 721.105 1333.56 721.019C1332.45 720.873 1331.38 720.485 1330.4 719.873C1329.67 719.441 1328.87 719.241 1328.06 719.293C1327.25 719.345 1326.47 719.646 1325.79 720.169C1324.94 720.907 1323.96 721.385 1322.93 721.563C1321.9 721.741 1320.85 721.614 1319.87 721.191C1319.13 722.571 1318 723.84 1317.71 725.368C1317.09 728.497 1315.54 729.889 1312.94 730.481C1312.71 729.409 1312.15 728.49 1311.38 727.925C1310.61 727.359 1309.69 727.193 1308.82 727.462C1308.52 728.078 1308.18 728.694 1308.01 729.089L1301.79 730.16C1299.89 733.857 1298.87 734.805 1296.42 734.805C1295.78 734.805 1294.71 734.3 1294.56 733.734C1293.56 730.037 1290.48 729.384 1288.5 727.154C1286.89 725.343 1285.5 727.918 1284.5 727.623C1283.5 729.618 1282.84 731.22 1282.03 732.723C1281.22 734.226 1280.39 735.261 1279.67 736.616C1278.33 739.154 1277.87 739.29 1275.67 738.046C1274.67 737.454 1273.01 736.407 1272.44 736.912C1270.77 738.39 1269.81 736.912 1268.57 736.185C1265.57 739.734 1267.57 744.391 1266.82 748.296C1260.9 749.775 1260.9 749.775 1257.72 744.44C1257.15 744.97 1256.57 745.992 1256.03 745.968C1252.62 745.746 1251.58 748.937 1250.36 751.771C1248.52 756.021 1247.66 756.317 1243.98 753.594C1243.58 753.371 1243.16 753.19 1242.74 753.052C1239.81 751.61 1237.74 748.013 1234.31 747.828C1234.25 747.815 1234.2 747.787 1234.16 747.744C1234.11 747.701 1234.08 747.645 1234.06 747.582C1233.31 744.834 1231.48 743.528 1229.66 741.951C1227.84 740.374 1228 740.005 1225.85 741.951C1226.24 743.011 1226.63 744.083 1227.05 745.192C1224.34 748.013 1221.15 746.818 1218.37 746.966C1214.87 747.163 1214.14 747.175 1213.52 751.352C1213.38 752.564 1213.02 753.72 1212.46 754.728C1211.46 756.305 1211.76 757.808 1212.26 759.348C1212.76 760.888 1213.36 762.305 1213.89 763.808C1213.95 763.993 1213.82 764.288 1213.78 764.535L1211.49 765.422C1211.49 766.001 1211.49 766.26 1211.49 766.543C1211.61 767.696 1211.55 768.867 1211.32 769.993C1211.24 770.292 1211.11 770.565 1210.93 770.792C1210.76 771.019 1210.54 771.194 1210.31 771.303C1210.07 771.413 1209.81 771.454 1209.56 771.423C1209.31 771.392 1209.06 771.291 1208.85 771.126C1208.77 771.065 1208.45 771.459 1208.26 771.668C1206.42 773.298 1205.15 775.709 1204.68 778.432L1200.13 773.837L1197.13 778.001C1194.13 776.264 1191.13 775.019 1187.81 775.537C1187.47 775.519 1187.13 775.445 1186.81 775.315C1181.45 774.317 1176.18 772.95 1171.62 769.525C1170.77 770.091 1170.13 770.867 1169.46 770.917C1164.76 771.237 1162.3 770.202 1160 764.941C1159.76 764.183 1159.38 763.505 1158.9 762.961C1158.41 762.417 1157.82 762.023 1157.19 761.812C1156.14 766.95 1160.19 768.379 1161.77 771.804L1159.16 773.64C1159.05 774.761 1158.94 775.919 1158.85 776.794L1161.05 778.026C1160.44 779.258 1159.72 780.071 1159.6 781.032C1159.4 782.51 1157.38 780.478 1157.69 782.782C1157.69 783.2 1156.48 783.878 1155.77 784.494C1155.56 783.656 1155.43 783.176 1155.2 782.313L1153.96 784.469L1158.71 786.933C1158.82 787.414 1158.99 788.165 1159.17 789.065C1158.23 790 1157.07 790.524 1155.86 790.556C1154.66 790.587 1153.48 790.123 1152.52 789.237C1151.38 788.375 1148.71 789.706 1149.12 790.47C1150.32 792.786 1148.12 792.823 1148.21 794.166C1143.86 793.574 1142.5 793.328 1137.35 795.237C1130.54 797.771 1123.33 798.223 1116.35 796.556C1112.93 795.767 1112.15 794.326 1112.15 790.088V780.046C1109.46 779.147 1109.61 777.853 1110.39 772.099C1108.67 771.828 1107.87 772.691 1107.33 774.724C1105.99 779.763 1104.62 780.662 1100.38 779.75C1099.51 779.566 1098.67 779.258 1097.81 779.036L1090.35 777.139C1090.14 780.231 1088.58 781.328 1086.92 782.4C1086.06 782.966 1084.81 783.632 1084.61 784.494C1084.08 786.86 1082.46 787.463 1081.17 788.646C1079.7 789.857 1078.3 791.16 1076.95 792.552C1074.57 795.201 1073.89 795.114 1071.52 792.219C1069.68 789.964 1068.19 786.712 1064.78 787.82C1063.99 787.876 1063.23 787.553 1062.64 786.921C1059.5 783.816 1055.59 785.689 1052.19 784.334C1051.86 784.211 1051.35 784.617 1050.98 784.888C1048.44 786.499 1045.99 788.284 1043.62 790.235C1042.99 790.89 1042.24 791.325 1041.43 791.492C1040.63 791.659 1039.8 791.552 1039.04 791.184L1036.04 795.521C1034.04 791.825 1029.98 790.814 1030.18 786.662L1023.81 780.502L1019.52 786.662L1017.8 786.896C1018.11 786.046 1018.41 785.208 1018.72 784.432C1017.94 784.186 1016.61 783.496 1016.46 783.767C1014.72 786.97 1012.18 785.295 1010.55 784.568C1009.58 784.004 1008.5 783.81 1007.45 784.012C1006.39 784.214 1005.41 784.803 1004.64 785.701C1004.08 784.676 1003.58 783.606 1003.14 782.498C1002.84 781.406 1002.6 780.291 1002.43 779.159C997.596 779.911 996.036 778.888 994.636 774.231C994.556 773.984 994.636 773.652 994.506 773.43C992.846 770.141 991.686 766.358 988.646 764.153C987.466 765.964 987.756 767.849 987.896 769.685C987.966 770.547 988.186 771.792 987.826 772.247C985.246 775.586 982.536 778.802 978.396 778.753C976.986 778.753 975.766 778.371 975.536 776.128C974.536 778.371 973.606 780.404 971.346 780.514C971.066 780.514 970.796 781.143 970.526 781.488C969.882 782.519 969.129 783.439 968.286 784.223C966.518 785.279 965.028 786.927 963.986 788.979C963.666 789.592 963.249 790.119 962.759 790.528C962.269 790.937 961.717 791.219 961.136 791.357C957.876 791.702 954.606 791.48 951.806 788.818L954.176 771.422C950.566 769.204 950.566 769.204 948.956 771.754C946.816 771.348 944.686 770.214 942.956 770.818C942.151 771.199 941.27 771.269 940.432 771.018C939.595 770.767 938.839 770.208 938.266 769.414C937.767 770.219 937.204 770.962 936.586 771.631C936.358 771.863 936.096 772.035 935.813 772.137C935.531 772.24 935.234 772.27 934.942 772.228C934.649 772.185 934.367 772.07 934.111 771.889C933.856 771.708 933.633 771.465 933.456 771.175C932.016 769.167 931.766 769.069 931.066 771.582C931.006 771.966 930.88 772.331 930.698 772.651C930.515 772.972 930.28 773.241 930.007 773.441C929.734 773.641 929.43 773.768 929.114 773.813C928.798 773.858 928.479 773.82 928.176 773.701C928.176 772.9 928.116 772.297 928.086 771.681C925.376 771.903 925.666 773.898 926.246 775.759C924.626 776.794 924.246 775.167 923.686 774.379C923.1 773.485 922.313 772.825 921.423 772.481C920.533 772.136 919.581 772.124 918.686 772.444C916.215 773.175 913.675 773.486 911.136 773.369C908.987 773.26 906.856 773.896 904.986 775.204C904.36 775.565 903.677 775.755 902.986 775.759C902.186 773.159 900.486 774.268 899.146 774.354L897.486 769.598C895.796 770.83 894.486 772.383 892.976 772.789C891.466 773.196 889.876 772.42 888.076 772.124C887.319 772.81 886.492 773.369 885.616 773.788C881.786 775.118 877.936 776.473 873.896 776.362C872.456 776.285 871.05 776.904 869.976 778.087C866.446 781.685 862.136 783.57 857.876 785.319C853.876 786.958 852.206 785.504 851.086 780.391C850.996 779.997 851.086 779.479 850.966 779.159C849.966 777.299 848.846 775.463 847.726 773.566L845.966 774.588C846.066 775.709 846.146 776.572 846.256 777.816C845.086 777.545 843.776 777.705 843.426 777.077C842.316 775.032 841.366 775.919 840.556 777.077C839.996 778.102 839.539 779.206 839.196 780.367C836.356 778.05 836.356 778.05 834.196 778.112C834.582 780.358 835.162 782.548 835.926 784.642C836.446 785.751 837.926 786.182 839.086 786.983C835.086 790.371 831.426 795.164 825.986 790.802V784.408C825.096 785.282 824.206 785.763 824.206 786.231C824.302 787.754 824.51 789.263 824.826 790.741C823.966 791.11 822.966 791.972 822.206 791.763C821.036 791.393 820.796 791.899 820.206 792.872C819.575 793.832 818.67 794.458 817.676 794.621C816.911 794.715 816.171 794.999 815.499 795.457C814.826 795.914 814.237 796.535 813.766 797.283C813.186 798.132 812.391 798.716 811.509 798.939C810.627 799.163 809.71 799.013 808.906 798.515C806.796 797.393 804.716 796.186 802.286 794.818C804.956 789.89 806.856 784.864 807.286 779.024C806.488 778.511 805.65 778.098 804.786 777.792C803.708 777.681 802.624 777.681 801.546 777.792C801.316 779.147 800.986 780.81 800.756 782.486C800.196 786.663 799.026 788.301 795.756 787.759C791.467 787.209 787.243 786.06 783.166 784.334C778.896 782.326 775.106 778.814 770.426 778.654C770.106 776.313 769.846 774.391 769.526 772.013C768.306 772.74 767.456 773.319 766.526 773.763C764.986 774.514 762.136 773.652 761.926 771.927C761.616 769.463 759.926 769.019 759.096 767.824L756.406 772.876H756.516C754.636 771.557 752.826 770.695 751.146 773.369C750.806 773.923 749.966 773.96 749.426 774.379C748.676 774.958 747.986 775.685 747.276 776.35L747.336 776.449C747.256 776.054 747.176 775.66 747.056 775.02C746.166 775.654 745.151 775.969 744.123 775.928C743.096 775.886 742.099 775.491 741.246 774.786C741.156 773.96 741.056 773.135 740.886 771.705L739.296 774.083C738.426 774.182 737.816 772.211 736.716 773.479L738.576 777.521C737.266 777.237 736.346 777.373 735.856 776.868C734.326 775.278 733.226 776.116 732.166 777.558C731.106 778.999 730.046 780.527 729.006 781.981C723.726 779.898 722.276 777.631 722.386 771.767L725.996 769.808L724.236 768.416L721.086 771.717C720.316 770.301 719.656 769.056 719.086 768.021C718.089 768.159 717.088 768.229 716.086 768.231C715.04 768.091 714.002 767.881 712.976 767.603C710.696 773.208 707.376 774.699 702.916 772.099C703.426 768.97 702.026 766.826 700.416 764.831C700.027 764.856 699.644 764.947 699.276 765.102C697.446 766.432 695.846 766.777 693.796 765.102C692.396 763.993 690.456 762.847 688.376 764.153C688.196 764.83 687.946 765.582 687.786 766.358C686.666 771.779 684.516 773.319 680.046 771.927C679.312 771.686 678.554 771.578 677.796 771.607C673.713 772.056 669.599 771.452 665.716 769.833C661.286 767.849 656.816 766.001 651.966 767.27C651.596 767.368 651.146 767.011 650.626 766.826C650.376 765.52 650.136 764.251 649.896 762.97L647.636 762.083C648.486 764.313 649.146 766.075 649.896 768.046C648.286 770.51 646.466 772.432 643.646 772.543C641.356 772.629 639.066 772.999 637.156 770.781C637.364 770.226 637.541 769.654 637.686 769.069C637.763 768.56 637.81 768.046 637.826 767.529C637.026 767.586 636.225 767.586 635.426 767.529C633.376 767.208 632.586 767.75 631.426 770.424L630.136 772.666C629.426 772.198 628.496 771.939 628.026 771.225C625.536 767.442 625.216 767.369 622.666 770.732C622.458 770.866 622.241 770.973 622.016 771.052C621.086 770.387 620.016 769.562 618.846 768.785C617.732 767.917 616.562 767.167 615.346 766.543C613.586 765.779 611.676 765.533 609.946 764.707C605.426 762.539 600.946 760.235 598.076 755.91C594.286 754.604 591.296 756.563 588.076 758.375C587.426 756.884 586.876 755.615 586.316 754.346C584.966 754.198 584.086 753.545 581.206 750.551L578.206 752.313C577.393 750.888 576.518 749.518 575.586 748.21C574.086 746.325 572.426 746.535 571.146 748.58C570.586 749.467 570.146 750.871 569.416 751.044C568.382 751.185 567.338 750.945 566.416 750.354C566.038 750.066 565.582 749.974 565.149 750.098C564.716 750.223 564.341 750.554 564.106 751.019C563.526 751.943 563.016 752.916 562.606 753.643C560.326 754.493 559.296 752.658 558.336 750.391L556.246 754.087C556.106 752.165 555.986 750.465 555.816 748.185L553.646 750.021C554.066 751.253 554.706 752.239 554.646 753.101C554.586 753.705 553.536 754.148 552.806 754.777C553.276 756.576 553.756 758.399 554.396 760.863C552.396 761.023 550.566 761.898 549.336 761.159C546.156 759.2 542.946 759.717 539.686 759.927C537.686 760.05 535.486 759.779 533.586 760.494C531.686 761.208 529.756 762.958 527.736 764.374L525.586 761.91C524.346 762.526 523.176 763.143 521.946 761.701C521.236 760.851 520.366 760.26 520.946 758.424L515.386 759.656C515.066 758.978 514.306 758.116 514.386 757.401C514.478 755.572 514.943 753.802 515.736 752.251C516.736 750.773 516.976 749.898 515.596 748.308C515.536 749.541 513.666 749.417 514.596 751.241C514.596 751.241 514.516 751.463 514.526 751.413C511.786 752.288 509.836 750.884 508.426 748.124C507.426 748.74 506.666 749.688 505.916 749.639C504.236 749.504 503.196 752.103 501.446 751.069C500.683 750.651 499.843 750.491 499.014 750.606C498.184 750.721 497.395 751.106 496.726 751.721C494.286 753.52 492.206 756.12 489.276 756.834C487.166 757.327 484.946 757.327 483.126 759.065C482.936 759.262 482.586 759.225 482.396 759.262L481.256 756.341C480.334 756.341 479.44 756.734 478.725 757.452C478.011 758.17 477.52 759.171 477.336 760.284C476.636 763.352 474.936 766.173 475.496 769.685C475.636 770.621 475.086 771.718 474.866 772.703L469.276 771.373C466.736 776.461 462.146 777.644 458.166 780.687C456.926 773.295 451.876 768.564 449.906 761.664L446.286 763.561L449.836 766.284C448.296 768.921 446.836 771.274 445.516 773.677C443.826 776.769 441.926 777.964 439.106 777.089C437.388 776.585 435.593 776.657 433.906 777.299C432.186 777.853 430.186 778.629 429.026 776.362C428.057 777.251 426.998 777.979 425.876 778.531C424.246 779.011 423.756 778.321 423.696 776.202C423.616 773.147 423.616 773.147 420.336 773.443L423.426 779.307C421.626 782.929 419.426 785.233 415.996 785.467C413.486 785.677 410.996 786.108 409.106 784.334C409.356 781.5 409.666 779.122 409.716 776.732C409.7 775.669 409.405 774.64 408.876 773.8C407.716 771.989 405.396 772.839 403.966 775.278C403.096 776.757 402.016 778.05 400.966 779.541C401.136 781.044 401.336 782.88 401.556 784.839C396.986 787.365 394.456 783.237 391.486 780.379C390.896 781.697 390.256 782.843 389.806 784.174C388.806 786.995 388.866 787.106 386.506 786.527C384.676 786.071 383.076 786.059 381.676 787.931C380.536 789.459 379.166 789.163 377.676 788.387C376.086 787.518 374.401 786.941 372.676 786.675C370.556 786.453 368.346 787.562 366.346 785.775C366.176 785.615 365.706 785.775 365.456 785.96C362.966 787.71 361.336 786.071 359.586 783.927L360.046 786.798C355.196 792.293 350.046 792.65 344.316 788.03C346.596 785.455 347.316 782.486 345.936 779.073L339.066 781.426C336.226 787.389 336.386 786.354 332.536 782.843C330.986 783.903 329.356 784.999 327.736 786.12C326.158 787.349 324.765 788.904 323.616 790.716C320.896 794.56 317.676 793.981 315.296 789.595C314.967 789.075 314.584 788.611 314.156 788.215C313.208 787.378 312.312 786.456 311.476 785.455C309.866 783.237 308.386 780.884 306.886 778.629C301.946 780.256 301.946 780.256 302.076 783.151C299.926 784.814 297.796 786.342 295.766 788.079C293.736 789.816 292.096 790.001 289.956 788.399C289.149 787.702 288.272 787.139 287.346 786.724C284.026 785.566 280.436 786.083 277.186 784.26C276.756 784.141 276.31 784.14 275.879 784.257C275.449 784.374 275.045 784.606 274.696 784.938C271.406 787.895 267.956 787.217 264.346 786.17C261.456 785.332 258.436 783.619 255.606 786.564C255.409 786.702 255.18 786.755 254.956 786.712C251.866 786.145 248.866 785.233 246.796 782.055C245.216 779.59 245.406 778.358 247.346 775.833C247.746 775.254 248.117 774.645 248.456 774.009C246.286 772.543 246.286 772.543 244.966 776.104C242.376 777.065 241.326 773.122 238.706 773.208C236.416 773.282 234.446 769.722 231.856 771.57C231.046 773.406 230.276 775.426 228.996 776.609C226.782 778.63 224.938 781.203 223.586 784.161C222.016 787.586 220.526 788.129 217.516 786.625C216.856 786.293 216.066 785.652 215.516 785.862C212.516 786.872 209.616 786.17 206.676 785.862C205.636 785.613 204.628 785.199 203.676 784.63C204.026 782.745 204.306 781.34 204.676 779.504C202.406 780.33 200.506 779.097 198.556 778.839C197.69 778.807 196.839 778.552 196.059 778.089C195.279 777.626 194.586 776.967 194.026 776.153C193.543 775.465 192.905 774.968 192.193 774.727C191.481 774.486 190.727 774.51 190.026 774.798C189.326 777.262 187.826 778.174 185.676 778.013C184.687 777.877 183.692 778.188 182.876 778.888C180.696 781.488 177.276 780.761 175.176 783.484C174.896 783.841 174.116 783.607 173.536 783.656C173.076 782.523 172.666 781.463 172.156 780.182L169.896 781.734L173.256 785.209C171.646 791.923 167.646 794.93 161.986 793.833C162.666 789.767 160.276 786.86 159.416 783.41C157.476 785.036 155.656 787.352 152.996 785.098L154.896 783.114C153.696 781.377 153.046 782.966 152.256 783.348C150.856 784.051 149.476 785.258 148.056 785.344C147.231 785.295 146.415 785.575 145.731 786.144C145.046 786.712 144.529 787.538 144.256 788.498C143.566 790.457 142.586 792.034 140.376 791.714L138.986 788.264C139.546 788.03 140.156 787.956 140.196 787.734C140.616 785.492 138.936 785.27 137.666 783.903L135.476 786.786L133.766 785.664C130.366 793.833 131.406 793.242 133.306 800.572C132.826 800.572 132.446 800.486 132.076 800.474C131.706 800.461 131.206 800.474 130.546 800.474L131.676 802.371L128.326 802.063L127.686 803.233L129.806 804.047C128.656 808.618 125.446 805.057 123.806 807.669L125.706 809.579C125.386 810.811 125.116 811.969 124.826 813.127C120.906 813.669 119.476 809.887 117.456 806.967L114.046 811.685C112.046 810.293 110.266 808.975 108.436 807.718C108.001 807.367 107.503 807.152 106.986 807.09C102.796 806.974 98.6928 805.595 95.0358 803.073C92.3858 801.336 89.7857 800.252 86.7057 801.287C85.8757 803.492 85.0157 805.796 84.2057 807.915L79.8856 808.482C79.5956 810.33 79.3658 812.043 79.0358 813.718C78.8774 814.62 78.5968 815.482 78.2057 816.269C78.0462 816.435 77.8561 816.549 77.652 816.603C77.4479 816.657 77.2363 816.648 77.0358 816.577C76.8418 816.459 76.6733 816.285 76.5446 816.071C76.4159 815.857 76.3305 815.608 76.2956 815.345C76.0056 812.683 76.0456 812.807 74.0656 813.287C72.5356 813.657 70.9257 814.766 69.4157 813.287C68.9658 812.743 68.5698 812.135 68.2357 811.476L65.5956 813.127C65.1156 811.796 64.7457 810.811 64.4057 809.8C63.5257 807.176 60.1358 804.059 58.0158 804.342C56.07 804.564 54.1564 805.102 52.3256 805.944C51.6818 806.317 50.9613 806.44 50.2594 806.297C49.5576 806.154 48.9077 805.752 48.3957 805.143C47.3957 804.133 46.3958 803.11 45.2458 801.878C46.0561 801.206 46.7893 800.401 47.4257 799.488C47.859 798.642 48.0195 797.627 47.8756 796.642C47.7756 796.186 46.5857 795.817 45.9357 795.915C45.2374 796.179 44.5837 796.597 44.0058 797.147C43.3258 795.915 43.0058 794.005 41.2858 795.595C41.0347 795.691 40.7677 795.706 40.5104 795.64C40.2531 795.573 40.0137 795.426 39.8156 795.213C39.4501 794.479 38.924 793.888 38.2978 793.506C37.6715 793.125 36.9707 792.969 36.2758 793.057C35.4958 793.143 34.5858 791.283 33.7558 790.346C33.9258 788.535 35.8357 786.86 33.4457 784.814C31.1757 787.697 26.4457 787.463 26.4457 793.623C26.4457 794.313 25.8157 795.004 25.4457 795.718L22.0956 794.634C21.6556 795.57 21.2156 796.457 20.8556 797.221L18.7057 796.901V801.065C14.1557 800.511 9.98567 796.901 5.41567 799.254C5.21567 798.022 5.04558 797.122 4.81558 795.755L3.01577 797.603C0.495771 795.693 0.945703 792.81 0.945703 790.125V66.2075C0.945703 65.111 0.945703 64.0145 0.945703 62.9303C0.942529 62.397 1.04925 61.8714 1.25576 61.4026C2.02576 59.9981 2.8657 58.655 3.6957 57.3121C3.7757 57.1766 4.01566 57.2011 4.15566 57.1518C4.29566 58.1867 4.43559 59.197 4.57559 60.2196C12.4056 58.236 13.3657 58.5687 17.2357 64.5811C18.1357 62.3757 18.2956 59.4929 21.0656 59.2095C20.5856 57.9775 20.2356 57.0041 19.8756 56.0677L20.3056 55.6487L22.4857 58.1128C23.8057 58.236 22.9256 54.4168 24.7956 55.7967C23.7156 59.4929 22.6956 63.078 21.5556 67.0452L24.5556 66.1335C23.4956 63.6694 23.4956 63.6693 24.5556 61.4763C24.7956 61.8952 25.0456 62.3019 25.3856 62.8563C26.0056 60.6386 26.5958 58.5812 27.2758 56.1787C29.1858 58.6428 26.1958 60.3552 27.4958 61.8706L29.7357 63.6324C29.9801 62.049 30.3143 60.489 30.7357 58.9632C31.7357 56.1418 30.7356 51.9773 35.2956 51.1025L32.7558 49.5994C33.0558 48.4783 33.3758 47.3079 33.7558 45.9896C35.2858 48.4537 37.0658 44.9054 38.5158 46.926C39.5758 48.4291 42.2158 48.1579 41.7658 50.8068C43.0858 52.0389 44.1656 53.0616 45.3356 53.961C47.0987 55.3752 48.9286 56.6586 50.8156 57.8048C52.2656 58.6303 53.9457 58.852 55.4357 59.5912C57.594 60.6824 59.9028 61.2514 62.2357 61.2669C62.8847 61.1921 63.5389 61.2982 64.15 61.5777C64.7612 61.8571 65.3135 62.3026 65.7658 62.881C66.5467 63.8885 67.5101 64.6537 68.5773 65.1141C69.6445 65.5745 70.7852 65.717 71.9057 65.5298C72.8911 65.5784 73.8713 65.731 74.8356 65.9858C74.9656 65.9858 75.1158 65.8377 75.2558 65.7638L74.7956 64.3964L81.4857 62.77L84.9257 66.2198C85.5018 65.4383 86.3008 64.9615 87.1557 64.8891C87.4466 64.8383 87.7111 64.6535 87.8957 64.3717C89.5657 61.538 92.0358 61.5135 94.5058 61.4026C95.13 61.3326 95.7485 61.2007 96.3556 61.0083C97.2856 55.7104 93.9257 52.2483 93.4857 48.0347C95.0057 47.3448 96.2956 46.7287 97.6056 46.1743C99.3656 45.4227 101.156 44.7574 102.916 44.0059C105.816 42.7738 107.916 44.1414 109.856 46.7657C111.17 48.5421 112.844 49.8561 114.706 50.5728C116.526 51.3367 119.356 51.891 119.226 56.3511C121.966 53.3325 123.386 55.7227 125.156 57.8418L122.746 63.5834L126.396 65.8501V56.6591C128.146 56.2052 129.921 55.9046 131.706 55.7597C135.896 55.7597 138.966 59.037 142.086 61.92C142.298 62.1373 142.468 62.4094 142.585 62.7171C142.702 63.0247 142.763 63.3606 142.763 63.7004C142.763 64.0402 142.702 64.3757 142.585 64.6834C142.468 64.991 142.298 65.2631 142.086 65.4805C140.216 67.1191 139.426 69.4601 138.296 71.7271C137.842 72.455 137.548 73.315 137.443 74.2236C137.338 75.1323 137.425 76.0588 137.696 76.9139C139.606 78.146 142.146 78.5896 142.696 82.5445C141.765 82.7007 140.823 82.7421 139.886 82.6678C138.709 82.2901 137.562 81.7869 136.456 81.1645C137.256 83.0618 138.206 84.2571 138.016 85.0333C137.366 87.7438 138.886 86.7952 139.796 86.9554C139.938 87.1082 140.069 87.2772 140.186 87.4604C138.116 87.7807 138.566 89.4933 138.556 91.2182C139.941 90.6479 141.432 90.5911 142.844 91.0555C144.255 91.5198 145.525 92.4846 146.496 93.83L149.266 92.6843C148.946 93.6455 148.721 94.6506 148.596 95.6781C148.596 99.3003 148.356 99.8055 145.866 101.296C145.596 101.456 145.666 102.528 145.436 104.007C147.106 102.578 148.116 101.543 149.226 100.804C151.446 99.2882 153.026 96.2202 156.066 96.6021C156.378 96.5758 156.681 96.4597 156.95 96.2628C157.219 96.0659 157.447 95.7939 157.616 95.4687C158.746 93.1894 159.816 90.8363 160.756 88.4338C161.295 86.8023 162.269 85.4459 163.518 84.5881C164.767 83.7303 166.216 83.4223 167.626 83.7149C168.375 83.8688 169.143 83.7797 169.856 83.4562C171.938 82.3039 173.944 80.9527 175.856 79.415C178.406 77.2466 180.426 76.9511 183.106 78.9717C183.746 79.4522 184.396 79.9079 184.686 80.1051C187.906 76.8648 191.606 76.7416 195.366 75.7929C195.446 78.0106 195.526 80.2406 195.616 82.8525C196.136 82.3227 196.856 81.8053 196.796 81.6205C196.216 79.4151 197.316 78.109 198.256 76.6059C198.614 75.7967 198.841 74.9099 198.926 73.9941C199.586 70.3596 197.926 67.193 197.216 63.9527C196.596 61.3038 197.216 59.8993 199.016 58.4332C198.916 59.4558 198.806 60.4785 198.676 61.6489L201.726 62.881L203.326 58.6181C202.566 58.0884 200.816 57.497 201.836 55.883C202.666 54.5771 203.976 52.9014 205.836 53.6529L208.386 54.811C207.876 52.852 207.036 52.4209 205.836 53.6776C206.426 51.9774 207.706 52.8645 208.656 52.4456C209.478 52.07 210.253 51.5514 210.956 50.9055C211.076 50.7946 210.806 50.0182 210.696 49.4884L208.696 51.1518L208.056 50.7205C208.466 48.5644 208.866 46.4208 209.296 44.1292C210.563 43.5871 211.941 43.5836 213.21 44.1196C214.478 44.6556 215.565 45.7 216.296 47.086C217.484 49.2263 218.822 51.2341 220.296 53.0862L225.056 47.6527C225.336 48.0346 225.606 48.7494 225.906 48.7617C228.766 48.9219 230.646 51.4721 232.966 52.9629C233.446 53.2709 234.116 54.0595 234.316 53.8993C236.376 52.2607 237.916 54.5028 239.616 54.971C246.299 56.9267 252.643 60.3446 258.346 65.0618C261.526 67.5875 262.936 67.5259 265.436 64.1377C265.922 63.4063 266.549 62.836 267.26 62.4788C267.971 62.1217 268.743 61.9888 269.506 62.0923C270.216 62.0923 270.936 62.0923 271.646 62.0923C271.646 61.9198 271.646 61.7474 271.646 61.575L267.726 61.1069C270.356 58.3471 270.356 58.347 272.886 59.1355C273.496 60.6263 273.746 62.2774 274.536 62.9427C276.446 64.5567 278.226 66.0597 279.306 68.7826C279.502 69.3703 279.672 69.9708 279.816 70.5813C279.936 70.9633 280.706 71.0619 281.676 71.53C281.146 69.4602 280.786 68.0801 280.436 66.7002H280.376C280.906 65.8624 281.426 65.0246 282.096 63.9404C283.236 66.6879 284.276 69.1768 285.366 71.8257C289.056 71.4068 291.206 67.9323 293.686 65.8131C296.316 65.9733 298.546 66.8852 301.216 66.2815C304.496 65.5299 308.056 66.1827 311.446 66.7249C315.386 67.3409 319.236 68.8318 323.176 69.2876C325.306 69.5217 326.706 70.0269 327.006 72.4047C328.715 72.6937 330.442 72.7968 332.166 72.7128C333.456 72.4399 334.781 72.5524 336.028 73.0412C337.276 73.53 338.41 74.3809 339.336 75.5219C341.486 77.986 343.846 80.4499 347.506 78.725C347.963 78.4653 348.459 78.3234 348.963 78.3075C349.467 78.2917 349.968 78.4021 350.436 78.6327C350.904 78.8633 351.328 79.2089 351.684 79.6485C352.04 80.088 352.32 80.6122 352.506 81.1891C351.996 82.6799 351.506 84.0968 351.026 85.5013C352.633 86.3123 354.205 87.2252 355.736 88.2364C356.936 89.1235 357.926 90.4543 359.076 91.4769C360.966 93.1402 361.276 94.1996 360.816 97.1688C360.736 97.6493 361.306 98.2779 361.596 98.9062C363.596 96.4421 365.976 96.4419 368.316 96.2571C368.676 98.7212 369.016 100.84 369.416 103.477C370.886 102.775 372.496 102.602 372.756 101.777C373.756 98.6722 376.406 98.7215 377.996 96.8488C377.726 92.3641 380.816 88.0024 384.356 88.6184C385.846 88.8649 386.656 89.0005 387.616 87.5097C388.006 86.8937 389.016 86.8321 389.766 86.635C393.106 85.7849 396.446 84.9593 399.976 84.0846C400.506 81.6205 400.976 79.2425 401.516 76.9016C401.946 74.9426 402.066 72.6265 403.026 71.1604C403.797 70.0874 404.248 68.7228 404.306 67.2915C404.358 65.8279 404.66 64.3943 405.192 63.0843C405.725 61.7744 406.475 60.6178 407.396 59.6899C408.057 59.002 408.835 58.5047 409.672 58.234C410.51 57.9634 411.385 57.9261 412.236 58.1251C416.116 58.6426 419.306 61.6611 423.296 61.8213C427.696 62.0308 432.076 63.0535 436.466 63.7804C437.206 68.7086 444.466 70.6923 447.626 68.1666L454.846 70.6307L457.186 75.1522C455.746 79.2057 458.596 81.214 460.876 83.9122L463.506 78.984C463.646 78.984 464.346 79.4398 464.686 79.1687C467.287 77.2912 469.782 75.2001 472.156 72.9098C474.171 70.6425 476.028 68.1696 477.706 65.5175C478.706 64.0144 480.066 62.3634 480.306 60.5893C480.836 56.5974 482.526 52.8397 482.006 48.6014C482.035 47.6468 482.183 46.7034 482.446 45.8046C482.936 42.4904 484.756 41.0365 487.266 40.5191C488.926 40.1864 490.426 40.9012 492.026 41.2831C494.796 41.9607 497.706 41.6772 500.636 41.8005C503.426 35.5786 509.216 38.1044 513.356 35.4062C513.595 36.088 513.789 36.7925 513.936 37.5129C514.106 39.0037 514.226 40.507 514.296 41.9978C514.348 43.6142 514.702 45.1941 515.329 46.615C515.957 48.0358 516.842 49.2593 517.916 50.1908C520.036 52.1867 522.376 52.1869 524.766 52.1869C526.197 52.1043 527.625 52.3964 528.958 53.0441C530.29 53.6919 531.496 54.6803 532.496 55.9444C533.636 57.583 535.046 58.2237 536.266 59.3202C536.932 59.9429 537.749 60.2689 538.585 60.2442C539.421 60.2196 540.225 59.846 540.866 59.1848C541.206 58.8645 541.916 59.1848 542.456 59.1848C544.456 53.0246 548.806 49.4638 552.686 50.6958C554.226 53.739 552.906 58.9015 556.976 59.5545L562.376 55.624C560.836 59.3941 563.956 60.2813 564.226 63.078C565.496 62.0801 566.516 61.304 567.496 60.4662C568.024 60.005 568.522 59.4943 568.986 58.9385C569.307 58.5124 569.717 58.2015 570.17 58.0394C570.624 57.8773 571.104 57.8698 571.561 58.0178C572.018 58.1657 572.433 58.4636 572.763 58.8795C573.093 59.2955 573.326 59.8141 573.436 60.3799C573.626 61.267 573.646 62.2156 573.786 63.1397C573.976 64.3717 574.196 65.6038 574.556 67.7969C576.096 65.4683 577.056 63.8665 578.146 62.4003C580.246 59.5789 582.396 59.4436 584.866 61.6859C585.799 62.5672 586.825 63.2884 587.916 63.8297C589.636 64.6429 591.436 65.222 592.816 65.7394C593.207 67.2608 593.699 68.7399 594.286 70.1623C595.676 72.8605 597.216 75.4355 598.906 78.4417L601.666 80.0681C600.176 83.2837 600.176 83.2839 602.286 84.2202C601.866 80.7582 603.286 78.8728 605.736 77.7763C606.217 77.4312 606.663 77.0177 607.066 76.5443C610.436 73.5627 613.766 70.4951 618.176 69.3986C618.326 67.6121 618.476 65.7023 618.626 63.9897C621.536 63.1643 622.516 63.6818 623.826 65.9118C625.466 68.6962 626.736 71.9612 629.976 72.7498C630.638 72.988 631.214 73.5002 631.606 74.2005C631.997 74.9007 632.181 75.7459 632.126 76.5936C631.394 76.8804 630.714 77.3409 630.126 77.949C629.923 78.3022 629.789 78.7086 629.735 79.1362C629.682 79.5638 629.709 80.0008 629.816 80.4131C630.096 81.2509 630.666 81.645 631.676 80.8934C633.011 80.0776 634.447 79.5405 635.926 79.3041C636.496 79.1685 637.516 79.4643 637.726 79.9571C639.116 83.2343 640.906 81.7561 642.636 81.1154C642.494 79.9601 642.404 78.7961 642.366 77.6286C642.426 73.6491 643.316 69.6451 641.826 65.7394C641.704 64.9746 641.704 64.1879 641.826 63.423C644.226 63.1889 646.416 63.1149 648.576 62.733C651.146 62.2772 652.686 63.5833 653.816 66.3308C654.312 67.6688 655.133 68.7837 656.166 69.5216C657.49 70.4003 658.617 71.6703 659.446 73.2178C660.487 74.5779 661.628 75.8153 662.856 76.9139C662.966 77.0372 662.856 77.4315 662.856 77.912L660.256 80.4871L662.796 82.3965L664.066 77.5546C667.826 76.1994 670.596 78.6021 673.356 81.4358C674.356 80.4625 675.176 79.6245 676.016 78.762C676.796 77.7898 677.646 76.9074 678.556 76.1256C679.896 75.3254 681.117 74.2504 682.166 72.9468C684.086 70.3718 686.766 70.914 688.706 73.7108C690.646 76.5076 692.206 79.5012 694.476 81.4971C696.042 82.9006 697.379 84.6565 698.416 86.672C699.666 89.0006 700.356 89.6905 702.336 89.0621C703.745 88.4626 705.112 87.7251 706.426 86.8567C711.036 88.1873 711.036 88.1873 713.426 85.6246C713.206 85.3413 712.806 85.0703 712.806 84.7869C712.806 83.9245 712.736 82.5939 713.126 82.3228C714.356 81.3618 713.956 83.1111 714.336 83.6409C714.996 84.5403 715.986 85.4399 716.776 84.1709C717.076 83.6781 716.466 82.3104 716.196 80.9798C716.406 79.9202 716.716 78.3555 717.116 76.3719C717.966 76.298 719.416 75.6205 720.286 76.2119C723.696 78.5282 727.216 78.6759 730.896 77.9983C731.406 77.8997 731.956 78.3061 732.496 78.3923C732.832 78.3928 733.167 78.3517 733.496 78.2693V75.1275C734.796 74.9058 735.996 74.7579 737.166 74.5115C738.646 74.1912 740.166 73.7478 741.596 73.4274C743.476 73.0209 745.366 72.6882 747.736 72.1954C749.806 68.8812 749.836 68.8688 753.866 70.335C754.269 70.5179 754.712 70.5179 755.116 70.335C756.826 68.8688 758.276 70.1377 759.816 70.803C762.106 71.8133 762.986 71.3452 764.446 68.7209C764.927 67.5756 765.61 66.5777 766.446 65.8008C767.354 65.1723 768.081 64.2098 768.523 63.0479C768.966 61.8861 769.103 60.5828 768.916 59.3202C768.646 56.8561 769.666 55.2051 769.916 53.1599C770.036 52.3238 770.417 51.5793 770.978 51.0863C771.539 50.5932 772.235 50.3911 772.916 50.5235C775.256 51.0533 776.126 49.5624 776.916 47.6527L769.396 33.8908C771.126 32.1536 772.806 30.4411 774.506 28.7655C775.264 27.8703 776.259 27.3424 777.308 27.279C778.358 27.2156 779.39 27.621 780.216 28.4205C781.063 29.3121 782.108 29.8698 783.216 30.022C784.966 29.8741 786.356 30.8598 787.916 31.254C790.086 31.8331 792.276 32.4863 794.486 30.589C797.486 28.0016 800.716 28.248 803.916 30.207C804.986 30.8723 806.026 31.5991 807.046 32.2767L805.226 34.0141C805.553 34.3457 805.938 34.5784 806.352 34.6939C806.765 34.8094 807.194 34.8043 807.606 34.6792C811.986 32.5107 812.796 27.4224 813.816 22.6913L818.756 22.1616C818.636 19.6975 818.386 17.6155 818.456 15.521C818.546 13.0569 819.586 12.1575 821.166 13.3772C822.476 14.3875 823.636 14.0178 824.896 13.9439C825.893 13.8239 826.898 13.8239 827.896 13.9439C828.956 14.1287 829.276 15.065 828.896 16.3094C828.736 16.7652 828.606 17.2335 828.456 17.6894L829.006 18.0588C829.826 16.6789 830.656 15.3114 831.516 13.8823C834.116 17.8987 834.106 17.8863 837.856 15.6193C838.542 15.1858 839.267 14.8509 840.016 14.6213C840.936 14.3626 842.206 13.7344 842.776 14.2273C845.656 16.753 847.876 14.6338 850.386 13.2662C852.209 12.489 854.087 11.9197 855.996 11.5658C856.126 12.3051 856.236 12.9088 856.346 13.4633L858.176 13.3156C858.796 16.8146 858.796 16.8145 862.486 16.9254C864.786 11.6029 867.046 6.3421 869.486 0.637695C871.876 2.1408 874.166 3.69326 876.536 5.02387C878.466 6.10808 878.806 7.98084 878.906 10.2971C879.061 12.131 879.346 13.9447 879.756 15.718C880.126 17.7139 880.566 19.7098 881.136 22.445C882.006 22.9378 883.516 23.677 884.976 24.6257C887.366 26.0919 889.156 27.94 888.786 31.784C888.831 33.0407 889.083 34.2729 889.526 35.4062C891.336 36.0838 892.986 36.1453 893.946 37.1803C895.466 38.8189 896.876 38.5972 898.546 38.166C900.015 37.7491 901.518 37.5383 903.026 37.5376C903.461 37.5657 903.893 37.43 904.265 37.1484C904.637 36.8667 904.93 36.4523 905.106 35.9605C905.246 35.6648 905.606 35.5293 905.906 35.2829L907.846 37.5623C908.426 37.1803 909.126 36.9954 909.316 36.5149C909.506 36.0344 909.316 35.1599 909.256 34.2728C912.856 34.5069 913.786 31.1925 915.016 28.3095C915.666 26.7818 916.346 25.2664 917.016 23.751L921.016 20.5106L924.376 22.3096C924.376 22.4944 924.376 22.6915 924.376 22.8763C925.836 26.018 925.876 26.0302 928.636 24.8474L926.956 22.8886L929.366 23.0117V22.864C929.576 23.7634 928.866 25.4143 930.366 25.3281C931.466 25.2295 931.576 24.0958 931.096 22.9623L932.146 21.9893C932.656 21.9277 933.336 21.5949 933.656 21.8783C933.802 22.0409 933.976 22.1599 934.165 22.226C934.354 22.2921 934.554 22.3035 934.747 22.2594C934.941 22.2153 935.123 22.1167 935.281 21.9715C935.438 21.8264 935.567 21.6384 935.656 21.4223C936.656 18.4407 939.326 16.4941 938.966 12.7979C940.288 12.5691 941.634 12.689 942.916 13.1492C944.197 13.6094 945.385 14.3997 946.4 15.4677C947.416 16.5357 948.235 17.8569 948.805 19.3444C949.375 20.8318 949.682 22.4515 949.706 24.096L946.306 27.7182C946.856 28.3219 947.306 29.1844 947.866 29.3569C948.426 29.5294 948.716 28.8023 948.976 27.8905C949.666 25.4264 951.566 25.2664 952.976 27.4595C953.57 28.5664 954.487 29.351 955.536 29.6526C956.814 29.997 957.96 30.8657 958.786 32.1167C959.634 33.5545 960.904 34.5271 962.326 34.8271C965.016 35.6403 966.906 37.2913 967.476 40.7041C970.226 40.8519 972.846 41.7513 975.276 39.7677C975.586 39.5812 975.933 39.5086 976.276 39.5583C979.226 39.6569 982.166 39.7429 985.116 39.94C985.552 39.9384 985.984 40.0431 986.388 40.2481C986.791 40.453 987.158 40.7543 987.466 41.1345C987.775 41.5147 988.019 41.9664 988.186 42.4634C988.352 42.9604 988.437 43.4929 988.436 44.0305C988.626 47.0984 988.796 50.1908 989.096 53.2339C989.286 55.1683 990.276 55.772 991.616 54.466C992.243 53.8394 993.008 53.456 993.812 53.3639C994.617 53.2718 995.425 53.4752 996.136 53.9486L1001.27 47.1353V43.0448C1002.74 41.3692 1004.02 41.4432 1005.19 43.3899C1003.34 43.1927 1002.99 44.3386 1003.5 46.2483L1002.18 47.4804L1004.93 50.8932V47.468C1003.6 47.3448 1003.6 47.3448 1003.48 46.236L1005.23 45.1026C1005.18 44.5481 1005.13 43.8705 1005.08 43.2545C1007.08 42.7494 1007.75 45.0407 1009.35 46.4083C1010.09 44.4986 1010.68 42.8107 1011.35 41.1968C1012.02 39.5828 1012.79 37.7224 1014.88 39.1147C1015.44 39.3507 1016.04 39.3765 1016.62 39.1887C1018.52 35.4925 1016.01 31.0941 1019.48 28.1002L1022.95 31.7963C1024.87 30.9709 1026.69 29.3322 1029.05 30.5026C1028.69 31.8209 1028.39 32.9667 1028.05 34.1988L1028.48 34.5438C1028.96 34.0387 1029.48 33.5336 1029.89 33.0654L1030.97 33.8784L1033.84 31.3403C1034.2 32.9196 1034.71 34.4442 1035.35 35.8865C1036.27 37.4513 1037.35 39.3733 1038.69 39.9524C1039.89 40.4895 1040.98 41.3286 1041.91 42.4165C1044.23 44.9668 1046.75 47.1229 1050.36 45.5213V41.0737C1051.37 40.5983 1052.48 40.5546 1053.52 40.9498C1054.56 41.345 1055.46 42.1564 1056.08 43.2545C1056.72 44.2821 1057.63 45.0011 1058.66 45.2873C1061.09 45.6815 1063.55 45.6444 1066 45.78L1066.47 41.3941C1068.01 41.5912 1070.47 39.8416 1070.89 38.511C1071.04 37.9103 1071.31 37.3594 1071.66 36.8969C1072.53 35.9161 1073.45 34.9909 1074.41 34.1248C1075.75 32.7729 1077.17 31.5379 1078.66 30.4286C1079.01 30.3078 1079.38 30.295 1079.74 30.3916C1080.09 30.4883 1080.43 30.6913 1080.71 30.983C1082.05 32.6586 1083.79 32.9544 1085.46 33.5211C1086.36 33.8168 1087.3 33.9277 1088.19 34.1125C1088.33 35.1843 1088.47 36.2193 1088.61 37.2666C1090.24 37.6693 1091.76 38.5956 1093.02 39.9524C1095.11 42.4165 1097.92 43.6485 1100.22 42.6998C1103.37 41.4678 1106.87 41.7882 1109.76 39.0653L1116.76 45.7186C1114.11 48.4538 1111.95 50.8806 1110.98 54.6877C1112.73 57.2873 1114.23 60.4168 1117.86 60.3552C1118.54 56.8192 1122.86 56.659 1122.86 52.2482C1122.86 52.0881 1123.2 51.928 1123.37 51.7679C1126.61 48.5645 1129.37 48.3182 1132.18 52.1129C1134.99 55.9076 1139 57.041 1142.55 59.6899C1143.02 56.2894 1143.02 53.049 1145.24 51.6075L1149.31 55.587L1151.38 53.5666L1147.38 52.1375C1147.9 51.4476 1148.11 50.9053 1148.45 50.7328C1150.64 49.587 1152.33 52.2606 1154.51 51.9649L1156.81 48.7001L1155.33 48.8231L1156.48 46.5316C1159.48 47.1477 1158.97 51.0901 1160.86 52.8643C1161.48 51.5352 1162.19 50.2705 1162.99 49.0821C1164.55 47.0738 1165.93 44.6836 1168.82 45.6816C1171.18 46.3399 1173.58 46.8334 1176 47.16C1179 43.7965 1179.5 43.316 1182 43.4638C1184.67 43.5994 1187.32 44.0923 1190.09 44.4495C1189.33 49.1437 1188.39 53.5666 1188.77 58.2115C1188.97 60.6756 1189.43 61.4395 1191.34 60.7496C1193.39 60.2053 1195.29 58.983 1196.83 57.2134C1197.58 56.245 1198.54 55.5397 1199.59 55.1683C1200.59 54.8234 1201.77 55.4888 1201.23 57.0904C1200.23 59.9611 1202.8 60.1087 1203.32 61.772L1204.32 59.5545L1205.97 60.4662C1206.12 59.6777 1206.28 58.889 1206.43 58.1128C1211.87 57.9403 1214.24 60.3675 1213.24 64.8768C1215.69 62.9424 1218.34 65.2835 1221.1 64.4581C1221.53 62.2157 1222.3 60.1827 1224.78 60.2566C1226.3 60.1828 1227.82 59.9811 1229.33 59.6529C1232.91 59.1354 1236.57 59.0124 1239.24 55.193C1239.84 54.3183 1241.16 54.1949 1242.1 53.7636C1242.68 55.1559 1243.1 56.1416 1243.69 57.5215C1245.5 54.9341 1245.07 52.1252 1245.3 49.6364C1250.1 48.5646 1252.24 49.6364 1255.56 54.7863C1257.16 54.2566 1257.36 52.4949 1257.56 50.9425C1257.99 48.0718 1259.56 46.9013 1261.65 46.31C1262.4 46.0987 1263.18 46.0279 1263.96 46.1003C1264.9 46.179 1265.84 45.9465 1266.69 45.4268C1267.54 44.9072 1268.26 44.1192 1268.78 43.1435C1270.89 39.8046 1271.55 39.817 1273.39 43.2175C1274.59 45.4352 1276.04 47.5418 1278.31 47.9237C1279.46 48.1208 1280.85 46.8765 1281.87 47.2954C1282.89 47.7143 1283.62 49.3654 1284.57 50.5851C1285.73 48.9219 1286.75 47.3941 1287.83 45.9526C1288.2 45.5141 1288.65 45.1709 1289.14 44.9422C1290.64 44.1291 1292.14 43.3284 1293.66 42.5891C1295.49 41.7021 1297.28 40.5067 1299.07 42.9585C1299.92 44.1166 1301.07 43.7472 1301.97 42.5645C1302.52 41.8271 1303.21 41.2506 1303.97 40.8764C1305.14 40.429 1306.33 40.0752 1307.55 39.817C1307.39 36.4905 1307.24 33.5334 1307.1 30.6997L1310.66 30.934C1312.84 31.0818 1315.03 31.3527 1317.22 31.3897C1318.18 31.2983 1319.13 31.6659 1319.87 32.4163C1320.62 33.1666 1321.1 34.2419 1321.22 35.4185C1321.25 36.1488 1321.53 36.8303 1321.97 37.3132C1322.42 37.7961 1323 38.0409 1323.6 37.9936C1324.48 38.0429 1325.33 38.423 1326.03 39.0834C1326.74 39.7438 1327.26 40.6531 1327.54 41.6898C1328.26 44.5433 1329.61 47.0988 1331.43 49.0821C1333.01 47.6406 1334.61 47.9977 1336.36 48.8724C1337.89 49.5528 1339.55 49.6525 1341.13 49.1585C1342.71 48.6644 1344.13 47.5993 1345.22 46.1003C1346.74 43.6978 1347.93 40.9752 1349 38.93L1352.4 37.1309C1353.19 37.8324 1354.02 38.4584 1354.9 39.0037C1355.41 39.1948 1355.96 39.1691 1356.47 38.93C1357.07 35.0737 1359.21 36.9955 1360.58 37.4883C1364.08 38.7203 1366.8 36.7367 1367.24 32.2274C1367.59 28.7776 1367.83 25.3034 1368.3 21.8783C1368.8 18.1821 1372.12 15.718 1374.84 17.2827C1376.35 18.1698 1377.74 17.8986 1379.2 18.0218C1380.66 18.145 1382.05 18.022 1383.47 18.2068C1387.67 18.7223 1391.76 20.1355 1395.57 22.3833C1397.02 23.3362 1398.54 24.0962 1400.13 24.6504C1402.7 25.3527 1405.34 25.6482 1407.7 26.0795C1409.13 28.3341 1407.53 31.3528 1409.7 33.0037C1412.82 32.4 1416.09 29.8004 1419.22 33.2624C1418.34 35.3939 1418.74 35.4061 1418.73 38.6957C1418.73 40.2604 1419.43 40.1988 1419.73 40.9257C1420.02 41.8817 1420.19 42.8875 1420.23 43.9072L1428.1 46.088L1431.26 43.9812C1431.83 45.3365 1432.26 46.1619 1433.44 44.9053C1434.53 43.6275 1435.8 42.6085 1437.2 41.8991C1444.36 38.8929 1451.8 38.6589 1459.2 39.238C1461.22 39.4139 1463.25 39.134 1465.2 38.4123C1466.68 37.9053 1468.21 37.6485 1469.75 37.6486C1470.11 37.7301 1470.45 37.9078 1470.75 38.1696C1471.05 38.4313 1471.3 38.7707 1471.49 39.164C1472.13 40.6057 1472.68 42.0999 1473.16 43.6362C1478.3 37.3404 1480.51 36.6874 1485.35 39.94C1483.83 43.0325 1485.93 44.9299 1486.77 47.3324L1488.71 46.507V56.4374C1489.05 58.9015 1490.83 58.9629 1492.42 58.9875L1491.32 61.9446C1493.97 62.9241 1496.72 63.4384 1499.5 63.4724C1502.23 63.4724 1505.01 62.9057 1506.94 66.3308C1507.28 66.9468 1508.5 66.9466 1509.32 66.9959C1511.96 67.156 1514.6 67.156 1517.24 67.2915C1519.4 67.4024 1521.56 67.6367 1523.74 67.8215C1523.74 63.6202 1521.3 61.1929 1520.14 57.7801C1521.72 56.6713 1523.09 55.5748 1524.57 54.737C1525.26 54.3896 1526.03 54.3463 1526.75 54.614C1529.75 55.846 1532.7 57.1395 1535.75 58.4578C1535.7 59.3449 1535.65 60.3306 1535.59 61.3039C1536.35 61.1191 1536.8 60.7248 1536.86 60.2689C1537.3 57.0532 1538.57 55.7351 1541.05 56.4621C1542.32 56.9459 1543.55 57.5771 1544.73 58.3471C1544.48 60.8112 1544.29 62.7578 1544.18 63.8174L1548.93 68.4252L1550.18 64.6304C1552.51 63.4846 1554.25 66.2199 1556.51 66.2938C1557.96 63.8297 1558.85 60.6632 1561.39 59.3449L1565.5 63.2753C1567.69 62.4411 1569.84 61.4494 1571.94 60.3059C1575.63 57.9896 1576.34 57.4599 1579.09 62.1417C1580.84 61.1314 1582.72 60.0594 1584.61 62.696C1585.76 60.2319 1586.33 57.2134 1587.78 56.2031C1590.01 54.663 1590.1 52.3344 1590.64 50.0428C1591.86 50.511 1593.54 50.5358 1593.98 51.4599C1595.16 53.924 1596.31 51.3489 1597.32 51.7432C1600.07 57.1273 1605.09 57.3982 1609.19 60.2812C1610.85 57.2087 1613.39 55.0125 1616.31 54.121C1617.15 53.8499 1618.37 53.9732 1618.8 53.3079C1620.55 50.6713 1622.65 51.423 1623.94 51.8665C1626.13 50.5113 1627.61 49.4023 1629.2 48.6384C1631.85 47.2955 1631.59 51.1026 1632.8 52.1499C1634.72 50.2772 1636.45 48.4536 1638.27 46.8397C1638.73 46.4876 1639.28 46.3602 1639.82 46.4823C1641.5 46.8643 1643.17 47.4063 1645.04 47.9484L1643.85 52.6426L1647.41 55.6857C1648.1 51.8787 1650.41 52.6549 1652.2 51.9896L1658.03 49.7965C1658.2 51.9033 1658.34 53.7022 1658.48 55.501C1660.92 55.7105 1660.92 55.7105 1661.7 58.6428C1661.77 59.182 1661.92 59.7 1662.15 60.1705C1662.55 60.7496 1663.08 61.5133 1663.58 61.5626C1663.82 61.4751 1664.04 61.3211 1664.23 61.112C1664.42 60.903 1664.57 60.6444 1664.67 60.3552C1664.85 58.618 1665.78 58.9261 1666.67 58.8892Z" fill="white"/>
</mask>
<g mask="url(#mask0_1_35)">
<rect x="-39.7051" y="16.8699" width="1746.99" height="979.082" fill="black" fill-opacity="0.2"/>
</g>
</svg>
