<?xml version="1.0" encoding="UTF-8"?>
<svg id="Layer_1" data-name="Layer 1" xmlns="http://www.w3.org/2000/svg" version="1.1" viewBox="0 0 682 642">
  <defs>
    <style>
      .cls-1 {
        fill: #ffd549;
      }

      .cls-1, .cls-2, .cls-3 {
        stroke-width: 0px;
      }

      .cls-2 {
        fill: #9d29fa;
      }

      .cls-4 {
        stroke: #9d29fa;
      }

      .cls-4, .cls-5, .cls-6, .cls-7 {
        fill: none;
        stroke-linecap: round;
      }

      .cls-4, .cls-5, .cls-7 {
        stroke-dasharray: 0 0 20 20;
        stroke-width: 6px;
      }

      .cls-3 {
        fill: #c5ac8e;
      }

      .cls-5 {
        stroke: #ffd549;
      }

      .cls-6 {
        stroke-width: 4.4px;
      }

      .cls-6, .cls-7 {
        stroke: #c5ac8e;
      }
    </style>
  </defs>
  <circle class="cls-7" cx="285.5" cy="357.2" r="281.5"/>
  <circle class="cls-6" cx="285.5" cy="357.2" r="154.5"/>
  <path class="cls-3" d="M190.1,319.1v34.5c0,2.3.4,3.9,1.3,4.8.9.9,2.4,1.3,4.5,1.3v1.7c-1.1,0-2.6-.1-4.7-.2-2-.1-4.1-.2-6.3-.2s-5.4,0-7.9.2c-2.5,0-4.5.1-5.8.2v-1.7c2.4,0,4.2-.4,5.5-1.3,1.3-.9,2-2.7,2-5.3v-19.5c0-2.6-.2-4.5-.6-5.7-.4-1.2-1.2-2-2.4-2.4-1.2-.4-2.8-.6-4.8-.6v-1.8c4.6-.1,8.4-.5,11.4-1,3-.6,5.7-1.6,8-3ZM224.4,318.9c4.3,0,8,.9,11.3,2.6,3.3,1.7,5.8,4.2,7.7,7.4,1.9,3.1,2.8,6.9,2.8,11.1s-1,8.1-2.9,11.5c-1.9,3.4-4.5,6-7.9,8-3.4,2-7.3,3-11.8,3s-7.9-.9-11.2-2.6c-3.3-1.8-5.8-4.2-7.8-7.4-1.9-3.2-2.8-6.9-2.8-11.2s.9-8,2.8-11.4c1.9-3.4,4.5-6.1,7.9-8.1,3.4-2,7.4-3,11.9-3ZM223.7,320.3c-2.9,0-5.3,1.8-7.1,5.5-1.8,3.6-2.7,8.7-2.7,15.2s.5,8.7,1.4,11.6c1,2.9,2.2,5.1,3.8,6.4,1.6,1.3,3.3,2,5.2,2,2.9,0,5.2-1.8,7-5.5,1.9-3.7,2.8-8.8,2.8-15.3s-.5-8.7-1.4-11.6c-1-2.9-2.2-5-3.8-6.3-1.5-1.3-3.3-2-5.1-2ZM276,318.9c4.3,0,8,.9,11.3,2.6,3.3,1.7,5.8,4.2,7.7,7.4,1.9,3.1,2.8,6.9,2.8,11.1s-1,8.1-2.9,11.5c-1.9,3.4-4.5,6-7.9,8-3.4,2-7.3,3-11.8,3s-7.9-.9-11.2-2.6c-3.3-1.8-5.8-4.2-7.8-7.4-1.9-3.2-2.8-6.9-2.8-11.2s.9-8,2.8-11.4c1.9-3.4,4.5-6.1,7.9-8.1,3.4-2,7.4-3,11.9-3ZM275.2,320.3c-2.9,0-5.3,1.8-7.1,5.5-1.8,3.6-2.7,8.7-2.7,15.2s.5,8.7,1.4,11.6c1,2.9,2.2,5.1,3.8,6.4,1.6,1.3,3.3,2,5.2,2,2.9,0,5.2-1.8,7-5.5,1.9-3.7,2.8-8.8,2.8-15.3s-.5-8.7-1.4-11.6c-1-2.9-2.2-5-3.8-6.3-1.5-1.3-3.3-2-5.1-2ZM327.5,318.9c4.3,0,8,.9,11.3,2.6,3.3,1.7,5.8,4.2,7.7,7.4,1.9,3.1,2.8,6.9,2.8,11.1s-1,8.1-2.9,11.5c-1.9,3.4-4.5,6-7.9,8-3.4,2-7.3,3-11.8,3s-7.9-.9-11.2-2.6c-3.3-1.8-5.8-4.2-7.8-7.4-1.9-3.2-2.8-6.9-2.8-11.2s.9-8,2.8-11.4c1.9-3.4,4.5-6.1,7.9-8.1,3.4-2,7.4-3,11.9-3ZM326.8,320.3c-2.9,0-5.3,1.8-7.1,5.5-1.8,3.6-2.7,8.7-2.7,15.2s.5,8.7,1.4,11.6c1,2.9,2.2,5.1,3.8,6.4,1.6,1.3,3.3,2,5.2,2,2.9,0,5.2-1.8,7-5.5,1.9-3.7,2.8-8.8,2.8-15.3s-.5-8.7-1.4-11.6c-1-2.9-2.2-5-3.8-6.3-1.5-1.3-3.3-2-5.1-2ZM379.1,318.9c4.3,0,8,.9,11.3,2.6,3.3,1.7,5.8,4.2,7.7,7.4,1.9,3.1,2.8,6.9,2.8,11.1s-1,8.1-2.9,11.5c-1.9,3.4-4.5,6-7.9,8-3.4,2-7.3,3-11.8,3s-7.9-.9-11.2-2.6c-3.3-1.8-5.8-4.2-7.8-7.4-1.9-3.2-2.8-6.9-2.8-11.2s.9-8,2.8-11.4c1.9-3.4,4.5-6.1,7.9-8.1,3.4-2,7.4-3,11.9-3ZM378.4,320.3c-2.9,0-5.3,1.8-7.1,5.5-1.8,3.6-2.7,8.7-2.7,15.2s.5,8.7,1.4,11.6c1,2.9,2.2,5.1,3.8,6.4,1.6,1.3,3.3,2,5.2,2,2.9,0,5.2-1.8,7-5.5,1.9-3.7,2.8-8.8,2.8-15.3s-.5-8.7-1.4-11.6c-1-2.9-2.2-5-3.8-6.3-1.5-1.3-3.3-2-5.1-2Z"/>
  <path class="cls-3" d="M228.7,384c-.1,1.4-.2,2.7-.2,3.9,0,1.3,0,2.2,0,2.9s0,1.1,0,1.7c0,.5,0,1,0,1.4h-.9c-.4-2.2-1-4-1.6-5.3-.6-1.3-1.4-2.2-2.3-2.8-.9-.6-2-.8-3.2-.8h-.9v22.8c0,1.1.1,1.9.3,2.4.2.5.7.9,1.3,1.1.6.2,1.5.3,2.7.3v.8c-.8,0-1.9,0-3.3,0-1.4,0-2.8,0-4.3,0s-2.9,0-4.2,0c-1.3,0-2.4,0-3.2,0v-.8c1.2,0,2.1-.1,2.7-.3.6-.2,1-.5,1.2-1.1.2-.5.3-1.3.3-2.4v-22.8h-.9c-1.2,0-2.3.3-3.2.8-.9.5-1.7,1.5-2.3,2.8-.6,1.3-1.2,3.1-1.7,5.3h-.9c0-.4,0-.8,0-1.4,0-.5,0-1.1,0-1.7s0-1.6,0-2.9c0-1.3,0-2.6-.2-3.9,1.2,0,2.6,0,4,0,1.5,0,2.9,0,4.4,0h7.9c1.5,0,2.9,0,4.4,0,1.5,0,2.8,0,4,0ZM245.6,383.4c2.8,0,5.3.6,7.4,1.7,2.1,1.1,3.8,2.8,5,5,1.2,2.1,1.8,4.7,1.8,7.8s-.6,5.6-1.8,7.8c-1.2,2.2-2.9,4-5,5.2-2.1,1.3-4.6,1.9-7.3,1.9s-5.3-.6-7.4-1.7c-2.1-1.1-3.7-2.8-4.9-5-1.2-2.2-1.8-4.8-1.8-7.8s.6-5.6,1.8-7.8c1.2-2.2,2.9-4,5-5.2,2.1-1.3,4.6-1.9,7.4-1.9ZM245.4,384.1c-1.5,0-2.8.6-3.9,1.8-1.1,1.2-1.9,2.9-2.6,5-.6,2.1-.9,4.5-.9,7.3s.3,5.3,1,7.4c.7,2.1,1.6,3.7,2.8,4.8,1.2,1.1,2.5,1.7,3.9,1.7s2.8-.6,3.9-1.8c1.1-1.2,2-2.9,2.6-5,.6-2.1.9-4.6.9-7.3s-.3-5.3-1-7.4c-.7-2.1-1.6-3.7-2.8-4.8-1.1-1.1-2.4-1.7-3.8-1.7ZM288.7,384v.8c-.9.2-1.8.6-2.8,1.1-1,.6-2,1.5-3,2.7l-7.5,9,2.3-3.3,9.5,14.8c.4.6.8,1.1,1.2,1.5.4.4,1,.7,1.7,1v.8c-.9,0-2,0-3.1,0-1.1,0-2.2,0-3.1,0s-1.2,0-2,0c-.8,0-1.8,0-3,0v-.8c1.1,0,1.7-.2,2-.4.2-.3.1-.7-.3-1.4l-5.8-9.4c-.4-.6-.7-1.1-1-1.4-.3-.3-.6-.5-.9-.6-.3-.1-.7-.2-1.2-.2v-.8c1.2,0,2.2-.3,3.1-1,.9-.6,1.9-1.5,3-2.8l2.4-2.8c1-1.2,1.6-2.2,1.8-3.1.2-.9,0-1.6-.5-2-.5-.5-1.3-.7-2.4-.8v-.8c.7,0,1.3,0,1.9,0,.6,0,1.2,0,1.9,0h2.2c.8,0,1.5,0,2.1,0,.6,0,1.2,0,1.7,0ZM274.8,384v.8c-.9,0-1.5.1-2,.3-.4.2-.7.5-.8,1-.1.5-.2,1.2-.2,2.2v19.8c0,1,0,1.7.2,2.2.2.5.5.8.9,1s1.1.3,1.9.3v.8c-.7,0-1.6,0-2.7,0-1.1,0-2.2,0-3.3,0s-2.5,0-3.6,0c-1.1,0-2,0-2.7,0v-.8c.9,0,1.5-.2,1.9-.3s.7-.5.8-1c.2-.5.2-1.2.2-2.2v-19.8c0-1,0-1.7-.2-2.2-.1-.5-.4-.8-.9-1-.4-.2-1.1-.3-1.9-.3v-.8c.7,0,1.6,0,2.7,0,1.1,0,2.4,0,3.6,0s2.2,0,3.3,0c1.1,0,2,0,2.7,0ZM312.4,384c-.1,1.2-.2,2.3-.2,3.4,0,1.1,0,1.9,0,2.5s0,1,0,1.5c0,.5,0,.9,0,1.2h-.9c-.3-1.9-.7-3.5-1.2-4.6-.6-1.1-1.3-1.9-2.2-2.4-.9-.5-1.9-.7-3.1-.7h-1.6c-.8,0-1.4,0-1.8.2-.4.1-.7.4-.8.8-.1.4-.2,1-.2,1.8v20.8c0,.8,0,1.4.2,1.8.1.4.4.7.8.8.4.1,1,.2,1.8.2h2c1.2,0,2.3-.3,3.2-.8.9-.5,1.7-1.4,2.4-2.7.7-1.3,1.2-2.9,1.5-5.1h.9c0,.9-.1,2-.1,3.4s0,1.5,0,2.6c0,1.1.1,2.3.2,3.5-1.4,0-2.9,0-4.6,0-1.7,0-3.2,0-4.6,0h-2.6c-1,0-2.2,0-3.4,0-1.2,0-2.4,0-3.6,0-1.2,0-2.4,0-3.5,0v-.8c.9,0,1.5-.2,1.9-.3.4-.2.7-.5.8-1,.2-.5.2-1.2.2-2.2v-19.8c0-1,0-1.7-.2-2.2-.1-.5-.4-.8-.9-1-.4-.2-1.1-.3-1.9-.3v-.8c1.1,0,2.3,0,3.5,0,1.2,0,2.4,0,3.6,0h10.1c1.6,0,3,0,4.2-.1ZM306.2,397.6v.8h-7v-.8h7ZM307.3,392.4c-.1,1.5-.2,2.7-.2,3.5,0,.8,0,1.5,0,2.2s0,1.4,0,2.2c0,.8,0,2,.2,3.5h-.9c-.1-.9-.4-1.8-.8-2.6-.3-.8-.9-1.4-1.5-1.9-.7-.5-1.5-.8-2.6-.8v-.8c.8,0,1.5-.2,2-.5.6-.3,1-.8,1.4-1.3.4-.6.7-1.1.9-1.8.2-.6.4-1.2.5-1.7h.9ZM342.7,384v.8c-.9.1-1.5.3-1.9.7-.4.3-.7.8-.9,1.6-.1.7-.2,1.7-.2,3v22.3c-.3,0-.7,0-1,0s-.7,0-1,0l-17.4-22v15.4c0,1.5,0,2.6.2,3.4.2.8.5,1.3,1,1.7.6.3,1.4.5,2.6.7v.8c-.5,0-1.2,0-2,0-.8,0-1.6,0-2.3,0s-1.2,0-1.9,0c-.6,0-1.2,0-1.6,0v-.8c.9-.1,1.5-.4,1.9-.7.4-.3.7-.8.8-1.6.2-.7.2-1.8.2-3v-18c0-1,0-1.7-.2-2.2-.1-.5-.4-.8-.9-1-.4-.2-1.1-.3-1.9-.3v-.8c.4,0,1,0,1.6,0,.6,0,1.3,0,1.9,0s1.3,0,1.8,0c.6,0,1.1,0,1.6,0l15.5,19.1v-12.5c0-1.5,0-2.6-.2-3.4-.2-.8-.5-1.4-1.1-1.7-.5-.3-1.4-.6-2.6-.7v-.8c.5,0,1.2,0,2,0,.8,0,1.6,0,2.3,0s1.3,0,1.9,0c.6,0,1.2,0,1.6,0ZM355.2,383.4c1.6,0,2.8.2,3.6.5.9.3,1.6.7,2.2,1,.3.2.6.3.8.4.2,0,.4.1.6.1.3,0,.5-.1.6-.4.1-.3.2-.7.3-1.3h.9c0,.5,0,1.1-.1,1.8,0,.7,0,1.6,0,2.8v4.5h-.9c-.1-1.4-.4-2.7-1-4-.5-1.3-1.3-2.4-2.3-3.2-1-.9-2.1-1.3-3.6-1.3s-2.3.4-3.2,1.1c-.8.7-1.2,1.7-1.2,3s.3,2,.8,2.8c.5.7,1.3,1.5,2.3,2.2,1,.7,2.3,1.6,3.8,2.6,1.3.8,2.4,1.7,3.4,2.5,1,.8,1.8,1.8,2.4,2.8.6,1,.9,2.3.9,3.7s-.5,3.2-1.4,4.4c-.9,1.1-2.1,2-3.6,2.6-1.5.6-3.1.8-4.9.8s-3-.2-4-.5c-1-.3-1.8-.7-2.5-1-.6-.4-1-.6-1.4-.6s-.5.1-.6.4c-.1.3-.2.7-.3,1.3h-.9c0-.6,0-1.4,0-2.2,0-.9,0-2,0-3.3,0-1.4,0-3.1,0-5.2h.9c.1,1.8.4,3.4.9,5,.5,1.5,1.3,2.7,2.3,3.7,1,.9,2.4,1.4,4.1,1.4s1.8-.2,2.5-.5c.7-.3,1.3-.9,1.8-1.5.5-.7.7-1.5.7-2.5s-.3-2.1-.8-2.9c-.5-.8-1.2-1.6-2.1-2.3-.9-.7-1.9-1.5-3.1-2.2-1.3-.8-2.4-1.7-3.5-2.5-1.1-.8-2-1.8-2.6-2.8-.6-1.1-1-2.3-1-3.8s.4-3.1,1.2-4.1c.9-1.1,2-1.9,3.3-2.4,1.4-.5,2.9-.8,4.4-.8Z"/>
  <path class="cls-2" d="M485.8,477.6c-41,68.2-115.5,113.9-200.6,113.9s-70.4-8.2-101-22.9c-59.1-28.4-104.5-81-123.4-144.9l57.9-17.3c14,47.5,47.7,86.5,91.5,107.5,22.7,10.9,48.1,17,74.9,17,63.2,0,118.5-33.9,148.8-84.5l51.8,31.3Z"/>
  <path class="cls-2" d="M111.3,357.7c0,17.3,2.5,34,7.2,49.7l-57.7,17.3c-6.3-21.3-9.6-43.8-9.6-67.1,0-44.3,12.2-85.7,33.3-121.1l51.6,31.3c-15.7,26.2-24.7,57-24.7,89.8Z"/>
  <path class="cls-1" d="M386.1,145.9l-26.1,54.8c-22.7-10.9-48.1-17-74.9-17-63.2,0-118.5,33.9-148.9,84.6l-51.8-31.3c41-68.3,115.5-114.1,200.8-114.1s70.5,8.2,101.1,23Z"/>
  <path class="cls-2" d="M519,357.2c0,44.1-12.2,85.4-33.3,120.7l-51.6-31.2c15.7-26.1,24.7-56.8,24.7-89.5s-2.5-33.9-7.2-49.6c-14-47.3-47.5-86.2-91.2-107.2l26-54.6c58.9,28.3,104.1,80.7,123,144.5,6.3,21.2,9.7,43.6,9.7,66.9Z"/>
  <path class="cls-5" d="M295.7,110.5l59.2-84h72"/>
  <path class="cls-4" d="M440,543.8h19.1c8.3-1.6,16.8,1.3,22.3,7.7l38.9,45.1"/>
  <g>
    <path class="cls-1" d="M466.3,37.5v-.6c2.6-.5,2.8-.8,2.8-4.5v-14.9c-2.6,6.4-7.8,18.5-8.4,20h-.5c-.6-1.7-5.3-13.1-7.9-19.4-.5,11-.6,15.3-.5,16.4,0,1.6.9,2,3.6,2.4v.6h-8.5v-.6c2.5-.4,3-1,3.2-2.3.2-1.2.3-3.1,1.2-17.4,0-.9-.3-2.2-3.4-2.5v-.6h7.1l7.3,16.6,7.5-16.6h6.8v.6c-3,.5-3.2.8-3.2,4.2v13.5c.2,3.6.3,4,3.2,4.5v.6h-10.3Z"/>
    <path class="cls-1" d="M488.8,37.9c-.9,0-1.5-.3-2-.7-.4-.4-.7-1-.8-1.6-1.2.9-3,2.3-3.6,2.3-2.6,0-4.3-2.2-4.3-4.3s.8-2.6,2.4-3.1c1.9-.7,4.6-1.4,5.4-2v-2.1c0-2.2-1.4-3.3-2.4-3.3s-1.1.3-1.5.8c-.3.4-.5,1-.8,2.4-.2.7-.4,1-.9,1-1.2,0-1.9-.9-1.9-1.7s.3-.8,1-1.3c1.8-1.2,4.1-2.2,5.4-2.4,1.5,0,2.4.5,3.2,1,1.5,1.2,1.8,2.6,1.8,4.7v6.2c0,1.5.5,2,1.2,2s.6,0,.8-.1l.2.6-3.3,1.8ZM485.9,29.3c-.5.3-1.1.5-1.9.9-1.3.7-1.9,1.4-1.9,2.6,0,2,1.1,2.8,2.1,2.8s1,0,1.7-.6c0-2.1,0-3.6,0-5.7Z"/>
    <path class="cls-1" d="M501.6,37.5h-8.4v-.6c1.8-.3,1.9-.5,1.9-3.1v-7.7c0-1.9-.3-2.1-1.6-2.5v-.5c1.9-.2,4-.6,5.8-1.4,0,.6-.1,2.5-.1,3.8.9-1.7,2.4-3.7,4.1-3.7s2.1.7,2.1,1.8-.9,2.4-1.8,2.7c-.5.2-.6.1-.9-.1-.6-.6-1-1.1-1.7-1.1s-1.2.3-1.8,1.5v7.1c0,2.6.3,2.7,2.3,3.1v.6Z"/>
    <path class="cls-1" d="M523.7,37.5c-2.7,0-4.8,0-6,.1-1.1-1.8-3.9-6.3-4.5-7.1-.2-.3-.4-.5-.5-.6-.2-.1-.4-.1-.6-.1v4c0,2.6.3,2.7,2.1,3.1v.6h-8.1v-.6c1.8-.3,2-.5,2-3.1v-17.4c0-2.3-.3-2.5-1.9-2.9v-.5c2.1-.1,4.6-.6,6.1-1.2,0,.5-.1,2.1-.1,4.7v12.7c.9-.2,1.4-.6,2.1-1.3.8-.9,2.1-2.6,2.8-3.6.6-1,.3-1.2-1.7-1.5v-.5l7.2-.3v.5c-2.5.4-3.1.9-4.2,2.1-1.2,1.2-1.7,2-2.6,3.1,1.2,1.7,3.4,5.1,5.1,7.3,1.2,1.6,1.5,1.8,2.9,2v.6Z"/>
    <path class="cls-1" d="M537.1,33.9c-2.2,3.1-4.9,4-6.2,4-4.5,0-7.2-3.6-7.2-7.5s1-4.8,2.6-6.3c1.6-1.7,3.4-2.3,5.1-2.3,3.4,0,5.6,2.5,5.7,5.3,0,.6,0,.8-.2.8-1.2.2-5.7.5-9.1.7,0,4.4,2.6,6.5,5,6.5s2.6-.3,4-1.7l.3.4ZM530.4,22.8c-1.3,0-2.4,1.4-2.6,4.9,1.4,0,2.8,0,4.3-.1.5,0,.9,0,.9-.5,0-2.2-1-4.2-2.6-4.2Z"/>
    <path class="cls-1" d="M546.2,37.5c-.5.3-1.1.4-1.4.4-2.4,0-3.9-1.2-3.9-4.2v-10.3h-2.1v-.2c0,0,.5-.9.5-.9h1.6v-3c1.2-.6,2.7-1.8,3.8-2.7h.4c0,1.1-.1,3.6-.1,5.6h3.2c.1.2,0,.9-.1,1.1h-3.1v9.5c0,2.7,1,3.2,1.9,3.2s1-.1,1.4-.3l.2.5-2.2,1.2Z"/>
    <path class="cls-1" d="M549.6,37.5v-.6c1.9-.3,2-.5,2-3.3v-7.3c0-2.1-.1-2.2-1.6-2.7v-.5c2.1-.3,4.1-.7,5.8-1.3,0,.8,0,2.8,0,4.2v7.6c0,2.7.2,2.9,2.1,3.3v.6h-8.2ZM553.4,18.8c-1.2,0-2.2-1-2.2-2.3s1-2.3,2.2-2.3,2.3.9,2.3,2.3-.9,2.3-2.3,2.3Z"/>
    <path class="cls-1" d="M568.6,37.5v-.6c1.7-.3,1.8-.6,1.8-3.6v-5.8c0-2.6-1.2-3.3-2.4-3.3s-1.8.3-2.7,1v8.8c0,2.5.2,2.6,1.9,3v.6h-8.1v-.6c1.9-.4,2.1-.6,2.1-3.3v-7.5c0-1.8-.3-2-1.7-2.5v-.5c2.1-.3,4.3-.8,5.8-1.4,0,.9,0,1.8,0,2.6.9-.6,1.4-1,2.1-1.5,1.1-.8,1.8-1.1,2.7-1.1,3,0,4.4,2.2,4.4,5.5v6.6c0,2.5.1,2.7,1.7,3v.6h-7.6Z"/>
    <path class="cls-1" d="M582.5,32.9c-.5.5-.6,1.1-.6,1.4,0,.6.6,1.5,2.2,1.5h3.9c2.7,0,5.2,1.3,5.2,4.3s-4.4,7.3-9.2,7.3-6.3-2.4-6.3-4.4.3-1.3,1-1.8c.6-.5,1.5-1.1,3-1.9-1.5-.5-2.4-1.3-2.9-2.1-.3-.5-.5-1.4-.5-1.9,1-.6,2.8-1.7,3.6-2.7l.6.3ZM584.6,33.2c-3.5,0-6.2-2.2-6.2-5.4s3.5-5.9,6.5-5.9,2.3.3,3.6.9c.9.1,3.5-.2,4.9-.7h.1c-.2.8-1,2-1.3,2.3-.5,0-1.7,0-2.3,0,.7.8,1.1,1.9,1.1,3.2,0,3.7-3.2,5.7-6.4,5.7ZM584.8,39.2c-1.4,0-2.1,0-2.4.3-1,.6-1.6,1.5-1.6,2.6,0,1.9,1.8,3.9,5.1,3.9s4.3-1.6,4.3-3.5-.9-2.4-2-2.8c-.8-.3-1.7-.4-3.4-.4ZM584.5,22.6c-1.3,0-2.1,1.7-2.1,4.4s.8,5.4,2.5,5.4,2.1-1.5,2.1-4.6-.8-5.1-2.5-5.1Z"/>
    <path class="cls-1" d="M610.6,27.4l-2.1.9c-.8.4-1.6.6-2.2.6-3.9,0-6.1-3.1-6.1-6.7s2.6-7.6,7.8-7.6,7.6,4,7.6,9.1-4.4,11.1-9.5,13.2c-1.3.5-3.8,1-4.5,1.1v-.6c5-1.3,8-4.9,9-10ZM607.2,15.4c-2.1,0-2.6,2.6-2.6,5,0,3.7,1.7,6.7,4.2,6.7s1.4-.2,1.8-.4c.1-1.1.3-2.3.3-3.3,0-3.8-1-8-3.7-8Z"/>
    <path class="cls-1" d="M623.6,14.7c3.6,0,5.1,3.5,5.1,6.1s-1.7,6.3-5.3,6.3-5.2-3.1-5.2-6.2,1.8-6.2,5.4-6.2ZM623.4,15.4c-1.6,0-1.9,3.7-1.9,5.4s.3,5.5,1.9,5.5,1.9-3.7,1.9-5.4-.3-5.5-1.9-5.5ZM622.4,38.1l-.8-.6,14.9-22.9.8.6-14.9,22.9ZM635.7,25.6c3.7,0,5.2,3.5,5.2,6.2s-1.5,6.1-5.3,6.1-5.3-3.1-5.3-6.1,1.7-6.2,5.3-6.2ZM635.5,26.4c-1.6,0-1.8,3.1-1.8,5.2s.4,5.8,2,5.8,1.9-3.5,1.9-5.1-.4-5.8-2.1-5.8Z"/>
  </g>
  <g>
    <path class="cls-2" d="M536.5,593.1c2.8,0,4.8.5,6.1,1.4,1.7,1.2,2.6,2.8,2.6,5,0,5.1-4.5,7.3-8.1,7.3s-.4,0-.6,0l-2.2-.5v5.7c0,3.2.4,3.5,3.2,3.9v.6h-10.5v-.6c2.7-.4,2.9-.6,2.9-3.9v-14.5c0-3.2-.3-3.5-2.9-3.9v-.6h9.5ZM534.4,605.5c.4.1,1.1.2,1.9.2s4.2-.5,4.2-6.2-1.8-5.7-4.4-5.7-1.2.1-1.4.3c-.3.2-.4.6-.4,1.2v10.3Z"/>
    <path class="cls-2" d="M564,615.6c-2.7.3-4.3.8-6.3,1.4,0-.8,0-1.7,0-2.6-1.5,1.4-3,2.5-4.7,2.5-2.8,0-4.4-1.9-4.4-4.8v-7.6c0-1.7-.2-2-1.1-2.3l-.6-.2v-.5c1.7,0,4.3-.3,6-.6,0,1.3-.1,2.9-.1,5.3v5.1c0,2.4,1.2,3.2,2.5,3.2s1.7-.3,2.5-.9v-9c0-1.8-.3-2.1-1.3-2.3l-.9-.2v-.5c2.1,0,4.8-.3,6.2-.6v11.4c0,1.9.1,2.2,1.3,2.4l.8.2v.5Z"/>
    <path class="cls-2" d="M572.5,601.4c.9-.4,1.8-.6,2.1-.6,4.4,0,7,3.3,7,7.3s-4.1,8.8-8.9,8.8-3.6-.3-5.9-1.2c0-.9,0-1.8,0-2.6v-17.4c0-2.4-.1-2.6-2-3.1v-.5c1.7-.1,4.2-.5,6.2-1.2,0,.4,0,3.7,0,5v6.2l1.5-.6ZM571.1,613.2c0,.4,0,.9.2,1.2.3.6,1.3,1.5,2.7,1.5,1.9,0,3.2-2.5,3.2-6.9s-2.3-6.6-4.6-6.6-.9,0-1.5.2v10.5Z"/>
    <path class="cls-2" d="M583.7,616.5v-.6c1.9-.3,2-.5,2-3.3v-17.2c0-2.2-.1-2.4-1.9-2.9v-.5c1.8-.1,4.1-.6,6.2-1.2,0,.6-.1,1.9-.1,4.9v16.8c0,2.8,0,2.9,1.9,3.3v.6h-8Z"/>
    <path class="cls-2" d="M593.2,616.5v-.6c1.9-.3,2-.5,2-3.3v-7.3c0-2.1-.1-2.2-1.6-2.7v-.5c2.1-.3,4.1-.7,5.8-1.3,0,.8,0,2.8,0,4.2v7.6c0,2.7.2,2.9,2.1,3.3v.6h-8.2ZM597,597.7c-1.2,0-2.2-1-2.2-2.3s1-2.3,2.2-2.3,2.3.9,2.3,2.3-.9,2.3-2.3,2.3Z"/>
    <path class="cls-2" d="M616.3,613c-1.5,2.1-3.7,3.9-5.9,3.9-4.7,0-7.2-3.7-7.2-7.4s1.3-4.9,3.5-6.5c2.2-1.7,4.4-2.2,5.8-2.2s2.2.3,2.8.8c.4.4.7.6.7,1,0,.8-.9,1.8-1.5,1.8s-.3,0-.7-.4c-1.4-1.3-2.8-1.8-3.9-1.8s-2.7.9-2.7,5,2.9,6.7,5,6.7,2.6-.3,3.9-1.5l.3.4Z"/>
    <path class="cls-2" d="M634.2,606.4l-2.1.9c-.8.4-1.6.6-2.2.6-3.9,0-6.1-3.1-6.1-6.7s2.6-7.6,7.8-7.6,7.6,4,7.6,9.1-4.4,11.1-9.5,13.2c-1.3.5-3.8,1-4.5,1.1v-.6c5-1.3,8-4.9,9-10ZM630.9,594.4c-2.1,0-2.6,2.6-2.6,5,0,3.7,1.7,6.7,4.2,6.7s1.4-.2,1.8-.4c.1-1.1.3-2.3.3-3.3,0-3.8-1-8-3.7-8Z"/>
    <path class="cls-2" d="M643.5,616.5v-.6c3.6-.5,3.7-.7,3.7-3.6v-13.6c0-1.9-.1-2.3-2-2.6h-1.1v-.6c2.5-.4,5.4-1,7.5-1.9v18.7c0,2.9.1,3.1,3.7,3.6v.6h-11.9Z"/>
    <path class="cls-2" d="M664.8,593.6c3.6,0,5.1,3.5,5.1,6.1s-1.7,6.3-5.3,6.3-5.2-3.1-5.2-6.2,1.8-6.2,5.4-6.2ZM664.6,594.3c-1.6,0-1.9,3.7-1.9,5.4s.3,5.5,1.9,5.5,1.9-3.7,1.9-5.4-.3-5.5-1.9-5.5ZM663.7,617.1l-.8-.6,14.9-22.9.8.6-14.9,22.9ZM676.9,604.6c3.7,0,5.2,3.5,5.2,6.2s-1.5,6.1-5.3,6.1-5.3-3.1-5.3-6.1,1.7-6.2,5.3-6.2ZM676.7,605.3c-1.6,0-1.8,3.1-1.8,5.2s.4,5.8,2,5.8,1.9-3.5,1.9-5.1-.4-5.8-2.1-5.8Z"/>
  </g>
</svg>
