<svg width="682" height="642" viewBox="0 0 682 642" fill="none" xmlns="http://www.w3.org/2000/svg">
<circle cx="285.474" cy="357.231" r="281.5" stroke="#C5AC8E" stroke-width="6" stroke-linecap="round" stroke-dasharray="20 20"/>
<circle cx="285.474" cy="357.231" r="154.5" stroke="#C5AC8E" stroke-width="4.40115" stroke-linecap="round"/>
<path d="M190.096 319.095V353.575C190.096 355.922 190.523 357.522 191.376 358.375C192.283 359.229 193.776 359.655 195.856 359.655V361.335C194.79 361.282 193.216 361.229 191.136 361.175C189.11 361.069 187.003 361.015 184.816 361.015C182.096 361.015 179.456 361.069 176.896 361.175C174.39 361.229 172.443 361.282 171.056 361.335V359.655C173.456 359.655 175.296 359.229 176.576 358.375C177.91 357.469 178.576 355.709 178.576 353.095V333.575C178.576 331.015 178.363 329.122 177.936 327.895C177.51 326.669 176.71 325.869 175.536 325.495C174.363 325.122 172.763 324.935 170.736 324.935V323.175C175.323 323.069 179.11 322.722 182.096 322.135C185.136 321.549 187.803 320.535 190.096 319.095ZM224.401 318.855C228.668 318.855 232.428 319.735 235.681 321.495C238.935 323.202 241.495 325.655 243.361 328.855C245.228 332.002 246.161 335.709 246.161 339.975C246.161 344.242 245.201 348.082 243.281 351.495C241.415 354.855 238.775 357.522 235.361 359.495C232.001 361.469 228.055 362.455 223.521 362.455C219.361 362.455 215.628 361.575 212.321 359.815C209.068 358.055 206.481 355.602 204.561 352.455C202.695 349.255 201.761 345.522 201.761 341.255C201.761 337.042 202.695 333.255 204.561 329.895C206.428 326.482 209.068 323.789 212.481 321.815C215.895 319.842 219.868 318.855 224.401 318.855ZM223.681 320.295C220.801 320.295 218.428 322.135 216.561 325.815C214.748 329.442 213.841 334.509 213.841 341.015C213.841 345.815 214.321 349.682 215.281 352.615C216.241 355.549 217.495 357.682 219.041 359.015C220.641 360.349 222.375 361.015 224.241 361.015C227.121 361.015 229.468 359.175 231.281 355.495C233.148 351.815 234.081 346.722 234.081 340.215C234.081 335.415 233.601 331.549 232.641 328.615C231.681 325.682 230.401 323.575 228.801 322.295C227.255 320.962 225.548 320.295 223.681 320.295ZM275.964 318.855C280.231 318.855 283.991 319.735 287.244 321.495C290.497 323.202 293.057 325.655 294.924 328.855C296.791 332.002 297.724 335.709 297.724 339.975C297.724 344.242 296.764 348.082 294.844 351.495C292.977 354.855 290.337 357.522 286.924 359.495C283.564 361.469 279.617 362.455 275.084 362.455C270.924 362.455 267.191 361.575 263.884 359.815C260.631 358.055 258.044 355.602 256.124 352.455C254.257 349.255 253.324 345.522 253.324 341.255C253.324 337.042 254.257 333.255 256.124 329.895C257.991 326.482 260.631 323.789 264.044 321.815C267.457 319.842 271.431 318.855 275.964 318.855ZM275.244 320.295C272.364 320.295 269.991 322.135 268.124 325.815C266.311 329.442 265.404 334.509 265.404 341.015C265.404 345.815 265.884 349.682 266.844 352.615C267.804 355.549 269.057 357.682 270.604 359.015C272.204 360.349 273.937 361.015 275.804 361.015C278.684 361.015 281.031 359.175 282.844 355.495C284.711 351.815 285.644 346.722 285.644 340.215C285.644 335.415 285.164 331.549 284.204 328.615C283.244 325.682 281.964 323.575 280.364 322.295C278.817 320.962 277.111 320.295 275.244 320.295ZM327.526 318.855C331.793 318.855 335.553 319.735 338.806 321.495C342.06 323.202 344.62 325.655 346.486 328.855C348.353 332.002 349.286 335.709 349.286 339.975C349.286 344.242 348.326 348.082 346.406 351.495C344.54 354.855 341.9 357.522 338.486 359.495C335.126 361.469 331.18 362.455 326.646 362.455C322.486 362.455 318.753 361.575 315.446 359.815C312.193 358.055 309.606 355.602 307.686 352.455C305.82 349.255 304.886 345.522 304.886 341.255C304.886 337.042 305.82 333.255 307.686 329.895C309.553 326.482 312.193 323.789 315.606 321.815C319.02 319.842 322.993 318.855 327.526 318.855ZM326.806 320.295C323.926 320.295 321.553 322.135 319.686 325.815C317.873 329.442 316.966 334.509 316.966 341.015C316.966 345.815 317.446 349.682 318.406 352.615C319.366 355.549 320.62 357.682 322.166 359.015C323.766 360.349 325.5 361.015 327.366 361.015C330.246 361.015 332.593 359.175 334.406 355.495C336.273 351.815 337.206 346.722 337.206 340.215C337.206 335.415 336.726 331.549 335.766 328.615C334.806 325.682 333.526 323.575 331.926 322.295C330.38 320.962 328.673 320.295 326.806 320.295ZM379.089 318.855C383.356 318.855 387.116 319.735 390.369 321.495C393.622 323.202 396.182 325.655 398.049 328.855C399.916 332.002 400.849 335.709 400.849 339.975C400.849 344.242 399.889 348.082 397.969 351.495C396.102 354.855 393.462 357.522 390.049 359.495C386.689 361.469 382.742 362.455 378.209 362.455C374.049 362.455 370.316 361.575 367.009 359.815C363.756 358.055 361.169 355.602 359.249 352.455C357.382 349.255 356.449 345.522 356.449 341.255C356.449 337.042 357.382 333.255 359.249 329.895C361.116 326.482 363.756 323.789 367.169 321.815C370.582 319.842 374.556 318.855 379.089 318.855ZM378.369 320.295C375.489 320.295 373.116 322.135 371.249 325.815C369.436 329.442 368.529 334.509 368.529 341.015C368.529 345.815 369.009 349.682 369.969 352.615C370.929 355.549 372.182 357.682 373.729 359.015C375.329 360.349 377.062 361.015 378.929 361.015C381.809 361.015 384.156 359.175 385.969 355.495C387.836 351.815 388.769 346.722 388.769 340.215C388.769 335.415 388.289 331.549 387.329 328.615C386.369 325.682 385.089 323.575 383.489 322.295C381.942 320.962 380.236 320.295 378.369 320.295Z" fill="#C5AC8E"/>
<path d="M228.654 383.968C228.547 385.328 228.467 386.634 228.414 387.888C228.387 389.141 228.374 390.101 228.374 390.768C228.374 391.354 228.387 391.914 228.414 392.448C228.441 392.981 228.467 393.434 228.494 393.808H227.574C227.147 391.568 226.601 389.794 225.934 388.488C225.294 387.181 224.521 386.261 223.614 385.728C222.707 385.168 221.641 384.888 220.414 384.888H219.494V407.728C219.494 408.794 219.601 409.594 219.814 410.128C220.054 410.661 220.481 411.021 221.094 411.208C221.707 411.368 222.601 411.461 223.774 411.488V412.288C222.947 412.261 221.841 412.234 220.454 412.208C219.094 412.181 217.667 412.168 216.174 412.168C214.707 412.168 213.321 412.181 212.014 412.208C210.707 412.234 209.654 412.261 208.854 412.288V411.488C210.054 411.461 210.961 411.368 211.574 411.208C212.187 411.021 212.601 410.661 212.814 410.128C213.027 409.594 213.134 408.794 213.134 407.728V384.888H212.254C211.027 384.888 209.961 385.168 209.054 385.728C208.147 386.261 207.374 387.181 206.734 388.488C206.094 389.768 205.534 391.541 205.054 393.808H204.134C204.187 393.434 204.214 392.981 204.214 392.448C204.241 391.914 204.254 391.354 204.254 390.768C204.254 390.101 204.227 389.141 204.174 387.888C204.147 386.634 204.081 385.328 203.974 383.968C205.201 383.994 206.534 384.021 207.974 384.048C209.441 384.074 210.907 384.088 212.374 384.088C213.841 384.088 215.161 384.088 216.334 384.088C217.534 384.088 218.854 384.088 220.294 384.088C221.761 384.088 223.227 384.074 224.694 384.048C226.161 384.021 227.481 383.994 228.654 383.968ZM245.573 383.408C248.399 383.408 250.866 383.981 252.973 385.128C255.106 386.274 256.759 387.928 257.933 390.088C259.106 392.221 259.693 394.821 259.693 397.888C259.693 400.874 259.093 403.488 257.893 405.728C256.693 407.968 255.013 409.714 252.853 410.968C250.719 412.221 248.279 412.848 245.533 412.848C242.706 412.848 240.226 412.274 238.093 411.128C235.986 409.981 234.346 408.328 233.173 406.168C231.999 404.008 231.413 401.408 231.413 398.368C231.413 395.381 232.013 392.768 233.213 390.528C234.439 388.288 236.106 386.541 238.213 385.288C240.346 384.034 242.799 383.408 245.573 383.408ZM245.413 384.128C243.919 384.128 242.613 384.728 241.493 385.928C240.399 387.128 239.546 388.781 238.933 390.888C238.346 392.994 238.053 395.434 238.053 398.208C238.053 401.034 238.386 403.501 239.053 405.608C239.746 407.688 240.666 409.301 241.813 410.448C242.986 411.568 244.279 412.128 245.693 412.128C247.186 412.128 248.479 411.528 249.573 410.328C250.693 409.128 251.546 407.474 252.133 405.368C252.746 403.234 253.053 400.794 253.053 398.048C253.053 395.194 252.706 392.728 252.013 390.648C251.346 388.568 250.426 386.968 249.253 385.848C248.106 384.701 246.826 384.128 245.413 384.128ZM288.659 383.968V384.728C287.806 384.914 286.886 385.288 285.899 385.848C284.939 386.408 283.926 387.314 282.859 388.568L275.339 397.528L277.659 394.208L287.179 409.048C287.552 409.661 287.952 410.154 288.379 410.528C288.806 410.901 289.366 411.221 290.059 411.488V412.288C289.126 412.234 288.086 412.208 286.939 412.208C285.792 412.181 284.752 412.168 283.819 412.168C283.259 412.168 282.579 412.181 281.779 412.208C280.979 412.208 279.966 412.234 278.739 412.288V411.488C279.832 411.434 280.486 411.288 280.699 411.048C280.939 410.781 280.846 410.328 280.419 409.688L274.619 400.288C274.246 399.674 273.912 399.221 273.619 398.928C273.326 398.608 273.032 398.394 272.739 398.288C272.446 398.154 272.059 398.074 271.579 398.048V397.208C272.752 397.181 273.792 396.861 274.699 396.248C275.632 395.634 276.646 394.701 277.739 393.448L280.099 390.608C281.112 389.408 281.699 388.381 281.859 387.528C282.046 386.648 281.872 385.968 281.339 385.488C280.832 385.008 280.046 384.754 278.979 384.728V383.968C279.646 383.994 280.272 384.021 280.859 384.048C281.472 384.048 282.099 384.061 282.739 384.088C283.406 384.088 284.126 384.088 284.899 384.088C285.672 384.088 286.366 384.074 286.979 384.048C287.619 384.021 288.179 383.994 288.659 383.968ZM274.819 383.968V384.768C273.966 384.794 273.312 384.901 272.859 385.088C272.432 385.248 272.152 385.568 272.019 386.048C271.886 386.501 271.819 387.221 271.819 388.208V408.048C271.819 409.008 271.886 409.728 272.019 410.208C272.179 410.688 272.472 411.008 272.899 411.168C273.326 411.328 273.966 411.434 274.819 411.488V412.288C274.099 412.234 273.192 412.208 272.099 412.208C271.006 412.181 269.899 412.168 268.779 412.168C267.499 412.168 266.286 412.181 265.139 412.208C264.019 412.208 263.126 412.234 262.459 412.288V411.488C263.312 411.434 263.952 411.328 264.379 411.168C264.806 411.008 265.086 410.688 265.219 410.208C265.379 409.728 265.459 409.008 265.459 408.048V388.208C265.459 387.221 265.379 386.501 265.219 386.048C265.086 385.568 264.792 385.248 264.339 385.088C263.912 384.901 263.286 384.794 262.459 384.768V383.968C263.126 383.994 264.019 384.021 265.139 384.048C266.286 384.074 267.499 384.088 268.779 384.088C269.899 384.088 271.006 384.074 272.099 384.048C273.192 384.021 274.099 383.994 274.819 383.968ZM312.414 383.968C312.307 385.141 312.227 386.274 312.174 387.368C312.147 388.461 312.134 389.301 312.134 389.888C312.134 390.421 312.147 390.928 312.174 391.408C312.2 391.888 312.227 392.288 312.254 392.608H311.334C311.067 390.661 310.654 389.128 310.094 388.008C309.534 386.861 308.8 386.061 307.894 385.608C307.014 385.128 305.974 384.888 304.774 384.888H303.134C302.36 384.888 301.774 384.954 301.374 385.088C300.974 385.221 300.707 385.488 300.574 385.888C300.44 386.288 300.374 386.901 300.374 387.728V408.528C300.374 409.354 300.44 409.968 300.574 410.368C300.707 410.768 300.974 411.034 301.374 411.168C301.774 411.301 302.36 411.368 303.134 411.368H305.094C306.294 411.368 307.347 411.114 308.254 410.608C309.187 410.074 309.974 409.181 310.614 407.928C311.28 406.674 311.787 404.981 312.134 402.848H313.054C312.974 403.701 312.934 404.821 312.934 406.208C312.934 406.821 312.947 407.688 312.974 408.808C313 409.928 313.08 411.088 313.214 412.288C311.854 412.234 310.32 412.208 308.614 412.208C306.907 412.181 305.387 412.168 304.054 412.168C303.387 412.168 302.534 412.168 301.494 412.168C300.454 412.168 299.334 412.181 298.134 412.208C296.934 412.208 295.72 412.221 294.494 412.248C293.267 412.248 292.107 412.261 291.014 412.288V411.488C291.867 411.434 292.507 411.328 292.934 411.168C293.36 411.008 293.64 410.688 293.774 410.208C293.934 409.728 294.014 409.008 294.014 408.048V388.208C294.014 387.221 293.934 386.501 293.774 386.048C293.64 385.568 293.347 385.248 292.894 385.088C292.467 384.901 291.84 384.794 291.014 384.768V383.968C292.107 383.994 293.267 384.021 294.494 384.048C295.72 384.048 296.934 384.061 298.134 384.088C299.334 384.088 300.454 384.088 301.494 384.088C302.534 384.088 303.387 384.088 304.054 384.088C305.28 384.088 306.667 384.088 308.214 384.088C309.787 384.061 311.187 384.021 312.414 383.968ZM306.174 397.648C306.174 397.648 306.174 397.781 306.174 398.048C306.174 398.314 306.174 398.448 306.174 398.448H299.174C299.174 398.448 299.174 398.314 299.174 398.048C299.174 397.781 299.174 397.648 299.174 397.648H306.174ZM307.334 392.368C307.227 393.888 307.174 395.048 307.174 395.848C307.2 396.648 307.214 397.381 307.214 398.048C307.214 398.714 307.227 399.448 307.254 400.248C307.28 401.048 307.347 402.208 307.454 403.728H306.534C306.4 402.794 306.147 401.928 305.774 401.128C305.427 400.328 304.92 399.688 304.254 399.208C303.587 398.701 302.72 398.448 301.654 398.448V397.648C302.454 397.648 303.134 397.488 303.694 397.168C304.254 396.821 304.707 396.381 305.054 395.848C305.427 395.288 305.72 394.701 305.934 394.088C306.147 393.474 306.307 392.901 306.414 392.368H307.334ZM342.725 383.968V384.768C341.872 384.874 341.232 385.101 340.805 385.448C340.378 385.768 340.085 386.288 339.925 387.008C339.792 387.728 339.725 388.741 339.725 390.048V412.368C339.405 412.341 339.072 412.328 338.725 412.328C338.405 412.328 338.058 412.341 337.685 412.368L320.325 390.368V405.728C320.325 407.194 320.405 408.328 320.565 409.128C320.725 409.901 321.072 410.461 321.605 410.808C322.165 411.128 323.032 411.354 324.205 411.488V412.288C323.698 412.234 323.032 412.208 322.205 412.208C321.378 412.181 320.605 412.168 319.885 412.168C319.272 412.168 318.645 412.181 318.005 412.208C317.365 412.208 316.832 412.234 316.405 412.288V411.488C317.258 411.354 317.898 411.128 318.325 410.808C318.752 410.488 319.032 409.968 319.165 409.248C319.325 408.501 319.405 407.488 319.405 406.208V388.208C319.405 387.221 319.325 386.501 319.165 386.048C319.032 385.568 318.738 385.248 318.285 385.088C317.858 384.901 317.232 384.794 316.405 384.768V383.968C316.832 383.994 317.365 384.021 318.005 384.048C318.645 384.074 319.272 384.088 319.885 384.088C320.525 384.088 321.138 384.074 321.725 384.048C322.312 384.021 322.845 383.994 323.325 383.968L338.805 403.048V390.528C338.805 389.061 338.725 387.941 338.565 387.168C338.405 386.368 338.045 385.794 337.485 385.448C336.952 385.101 336.098 384.874 334.925 384.768V383.968C335.432 383.994 336.098 384.021 336.925 384.048C337.752 384.074 338.525 384.088 339.245 384.088C339.885 384.088 340.512 384.074 341.125 384.048C341.765 384.021 342.298 383.994 342.725 383.968ZM355.232 383.448C356.806 383.448 358.019 383.621 358.872 383.968C359.726 384.288 360.459 384.634 361.072 385.008C361.392 385.194 361.646 385.341 361.832 385.448C362.046 385.528 362.246 385.568 362.432 385.568C362.699 385.568 362.886 385.421 362.992 385.128C363.126 384.834 363.232 384.394 363.312 383.808H364.232C364.206 384.314 364.166 384.928 364.112 385.648C364.086 386.341 364.059 387.261 364.032 388.408C364.032 389.554 364.032 391.061 364.032 392.928H363.112C363.006 391.541 362.686 390.194 362.152 388.888C361.619 387.581 360.859 386.514 359.872 385.688C358.912 384.834 357.726 384.408 356.312 384.408C355.032 384.408 353.979 384.768 353.152 385.488C352.326 386.208 351.912 387.208 351.912 388.488C351.912 389.554 352.179 390.474 352.712 391.248C353.246 391.994 354.019 392.728 355.032 393.448C356.072 394.168 357.326 395.034 358.792 396.048C360.072 396.874 361.219 397.701 362.232 398.528C363.246 399.354 364.059 400.288 364.672 401.328C365.286 402.368 365.592 403.608 365.592 405.048C365.592 406.808 365.126 408.261 364.192 409.408C363.286 410.554 362.086 411.421 360.592 412.008C359.099 412.568 357.459 412.848 355.672 412.848C354.019 412.848 352.699 412.688 351.712 412.368C350.726 412.048 349.899 411.714 349.232 411.368C348.646 410.994 348.192 410.808 347.872 410.808C347.606 410.808 347.406 410.954 347.272 411.248C347.166 411.541 347.072 411.981 346.992 412.568H346.072C346.126 411.928 346.152 411.181 346.152 410.328C346.179 409.474 346.192 408.368 346.192 407.008C346.219 405.621 346.232 403.874 346.232 401.768H347.152C347.259 403.528 347.552 405.181 348.032 406.728C348.539 408.248 349.299 409.474 350.312 410.408C351.352 411.341 352.726 411.808 354.432 411.808C355.366 411.808 356.192 411.648 356.912 411.328C357.659 410.981 358.259 410.474 358.712 409.808C359.166 409.141 359.392 408.314 359.392 407.328C359.392 406.208 359.126 405.234 358.592 404.408C358.086 403.581 357.379 402.808 356.472 402.088C355.592 401.368 354.566 400.634 353.392 399.888C352.139 399.061 350.966 398.234 349.872 397.408C348.779 396.581 347.899 395.634 347.232 394.568C346.592 393.501 346.272 392.234 346.272 390.768C346.272 389.088 346.686 387.714 347.512 386.648C348.366 385.554 349.472 384.754 350.832 384.248C352.219 383.714 353.686 383.448 355.232 383.448Z" fill="#C5AC8E"/>
<path d="M485.768 477.627C444.815 545.869 370.291 591.517 285.124 591.517C248.959 591.517 214.701 583.283 184.125 568.578C125.032 540.182 79.6734 487.622 60.7325 423.63L118.681 406.302C132.719 453.769 166.386 492.773 210.219 513.835C232.898 524.749 258.305 530.857 285.124 530.857C348.279 530.857 403.576 496.985 433.962 446.359L485.768 477.627Z" fill="#9D29FA"/>
<path d="M111.314 357.674C111.314 374.965 113.802 391.662 118.473 407.421L60.7858 424.75C54.5006 403.495 51.1396 380.977 51.1396 357.674C51.1396 313.385 63.2923 271.949 84.4265 236.583L135.999 267.851C120.334 294.084 111.314 324.816 111.314 357.674Z" fill="#9D29FA"/>
<path d="M386.15 145.917L360.043 200.758C337.351 189.828 311.93 183.711 285.097 183.711C221.908 183.711 166.581 217.613 136.18 268.313L84.3456 237C125.32 168.659 199.884 122.945 285.097 122.945C321.282 122.945 355.558 131.19 386.15 145.917Z" fill="#FFD549"/>
<path d="M518.974 357.191C518.974 401.34 506.807 442.625 485.647 477.879L434.012 446.71C449.696 420.56 458.727 389.945 458.727 357.191C458.727 339.955 456.236 323.311 451.559 307.584C437.548 260.267 404.012 221.405 360.323 200.409L386.331 145.82C445.229 174.126 490.438 226.54 509.316 290.31C515.609 311.496 518.974 333.943 518.974 357.191Z" fill="#9D29FA"/>
<path d="M429.676 22.783C430.529 22.783 431.297 22.9964 431.98 23.423C432.663 23.8284 433.207 24.3724 433.612 25.055C434.039 25.7377 434.252 26.5057 434.252 27.359C434.252 28.191 434.039 28.959 433.612 29.663C433.207 30.3457 432.663 30.8897 431.98 31.295C431.297 31.7004 430.529 31.903 429.676 31.903C428.844 31.903 428.076 31.7004 427.372 31.295C426.689 30.8897 426.145 30.3457 425.74 29.663C425.335 28.959 425.132 28.191 425.132 27.359C425.132 26.5057 425.335 25.7377 425.74 25.055C426.145 24.3724 426.689 23.8284 427.372 23.423C428.076 22.9964 428.844 22.783 429.676 22.783ZM480.226 13.311V13.951C479.501 13.9724 478.946 14.0577 478.562 14.207C478.2 14.335 477.954 14.591 477.826 14.975C477.698 15.3377 477.634 15.9137 477.634 16.703V32.575C477.634 33.343 477.698 33.919 477.826 34.303C477.954 34.687 478.2 34.943 478.562 35.071C478.946 35.199 479.501 35.2844 480.226 35.327V35.967C479.736 35.9244 479.117 35.903 478.37 35.903C477.645 35.8817 476.909 35.871 476.162 35.871C475.33 35.871 474.552 35.8817 473.826 35.903C473.101 35.903 472.514 35.9244 472.066 35.967V35.327C472.792 35.2844 473.336 35.199 473.698 35.071C474.082 34.943 474.338 34.687 474.466 34.303C474.594 33.919 474.658 33.343 474.658 32.575V14.975L474.786 15.071L466.946 36.127H466.434L458.37 15.359V32.255C458.37 33.023 458.434 33.631 458.562 34.079C458.712 34.5057 458.989 34.815 459.394 35.007C459.821 35.1777 460.45 35.2844 461.282 35.327V35.967C460.898 35.9244 460.397 35.903 459.778 35.903C459.16 35.8817 458.573 35.871 458.018 35.871C457.485 35.871 456.941 35.8817 456.386 35.903C455.853 35.903 455.405 35.9244 455.042 35.967V35.327C455.768 35.2844 456.312 35.1777 456.674 35.007C457.058 34.815 457.314 34.5057 457.442 34.079C457.57 33.631 457.634 33.023 457.634 32.255V16.703C457.634 15.9137 457.57 15.3377 457.442 14.975C457.314 14.591 457.058 14.335 456.674 14.207C456.312 14.0577 455.768 13.9724 455.042 13.951V13.311C455.405 13.3324 455.853 13.3537 456.386 13.375C456.941 13.3964 457.485 13.407 458.018 13.407C458.488 13.407 458.968 13.3964 459.458 13.375C459.97 13.3537 460.397 13.3324 460.738 13.311L468.002 32.447L467.458 32.703L474.658 13.407C474.914 13.407 475.16 13.407 475.394 13.407C475.65 13.407 475.906 13.407 476.162 13.407C476.909 13.407 477.645 13.3964 478.37 13.375C479.117 13.3537 479.736 13.3324 480.226 13.311ZM486.889 36.191C486.014 36.191 485.257 36.031 484.617 35.711C483.977 35.3697 483.486 34.9004 483.145 34.303C482.825 33.7057 482.665 33.0124 482.665 32.223C482.665 31.2844 482.878 30.5164 483.305 29.919C483.753 29.3217 484.318 28.8417 485.001 28.479C485.684 28.1164 486.398 27.8177 487.145 27.583C487.913 27.327 488.638 27.0924 489.321 26.879C490.004 26.6444 490.558 26.3777 490.985 26.079C491.433 25.7804 491.657 25.3857 491.657 24.895V22.911C491.657 22.015 491.518 21.3324 491.241 20.863C490.985 20.3937 490.633 20.0844 490.185 19.935C489.737 19.7644 489.236 19.679 488.681 19.679C488.148 19.679 487.572 19.7537 486.953 19.903C486.356 20.0524 485.876 20.3617 485.513 20.831C485.918 20.9164 486.27 21.1297 486.569 21.471C486.868 21.8124 487.017 22.2497 487.017 22.783C487.017 23.3164 486.846 23.743 486.505 24.063C486.164 24.3617 485.726 24.511 485.193 24.511C484.574 24.511 484.116 24.319 483.817 23.935C483.54 23.5297 483.401 23.0817 483.401 22.591C483.401 22.0364 483.54 21.5884 483.817 21.247C484.094 20.9057 484.446 20.5857 484.873 20.287C485.364 19.9457 485.993 19.6577 486.761 19.423C487.55 19.167 488.436 19.039 489.417 19.039C490.292 19.039 491.038 19.1457 491.657 19.359C492.276 19.551 492.788 19.839 493.193 20.223C493.748 20.735 494.11 21.3644 494.281 22.111C494.452 22.8364 494.537 23.711 494.537 24.735V33.631C494.537 34.1644 494.612 34.5484 494.761 34.783C494.932 35.0177 495.188 35.135 495.529 35.135C495.764 35.135 495.988 35.0817 496.201 34.975C496.414 34.8684 496.67 34.6977 496.969 34.463L497.321 35.007C496.873 35.3484 496.446 35.6364 496.041 35.871C495.636 36.0844 495.092 36.191 494.409 36.191C493.79 36.191 493.278 36.0844 492.873 35.871C492.468 35.6577 492.158 35.3484 491.945 34.943C491.753 34.5164 491.657 33.983 491.657 33.343C491.081 34.303 490.388 35.0177 489.577 35.487C488.788 35.9564 487.892 36.191 486.889 36.191ZM488.041 34.911C488.745 34.911 489.396 34.7084 489.993 34.303C490.612 33.8977 491.166 33.2897 491.657 32.479V26.207C491.401 26.5697 491.028 26.879 490.537 27.135C490.046 27.3697 489.513 27.615 488.937 27.871C488.361 28.1057 487.806 28.3937 487.273 28.735C486.761 29.055 486.334 29.4817 485.993 30.015C485.652 30.5484 485.481 31.2417 485.481 32.095C485.481 32.9484 485.705 33.631 486.153 34.143C486.622 34.655 487.252 34.911 488.041 34.911ZM508.235 19.039C508.811 19.039 509.312 19.1564 509.739 19.391C510.187 19.6257 510.528 19.935 510.763 20.319C511.019 20.6817 511.147 21.0977 511.147 21.567C511.147 22.1004 510.976 22.5697 510.635 22.975C510.315 23.3804 509.877 23.583 509.323 23.583C508.875 23.583 508.48 23.4444 508.139 23.167C507.797 22.8684 507.627 22.4524 507.627 21.919C507.627 21.5137 507.733 21.1724 507.947 20.895C508.181 20.5964 508.437 20.3617 508.715 20.191C508.565 19.9777 508.341 19.871 508.043 19.871C507.381 19.871 506.773 20.0737 506.219 20.479C505.664 20.863 505.195 21.3644 504.811 21.983C504.427 22.6017 504.128 23.263 503.915 23.967C503.701 24.6497 503.595 25.2897 503.595 25.887V32.671C503.595 33.7164 503.893 34.4204 504.491 34.783C505.109 35.1244 505.941 35.295 506.987 35.295V35.967C506.496 35.9457 505.803 35.9244 504.907 35.903C504.011 35.8604 503.061 35.839 502.059 35.839C501.333 35.839 500.608 35.8604 499.883 35.903C499.179 35.9244 498.645 35.9457 498.283 35.967V35.295C499.157 35.295 499.776 35.135 500.139 34.815C500.523 34.495 500.715 33.887 500.715 32.991V22.975C500.715 22.015 500.544 21.311 500.203 20.863C499.861 20.3937 499.221 20.159 498.283 20.159V19.487C498.965 19.551 499.627 19.583 500.267 19.583C500.885 19.583 501.472 19.551 502.027 19.487C502.603 19.4017 503.125 19.2844 503.595 19.135V23.135C503.829 22.5164 504.16 21.8977 504.587 21.279C505.035 20.639 505.568 20.1057 506.187 19.679C506.805 19.2524 507.488 19.039 508.235 19.039ZM516.932 10.879V32.991C516.932 33.887 517.092 34.495 517.412 34.815C517.732 35.135 518.276 35.295 519.044 35.295V35.967C518.702 35.9457 518.19 35.9244 517.508 35.903C516.846 35.8604 516.174 35.839 515.492 35.839C514.766 35.839 514.03 35.8604 513.284 35.903C512.537 35.9244 511.982 35.9457 511.62 35.967V35.295C512.494 35.295 513.113 35.135 513.476 34.815C513.86 34.495 514.052 33.887 514.052 32.991V14.719C514.052 13.759 513.881 13.055 513.54 12.607C513.198 12.1377 512.558 11.903 511.62 11.903V11.231C512.302 11.295 512.964 11.327 513.604 11.327C514.222 11.327 514.809 11.295 515.364 11.231C515.94 11.1457 516.462 11.0284 516.932 10.879ZM527.108 19.487V20.127C526.574 20.1697 526.073 20.319 525.604 20.575C525.134 20.8097 524.676 21.1617 524.228 21.631L519.716 26.367L520.164 25.471L526.116 33.631C526.478 34.1217 526.82 34.5057 527.14 34.783C527.481 35.0604 527.886 35.231 528.356 35.295V35.967C528.121 35.9457 527.748 35.9244 527.236 35.903C526.745 35.8604 526.254 35.839 525.764 35.839C525.102 35.839 524.43 35.8604 523.748 35.903C523.065 35.9244 522.553 35.9457 522.212 35.967V35.295C522.638 35.295 522.937 35.1884 523.108 34.975C523.278 34.7617 523.246 34.5057 523.012 34.207L519.332 28.831C518.926 28.255 518.553 27.8817 518.212 27.711C517.892 27.5404 517.422 27.4444 516.804 27.423V26.783C517.486 26.6977 518.041 26.559 518.468 26.367C518.894 26.1537 519.3 25.8444 519.684 25.439L522.052 22.975C522.734 22.271 523.076 21.7164 523.076 21.311C523.076 20.8844 522.852 20.5857 522.404 20.415C521.977 20.223 521.412 20.127 520.708 20.127V19.487C521.262 19.5084 521.881 19.5404 522.564 19.583C523.268 19.6044 523.854 19.615 524.324 19.615C524.686 19.615 525.038 19.615 525.38 19.615C525.721 19.5937 526.041 19.5724 526.34 19.551C526.638 19.5297 526.894 19.5084 527.108 19.487ZM536.371 19.039C538.248 19.039 539.71 19.615 540.755 20.767C541.822 21.8977 542.355 23.6684 542.355 26.079H531.059L531.027 25.471H539.283C539.326 24.4257 539.24 23.4657 539.027 22.591C538.814 21.695 538.472 20.9804 538.003 20.447C537.555 19.9137 536.968 19.647 536.243 19.647C535.262 19.647 534.387 20.1377 533.619 21.119C532.872 22.1004 532.424 23.6577 532.275 25.791L532.371 25.919C532.328 26.239 532.296 26.591 532.275 26.975C532.254 27.359 532.243 27.743 532.243 28.127C532.243 29.5777 532.478 30.8257 532.947 31.871C533.416 32.9164 534.024 33.7164 534.771 34.271C535.539 34.8044 536.328 35.071 537.139 35.071C537.779 35.071 538.387 34.975 538.963 34.783C539.539 34.5697 540.072 34.2284 540.563 33.759C541.054 33.2897 541.48 32.6604 541.843 31.871L542.483 32.127C542.248 32.831 541.864 33.5137 541.331 34.175C540.798 34.8364 540.126 35.3804 539.315 35.807C538.504 36.2124 537.566 36.415 536.499 36.415C534.963 36.415 533.64 36.063 532.531 35.359C531.443 34.655 530.6 33.6844 530.003 32.447C529.427 31.1884 529.139 29.7484 529.139 28.127C529.139 26.2497 529.438 24.639 530.035 23.295C530.632 21.9297 531.475 20.8844 532.563 20.159C533.651 19.4124 534.92 19.039 536.371 19.039ZM549.935 14.175V19.519H554.671V20.159H549.935V32.543C549.935 33.5457 550.116 34.2497 550.479 34.655C550.841 35.0604 551.343 35.263 551.983 35.263C552.623 35.263 553.177 35.007 553.647 34.495C554.116 33.9617 554.521 33.0764 554.863 31.839L555.503 31.999C555.289 33.2364 554.863 34.2817 554.223 35.135C553.604 35.9884 552.644 36.415 551.343 36.415C550.617 36.415 550.02 36.319 549.551 36.127C549.081 35.9564 548.665 35.7004 548.303 35.359C547.833 34.8684 547.503 34.2817 547.311 33.599C547.14 32.9164 547.055 32.0097 547.055 30.879V20.159H543.983V19.519H547.055V14.623C547.588 14.6017 548.1 14.559 548.591 14.495C549.081 14.431 549.529 14.3244 549.935 14.175ZM559.743 11.487C560.298 11.487 560.778 11.6897 561.183 12.095C561.588 12.5004 561.791 12.9804 561.791 13.535C561.791 14.0897 561.588 14.5697 561.183 14.975C560.778 15.3804 560.298 15.583 559.743 15.583C559.188 15.583 558.708 15.3804 558.303 14.975C557.898 14.5697 557.695 14.0897 557.695 13.535C557.695 12.9804 557.898 12.5004 558.303 12.095C558.708 11.6897 559.188 11.487 559.743 11.487ZM561.407 19.135V32.991C561.407 33.887 561.588 34.495 561.951 34.815C562.335 35.135 562.964 35.295 563.839 35.295V35.967C563.476 35.9457 562.922 35.9244 562.175 35.903C561.45 35.8604 560.714 35.839 559.967 35.839C559.242 35.839 558.506 35.8604 557.759 35.903C557.012 35.9244 556.458 35.9457 556.095 35.967V35.295C556.97 35.295 557.588 35.135 557.951 34.815C558.335 34.495 558.527 33.887 558.527 32.991V22.975C558.527 22.015 558.356 21.311 558.015 20.863C557.674 20.3937 557.034 20.159 556.095 20.159V19.487C556.778 19.551 557.439 19.583 558.079 19.583C558.698 19.583 559.284 19.551 559.839 19.487C560.415 19.4017 560.938 19.2844 561.407 19.135ZM576.222 19.039C577.033 19.039 577.705 19.1457 578.238 19.359C578.793 19.5724 579.251 19.871 579.614 20.255C580.019 20.6817 580.307 21.215 580.478 21.855C580.649 22.495 580.734 23.359 580.734 24.447V32.991C580.734 33.887 580.915 34.495 581.278 34.815C581.662 35.135 582.291 35.295 583.166 35.295V35.967C582.803 35.9457 582.249 35.9244 581.502 35.903C580.755 35.8604 580.03 35.839 579.326 35.839C578.622 35.839 577.929 35.8604 577.246 35.903C576.585 35.9244 576.083 35.9457 575.742 35.967V35.295C576.51 35.295 577.054 35.135 577.374 34.815C577.694 34.495 577.854 33.887 577.854 32.991V23.743C577.854 23.0817 577.801 22.4737 577.694 21.919C577.587 21.3644 577.342 20.9164 576.958 20.575C576.595 20.2337 576.03 20.063 575.262 20.063C574.366 20.063 573.577 20.319 572.894 20.831C572.233 21.343 571.71 22.047 571.326 22.943C570.963 23.8177 570.782 24.799 570.782 25.887V32.991C570.782 33.887 570.942 34.495 571.262 34.815C571.582 35.135 572.126 35.295 572.894 35.295V35.967C572.553 35.9457 572.041 35.9244 571.358 35.903C570.697 35.8604 570.014 35.839 569.31 35.839C568.606 35.839 567.881 35.8604 567.134 35.903C566.387 35.9244 565.833 35.9457 565.47 35.967V35.295C566.345 35.295 566.963 35.135 567.326 34.815C567.71 34.495 567.902 33.887 567.902 32.991V22.975C567.902 22.015 567.731 21.311 567.39 20.863C567.049 20.3937 566.409 20.159 565.47 20.159V19.487C566.153 19.551 566.814 19.583 567.454 19.583C568.073 19.583 568.659 19.551 569.214 19.487C569.79 19.4017 570.313 19.2844 570.782 19.135V22.911C571.337 21.4604 572.105 20.4577 573.086 19.903C574.089 19.327 575.134 19.039 576.222 19.039ZM590.139 41.983C589.009 41.983 587.942 41.8657 586.939 41.631C585.937 41.3964 585.126 41.023 584.507 40.511C583.91 40.0204 583.611 39.391 583.611 38.623C583.611 37.8764 583.91 37.2364 584.507 36.703C585.105 36.1697 585.915 35.7644 586.939 35.487L587.131 35.999C586.662 36.1484 586.289 36.447 586.011 36.895C585.734 37.343 585.595 37.8444 585.595 38.399C585.595 39.3804 586.043 40.127 586.939 40.639C587.857 41.1724 589.041 41.439 590.491 41.439C591.451 41.439 592.39 41.311 593.307 41.055C594.225 40.8204 594.982 40.415 595.579 39.839C596.177 39.263 596.475 38.5057 596.475 37.567C596.475 36.863 596.219 36.287 595.707 35.839C595.217 35.3697 594.235 35.135 592.763 35.135H590.395C589.713 35.135 589.051 35.0817 588.411 34.975C587.771 34.8684 587.249 34.6444 586.843 34.303C586.438 33.9617 586.235 33.439 586.235 32.735C586.235 32.0097 586.534 31.3164 587.131 30.655C587.729 29.9724 588.827 29.279 590.427 28.575L590.811 28.863C590.086 29.247 589.457 29.6417 588.923 30.047C588.39 30.431 588.123 30.8897 588.123 31.423C588.123 32.1057 588.635 32.447 589.659 32.447H593.659C594.555 32.447 595.377 32.575 596.123 32.831C596.891 33.087 597.51 33.4924 597.979 34.047C598.449 34.6017 598.683 35.327 598.683 36.223C598.683 37.2257 598.363 38.1644 597.723 39.039C597.083 39.9137 596.123 40.6177 594.843 41.151C593.585 41.7057 592.017 41.983 590.139 41.983ZM590.299 29.151C589.254 29.151 588.305 28.9804 587.451 28.639C586.598 28.2764 585.926 27.7217 585.435 26.975C584.945 26.2284 584.699 25.2684 584.699 24.095C584.699 22.9217 584.945 21.9617 585.435 21.215C585.926 20.4684 586.598 19.9244 587.451 19.583C588.305 19.2204 589.254 19.039 590.299 19.039C591.366 19.039 592.315 19.2204 593.147 19.583C594.001 19.9244 594.673 20.4684 595.163 21.215C595.654 21.9617 595.899 22.9217 595.899 24.095C595.899 25.2684 595.654 26.2284 595.163 26.975C594.673 27.7217 594.001 28.2764 593.147 28.639C592.315 28.9804 591.366 29.151 590.299 29.151ZM590.299 28.575C591.11 28.575 591.739 28.255 592.187 27.615C592.657 26.975 592.891 25.8017 592.891 24.095C592.891 22.3884 592.657 21.215 592.187 20.575C591.739 19.935 591.11 19.615 590.299 19.615C589.51 19.615 588.881 19.935 588.411 20.575C587.942 21.215 587.707 22.3884 587.707 24.095C587.707 25.8017 587.942 26.975 588.411 27.615C588.881 28.255 589.51 28.575 590.299 28.575ZM594.907 21.695L594.331 21.471C594.63 20.7457 595.142 20.1057 595.867 19.551C596.593 18.9964 597.35 18.719 598.139 18.719C598.694 18.719 599.142 18.879 599.483 19.199C599.825 19.4977 599.995 19.9564 599.995 20.575C599.995 21.2364 599.814 21.7057 599.451 21.983C599.11 22.239 598.758 22.367 598.395 22.367C598.075 22.367 597.777 22.2604 597.499 22.047C597.222 21.8124 597.062 21.4497 597.019 20.959C596.977 20.4684 597.126 19.839 597.467 19.071L597.883 19.167C596.987 19.5084 596.347 19.871 595.963 20.255C595.579 20.6177 595.227 21.0977 594.907 21.695Z" fill="white"/>
<path d="M567.935 573.028C568.788 573.028 569.556 573.241 570.239 573.668C570.922 574.073 571.466 574.617 571.871 575.3C572.298 575.982 572.511 576.75 572.511 577.604C572.511 578.436 572.298 579.204 571.871 579.908C571.466 580.59 570.922 581.134 570.239 581.54C569.556 581.945 568.788 582.148 567.935 582.148C567.103 582.148 566.335 581.945 565.631 581.54C564.948 581.134 564.404 580.59 563.999 579.908C563.594 579.204 563.391 578.436 563.391 577.604C563.391 576.75 563.594 575.982 563.999 575.3C564.404 574.617 564.948 574.073 565.631 573.668C566.335 573.241 567.103 573.028 567.935 573.028ZM593.301 563.556C593.749 563.577 594.336 563.598 595.061 563.62C595.787 563.641 596.501 563.652 597.205 563.652C598.208 563.652 599.168 563.641 600.085 563.62C601.003 563.598 601.653 563.588 602.037 563.588C604.619 563.588 606.549 564.174 607.829 565.348C609.109 566.521 609.749 568.036 609.749 569.892C609.749 570.66 609.621 571.47 609.365 572.324C609.109 573.156 608.661 573.934 608.021 574.66C607.403 575.364 606.549 575.94 605.461 576.388C604.373 576.836 602.997 577.06 601.333 577.06H598.261V576.42H601.013C602.528 576.42 603.68 576.132 604.469 575.556C605.28 574.98 605.824 574.222 606.101 573.284C606.4 572.345 606.549 571.332 606.549 570.244C606.549 568.217 606.144 566.702 605.333 565.7C604.544 564.697 603.179 564.196 601.237 564.196C600.256 564.196 599.616 564.377 599.317 564.74C599.019 565.102 598.869 565.838 598.869 566.948V582.82C598.869 583.588 598.944 584.164 599.093 584.548C599.264 584.932 599.584 585.188 600.053 585.316C600.523 585.444 601.205 585.529 602.101 585.572V586.212C601.547 586.169 600.843 586.148 599.989 586.148C599.136 586.126 598.272 586.116 597.397 586.116C596.565 586.116 595.787 586.126 595.061 586.148C594.336 586.148 593.749 586.169 593.301 586.212V585.572C594.027 585.529 594.571 585.444 594.933 585.316C595.317 585.188 595.573 584.932 595.701 584.548C595.829 584.164 595.893 583.588 595.893 582.82V566.948C595.893 566.158 595.829 565.582 595.701 565.22C595.573 564.836 595.317 564.58 594.933 564.452C594.571 564.302 594.027 564.217 593.301 564.196V563.556ZM626.132 569.38V582.756C626.132 583.716 626.303 584.43 626.644 584.9C627.007 585.348 627.647 585.572 628.564 585.572V586.244C627.903 586.18 627.241 586.148 626.58 586.148C625.961 586.148 625.364 586.18 624.788 586.244C624.233 586.308 623.721 586.425 623.252 586.596V582.82C622.719 584.206 621.961 585.198 620.98 585.796C620.02 586.372 619.028 586.66 618.004 586.66C617.257 586.66 616.607 586.553 616.052 586.34C615.497 586.126 615.039 585.828 614.676 585.444C614.271 585.017 613.993 584.462 613.844 583.78C613.695 583.097 613.62 582.254 613.62 581.252V573.22C613.62 572.26 613.449 571.556 613.108 571.108C612.767 570.638 612.127 570.404 611.188 570.404V569.732C611.871 569.796 612.532 569.828 613.172 569.828C613.791 569.828 614.377 569.796 614.932 569.732C615.508 569.646 616.031 569.529 616.5 569.38V581.956C616.5 582.617 616.543 583.225 616.628 583.78C616.713 584.334 616.927 584.782 617.268 585.124C617.609 585.465 618.164 585.636 618.932 585.636C619.764 585.636 620.5 585.38 621.14 584.868C621.801 584.356 622.313 583.662 622.676 582.788C623.06 581.913 623.252 580.932 623.252 579.844V573.22C623.252 572.26 623.081 571.556 622.74 571.108C622.399 570.638 621.759 570.404 620.82 570.404V569.732C621.503 569.796 622.164 569.828 622.804 569.828C623.423 569.828 624.009 569.796 624.564 569.732C625.14 569.646 625.663 569.529 626.132 569.38ZM639.702 569.284C641.451 569.284 642.902 570.009 644.054 571.46C645.206 572.889 645.782 575.065 645.782 577.988C645.782 579.908 645.451 581.518 644.79 582.82C644.15 584.1 643.286 585.06 642.198 585.7C641.11 586.34 639.926 586.66 638.646 586.66C637.579 586.66 636.545 586.361 635.542 585.764C634.561 585.145 633.825 584.238 633.334 583.044L633.974 583.396C634.507 584.249 635.169 584.889 635.958 585.316C636.747 585.721 637.558 585.924 638.39 585.924C639.819 585.924 640.886 585.284 641.59 584.004C642.315 582.702 642.678 580.697 642.678 577.988C642.678 576.26 642.539 574.82 642.262 573.668C641.985 572.516 641.558 571.662 640.982 571.108C640.406 570.532 639.67 570.244 638.774 570.244C637.793 570.244 636.875 570.692 636.022 571.588C635.19 572.462 634.678 573.753 634.486 575.46L634.102 575.012C634.337 573.198 634.966 571.79 635.99 570.788C637.035 569.785 638.273 569.284 639.702 569.284ZM634.71 561.156V584.548C634.433 584.782 634.145 585.028 633.846 585.284C633.569 585.518 633.291 585.753 633.014 585.988C632.737 586.222 632.449 586.468 632.15 586.724L631.606 586.5C631.691 586.201 631.745 585.902 631.766 585.604C631.809 585.284 631.83 584.964 631.83 584.644V564.996C631.83 564.036 631.659 563.332 631.318 562.884C630.977 562.414 630.337 562.18 629.398 562.18V561.508C630.081 561.572 630.742 561.604 631.382 561.604C632.001 561.604 632.587 561.572 633.142 561.508C633.718 561.422 634.241 561.305 634.71 561.156ZM653.005 561.124V583.236C653.005 584.132 653.186 584.74 653.549 585.06C653.933 585.38 654.562 585.54 655.437 585.54V586.212C655.074 586.19 654.519 586.169 653.773 586.148C653.047 586.105 652.311 586.084 651.565 586.084C650.839 586.084 650.103 586.105 649.357 586.148C648.61 586.169 648.055 586.19 647.693 586.212V585.54C648.567 585.54 649.186 585.38 649.549 585.06C649.933 584.74 650.125 584.132 650.125 583.236V564.964C650.125 564.004 649.954 563.3 649.613 562.852C649.271 562.382 648.631 562.148 647.693 562.148V561.476C648.375 561.54 649.037 561.572 649.677 561.572C650.295 561.572 650.882 561.54 651.437 561.476C652.013 561.39 652.535 561.273 653.005 561.124ZM660.721 561.732C661.276 561.732 661.756 561.934 662.161 562.34C662.566 562.745 662.769 563.225 662.769 563.78C662.769 564.334 662.566 564.814 662.161 565.22C661.756 565.625 661.276 565.828 660.721 565.828C660.166 565.828 659.686 565.625 659.281 565.22C658.876 564.814 658.673 564.334 658.673 563.78C658.673 563.225 658.876 562.745 659.281 562.34C659.686 561.934 660.166 561.732 660.721 561.732ZM662.385 569.38V583.236C662.385 584.132 662.566 584.74 662.929 585.06C663.313 585.38 663.942 585.54 664.817 585.54V586.212C664.454 586.19 663.9 586.169 663.153 586.148C662.428 586.105 661.692 586.084 660.945 586.084C660.22 586.084 659.484 586.105 658.737 586.148C657.99 586.169 657.436 586.19 657.073 586.212V585.54C657.948 585.54 658.566 585.38 658.929 585.06C659.313 584.74 659.505 584.132 659.505 583.236V573.22C659.505 572.26 659.334 571.556 658.993 571.108C658.652 570.638 658.012 570.404 657.073 570.404V569.732C657.756 569.796 658.417 569.828 659.057 569.828C659.676 569.828 660.262 569.796 660.817 569.732C661.393 569.646 661.916 569.529 662.385 569.38ZM674.448 569.284C675.131 569.284 675.792 569.369 676.432 569.54C677.072 569.71 677.648 569.966 678.16 570.308C678.651 570.628 679.024 571.001 679.28 571.428C679.536 571.833 679.664 572.281 679.664 572.772C679.664 573.348 679.504 573.796 679.184 574.116C678.864 574.414 678.459 574.564 677.968 574.564C677.499 574.564 677.083 574.425 676.72 574.148C676.379 573.87 676.208 573.476 676.208 572.964C676.208 572.473 676.336 572.078 676.592 571.78C676.869 571.481 677.189 571.289 677.552 571.204C677.339 570.82 676.955 570.5 676.4 570.244C675.867 569.988 675.291 569.86 674.672 569.86C674.139 569.86 673.605 569.988 673.072 570.244C672.539 570.5 672.048 570.926 671.6 571.524C671.152 572.1 670.789 572.9 670.512 573.924C670.235 574.926 670.096 576.185 670.096 577.7C670.096 579.577 670.309 581.07 670.736 582.18C671.163 583.289 671.717 584.089 672.4 584.58C673.104 585.049 673.872 585.284 674.704 585.284C675.259 585.284 675.824 585.177 676.4 584.964C676.976 584.75 677.52 584.409 678.032 583.94C678.544 583.449 678.981 582.798 679.344 581.988L679.952 582.212C679.739 582.894 679.387 583.588 678.896 584.292C678.405 584.974 677.765 585.54 676.976 585.988C676.187 586.436 675.216 586.66 674.064 586.66C672.741 586.66 671.547 586.318 670.48 585.636C669.413 584.953 668.56 583.982 667.92 582.724C667.301 581.444 666.992 579.929 666.992 578.18C666.992 576.43 667.301 574.894 667.92 573.572C668.56 572.228 669.445 571.182 670.576 570.436C671.707 569.668 672.997 569.284 674.448 569.284Z" fill="white"/>
<path d="M295.669 110.477L354.836 26.4414H426.867" stroke="#FFD549" stroke-width="6" stroke-linecap="round" stroke-dasharray="20 20"/>
<path d="M462.965 527L496.943 541.499L564.101 575.423" stroke="#9D29FA" stroke-width="6" stroke-linecap="round" stroke-dasharray="20 20"/>
</svg>
