<svg width="1920" height="46" viewBox="0 0 1920 46" fill="none" xmlns="http://www.w3.org/2000/svg">
<path fill-rule="evenodd" clip-rule="evenodd" d="M181.239 42.883L181.815 42.9118L182.896 42.816L182.307 42.7873L181.239 42.883ZM1401.5 2.35725L1401.87 2.31657L1399.73 2.22961L1399.35 2.2695L1401.5 2.35725ZM1467.27 2.70587C1469.13 2.81037 1469.12 2.80958 1470.97 2.6588L1467.27 2.70587ZM77.8408 45.5914L74.2377 45.7733C76.7959 45.7422 76.7959 45.7422 77.8408 45.5914ZM1325.54 1.84031L1328.27 1.76054C1326.58 1.65842 1325.87 1.72145 1325.54 1.84031ZM1960.61 0.621343V43.7223C1959.98 43.7087 1959.22 43.6736 1958.74 43.6864C1955.87 43.7622 1953.94 43.6864 1951.69 43.5619C1949.29 43.4279 1946.96 43.4215 1945.38 43.542C1944.56 43.6024 1943.56 43.6511 1942.45 43.685C1941.33 43.7189 1940.13 43.7373 1938.9 43.739C1937.64 43.7498 1936.45 43.7844 1935.47 43.8388C1934.95 43.8683 1935.13 43.952 1934.93 44.0103C1934.93 44.023 1934.56 44.0318 1934.14 44.0541C1930.09 43.9528 1927.03 44.0143 1924.03 44.2696C1920.43 44.5711 1917.4 44.5791 1912.8 44.4107L1905.96 44.7721L1903.83 44.5176C1901.43 44.5256 1900.82 44.6229 1900.36 44.7402C1899.45 44.9795 1897.96 45.0338 1894.36 44.9851C1892.96 44.9591 1891.52 44.948 1890.07 44.9524C1888.12 44.978 1886.1 44.9582 1884.35 44.8966C1884.03 44.8816 1883.67 44.871 1883.29 44.8655C1882.9 44.86 1882.51 44.8596 1882.12 44.8645C1881.74 44.8693 1881.37 44.8792 1881.04 44.8937C1880.72 44.9081 1880.44 44.9267 1880.22 44.9484C1878.29 45.1144 1875.67 45.1431 1872.57 45.0402V44.7402C1868.8 44.6963 1867.44 44.9157 1865.14 45.0043C1862.52 44.9022 1861.32 44.6445 1857.18 44.7554C1857.04 44.7833 1857 44.8535 1856.51 44.8734C1853.61 44.9939 1850.6 45.104 1847.62 45.2157C1845.98 45.2771 1844.79 45.2667 1843.65 45.1471C1842.13 45.0057 1840.49 44.8704 1838.74 44.7418C1837.99 45.037 1835.83 45.1582 1832.09 45.1654C1831.31 45.1654 1830.58 45.23 1829.76 45.2564C1826.85 45.3513 1823.76 45.4239 1820.77 45.2883C1817.78 45.1526 1814.22 45.1838 1810.87 45.1718C1809.2 45.1662 1807.52 45.1718 1805.11 45.1782L1801.5 45.3832C1800.3 45.4542 1798.8 45.4853 1797.52 45.4127C1795.1 45.2921 1792.92 45.1522 1791.02 44.9963C1789.52 44.8599 1787.58 44.7478 1785.34 44.6684L1781.27 44.7969C1778.86 44.5631 1778.01 44.5631 1775.26 44.7602C1774.67 44.8042 1773.9 44.836 1773.04 44.8519C1771.26 44.8802 1769.45 44.896 1767.62 44.899C1766.64 44.8957 1765.65 44.9069 1764.74 44.9319C1763.82 44.9568 1763 44.9949 1762.34 45.0434C1761.62 45.0978 1760.67 45.1356 1759.6 45.1511C1758.54 45.1666 1757.43 45.1591 1756.44 45.1295C1756.62 45.0027 1756.44 44.9014 1754.12 44.8671C1753.28 44.8543 1751.96 44.7873 1752.01 44.7442C1752.14 44.6309 1750.96 44.6349 1750.06 44.6261C1748.83 44.62 1747.6 44.62 1746.36 44.6261C1746.36 44.5687 1746.36 44.5177 1746.36 44.4666C1746.15 44.2975 1744.38 44.2352 1742.34 44.331C1741.04 44.4012 1739.81 44.4772 1738.67 44.5583C1736.47 44.4993 1734.28 44.4139 1733.72 44.2544C1733.29 44.1259 1732.1 44.0597 1730.94 43.9784C1729.31 43.8619 1727.7 43.7454 1726.72 43.6736L1719.11 43.4662C1716.99 43.408 1715.19 43.3346 1712.43 43.3537C1708.95 43.3784 1704.45 43.4279 1702.98 43.0593C1701.37 43.1128 1700.05 43.1503 1698.83 43.1974C1697.34 43.2548 1695.97 43.325 1694.47 43.38C1693.51 43.4247 1692.38 43.4504 1691.21 43.4542C1690.23 43.4455 1689.36 43.3705 1688.08 43.3059L1682.38 43.6066C1681.87 43.5324 1681.58 43.4861 1681.18 43.4415C1680.79 43.3968 1680.48 43.3569 1679.98 43.3051C1679.63 43.3279 1679.3 43.3522 1678.99 43.3777C1676.31 43.6624 1675.85 43.672 1670.94 43.5859C1668.57 43.542 1666.16 43.5079 1663.73 43.4838C1662.69 43.4767 1661.65 43.4973 1660.84 43.5412C1658.77 43.6712 1656.56 43.6664 1654.16 43.6074C1653.96 43.6018 1653.84 43.5835 1653.75 43.5779C1653.94 43.4981 1654.11 43.4303 1654.42 43.3035L1647.85 43.475C1646.65 43.3378 1645.08 43.2396 1642.25 43.3011C1639.68 43.3561 1636.89 43.3689 1634.33 43.4271C1631.77 43.4854 1629.43 43.5803 1627 43.4175C1626.84 43.4064 1626.27 43.4271 1625.9 43.4255C1623.59 43.4167 1621.31 43.4056 1618.95 43.396C1618.5 43.4347 1618.1 43.4755 1617.74 43.5181C1617.43 43.5737 1617.16 43.6305 1616.94 43.688C1614.39 43.7319 1611.98 43.8252 1609.05 43.7374C1606.12 43.6497 1602.74 43.5619 1599.21 43.6664C1598.53 43.6864 1597.47 43.6529 1596.59 43.6441C1594.38 43.7462 1592.14 43.8523 1589.87 43.9552C1588.31 44.0254 1587.19 43.9808 1586.11 43.8938C1584.91 43.7933 1583.44 43.7023 1582.13 43.6042C1581.53 43.5588 1580.67 43.5117 1580.51 43.4582C1580.08 43.3067 1578.42 43.242 1576.39 43.1623C1575.59 43.2418 1574.94 43.3282 1574.48 43.4191C1574.32 43.4726 1575.17 43.5404 1575.55 43.6002C1573.05 43.7486 1570.94 43.8029 1568.75 43.7757C1567.55 43.7606 1566.8 43.7279 1567.26 43.6314C1567.36 43.6122 1566.94 43.5819 1566.76 43.5571C1566.67 43.6091 1566.31 43.6574 1565.74 43.6936C1565.18 43.7299 1564.44 43.7519 1563.65 43.7558C1561.62 43.7869 1559.91 43.9002 1557.94 43.9584C1556.87 43.9872 1555.68 43.9936 1554.55 43.9768C1553.24 43.9577 1552.01 43.9202 1550.94 43.8667C1549.96 43.8103 1548.74 43.7758 1547.44 43.768C1546.15 43.7603 1544.85 43.7797 1543.74 43.8236C1541.99 43.8842 1540.25 43.9153 1538.61 43.8021C1538.69 43.7287 1538.78 43.6537 1538.85 43.5747H1535.71C1536.34 43.3394 1533.06 43.3306 1531.27 43.1982C1530.32 43.3784 1525.89 43.2612 1525.9 43.538L1531.61 43.5859C1531.49 43.6856 1531.38 43.7717 1531.25 43.8802L1524.18 44.0605C1525.25 44.2576 1525.04 44.2871 1521.35 44.4147C1521.07 44.2297 1519.5 44.2097 1517.18 44.2616C1515.8 44.2838 1514.39 44.2985 1512.97 44.3054C1511.94 44.0661 1509.36 43.9217 1506.62 43.7382C1506.08 43.8547 1505.74 43.9329 1505.35 44.0143C1504.15 44.0087 1503.29 44.0007 1502.37 44.0007C1499.38 44.0007 1496.49 43.9887 1493.89 44.1435C1492.69 44.2169 1490.35 44.2233 1488.49 44.2336C1486.68 44.2311 1484.87 44.2224 1483.07 44.2073C1478.76 44.1993 1474.42 44.2137 1470.12 44.1874C1469.2 44.1833 1468.31 44.167 1467.48 44.1396C1466.66 44.1123 1465.92 44.0743 1465.32 44.0278C1463.7 43.8595 1461.59 43.8419 1459.11 43.8435L1461.51 43.6282C1460.43 43.5787 1459.4 43.4885 1457.07 43.5412C1457.81 43.6465 1458.5 43.7438 1459.17 43.8404C1455.02 44.1595 1450.24 44.0565 1445.31 43.9201C1444.45 43.9552 1443.51 43.9879 1442.66 44.0286C1440.03 44.1539 1437.41 44.1555 1435.11 44.0039C1433.3 43.8842 1431.44 43.8611 1429.36 43.9425L1427.97 43.8005C1427.7 43.8113 1427.44 43.8233 1427.2 43.8364C1427.01 43.8475 1426.86 43.8635 1426.68 43.8755C1424.38 44.035 1423.3 44.0573 1420.43 43.964C1419.54 43.9285 1418.71 43.8868 1417.95 43.8396C1415.45 43.7063 1413.15 43.6178 1409.68 43.7494C1403.33 43.9887 1396.1 44.0438 1389.01 44.1124C1385.81 44.1427 1384.09 44.0565 1383.15 43.8451C1382.81 43.771 1382.84 43.6856 1382.59 43.613C1381.93 43.4112 1381.73 43.1958 1379.11 43.0314C1375.94 43.1854 1372.86 43.3338 1369.99 43.0434C1368.35 43.1232 1367.72 43.238 1365.45 43.2564C1364.12 43.2668 1363.05 43.4088 1361.85 43.4957C1361.77 43.5021 1361.66 43.5101 1361.54 43.5109C1358.97 43.5284 1357.94 43.6521 1356.66 43.7837C1356.17 43.8477 1355.36 43.8984 1354.37 43.9275C1353.39 43.9565 1352.28 43.9621 1351.23 43.9433C1348.42 43.8962 1345.58 43.8555 1342.39 43.8069C1343.33 43.6277 1344.11 43.4449 1344.71 43.2596C1345.01 43.0701 1345.14 42.8797 1345.11 42.6892C1343.39 42.6533 1341.51 42.5297 1339.27 42.6892C1338.73 42.7259 1336.2 42.7059 1335.67 42.6589C1334.3 42.5336 1332.23 42.4563 1331.3 42.2935C1329.49 41.9824 1327.42 41.9226 1322.67 41.9561C1322.01 42.0686 1321.34 42.1826 1320.27 42.3549C1319.39 42.2153 1318.91 42.1387 1318.17 42.0183C1317.83 42.1052 1317.68 42.1483 1317.57 42.1778L1308.15 42.327L1305.39 42.0079L1302.18 42.193L1295.2 41.8994C1294.18 41.9792 1293.21 42.1292 1292.08 42.134C1288.92 42.1491 1287.63 42.2935 1286.49 42.4331C1285.01 42.6118 1283.06 42.6278 1280.34 42.5927C1280.07 42.4443 1279.82 42.2991 1279.56 42.1563C1278.04 42.1659 1276.36 42.2122 1275.65 42.1747C1273.25 42.0486 1270.85 42.1236 1268.83 42.126C1267.94 42.26 1267.17 42.3757 1266.66 42.4555L1259.52 42.3549C1259.35 42.4818 1259.23 42.5735 1259.04 42.7211C1258.02 42.6349 1257.53 42.5927 1256.87 42.5352C1255.98 42.6453 1255.04 42.7586 1254.15 42.8735C1253.05 43.0171 1252.57 43.033 1250.49 42.9636C1249.9 42.9445 1249.37 42.9158 1248.78 42.8966C1245.18 42.7745 1241.7 42.6948 1237.65 42.8695C1235.53 42.9612 1232.49 43.0594 1229.88 42.9078C1227.52 42.7681 1224.43 42.6959 1221.27 42.7067C1221.14 43.0586 1215.5 43.2748 1210.2 43.132C1210.2 42.9046 1210.2 42.9046 1207.79 42.7331C1206.06 42.7871 1204.43 42.8537 1202.92 42.9317C1201.59 43.0357 1200.43 43.1485 1199.45 43.2684L1196.66 43.1615C1195.24 43.1998 1193.95 43.27 1192.78 43.2612C1188.59 43.2285 1184.22 43.2716 1180.22 43.1391C1179.86 43.1301 1179.48 43.1266 1179.1 43.1288C1178.72 43.131 1178.35 43.1389 1178.02 43.1519C1174.31 43.3306 1170.12 43.463 1167.32 43.7239C1166.97 43.7622 1166.51 43.795 1165.95 43.8201C1165.4 43.8452 1164.77 43.8619 1164.1 43.869C1163.44 43.8761 1162.76 43.8736 1162.12 43.8615C1161.47 43.8493 1160.87 43.828 1160.36 43.7989C1157.43 43.6258 1154.65 43.4415 1151.78 43.2628C1151.21 43.2277 1150.58 43.1942 1149.77 43.1479C1148.16 43.3114 1146.66 43.467 1145.05 43.6306L1142.61 43.6425C1142.52 43.7223 1142.43 43.7885 1142.31 43.8746C1141.39 43.8236 1140.7 43.7869 1140.29 43.7654C1138.88 43.8108 1137.46 43.8986 1136.5 43.8802C1135.31 43.8566 1134.2 43.8171 1133.25 43.7642C1132.29 43.7112 1131.51 43.646 1130.95 43.5723C1129.98 43.6393 1129.27 43.6864 1128.55 43.7319C1127.83 43.7773 1127.5 43.8404 1126.77 43.8635C1123.57 43.9639 1121.08 44.1417 1119.79 44.3605C1118.3 44.5998 1115.84 44.7594 1113.07 44.9189C1109.96 45.1024 1106.76 45.1582 1103 45.0386C1102.83 44.9428 1102.67 44.8511 1102.45 44.7291L1099.62 44.8328L1101.77 45.0521C1101.15 45.0902 1100.48 45.1239 1099.76 45.1526C1096.45 45.2668 1093.31 45.402 1090.39 45.5563C1089.76 45.6076 1088.93 45.6466 1088 45.6695C1087.06 45.6924 1086.05 45.6982 1085.07 45.6864C1082.46 45.6739 1079.96 45.6116 1077.86 45.5069C1078.97 45.1822 1078.97 45.1822 1078.12 45.0402C1077.9 45.0681 1077.54 45.0944 1077.62 45.1104C1077.92 45.1758 1078.09 45.2508 1076.87 45.254C1076.38 45.2497 1075.92 45.2387 1075.51 45.2216C1075.09 45.2046 1074.74 45.1819 1074.47 45.155C1074.09 45.0989 1073.92 45.0377 1073.96 44.9763C1073.85 44.883 1073.83 44.7889 1073.76 44.6828C1070.9 44.7115 1068.28 44.7187 1067.55 44.4985C1066.59 44.2073 1063.2 44.0262 1060.94 43.7949C1055.72 44.0071 1050.13 43.9385 1047.02 43.6353C1045.15 43.6042 1043.3 43.5843 1041.57 43.5428C1037.23 43.4391 1036.86 43.4463 1033.55 43.6864C1032.12 43.7901 1030.62 43.897 1028.24 43.8962C1027.7 43.8962 1026.84 43.889 1026.68 43.8667C1025.53 43.7199 1023.88 43.7749 1022.32 43.7941C1021.88 44.1076 1021.46 44.4083 1021.04 44.7163C1018.64 44.7035 1016.32 44.6852 1013.98 44.6804C1013.18 44.6819 1012.4 44.6666 1011.74 44.6366C1011.08 44.6067 1010.58 44.5636 1010.32 44.5136C1008.16 44.2073 1008.11 44.2089 1002.9 44.3031L1003.02 44.2975C1001.99 44.2464 1001.02 44.189 999.941 44.1451C999.056 44.1138 998.137 44.0872 997.19 44.0653C996.494 44.2352 994.956 44.1012 993.911 44.0964C993.218 44.0865 992.498 44.0886 991.82 44.1026C991.143 44.1166 990.531 44.1419 990.044 44.1762C989.203 44.2302 988.309 44.2803 987.366 44.3262C986.705 44.3102 986.165 44.2999 985.732 44.2855C982.934 44.1954 982.333 44.0175 982.129 43.8427C981.925 43.668 984.928 43.7215 986.177 43.6425C985.084 43.4367 983.366 43.6688 981.853 43.6138C980.856 43.4901 979.727 43.3577 977.049 43.3019C977.301 43.4774 977.493 43.6465 974.839 43.7007C971.704 43.7678 969.47 43.9161 966.876 44.0342C964.984 44.1297 962.975 44.2146 960.871 44.2879C957.315 44.3981 953.675 44.4958 949.965 44.5807C946.554 44.6604 944.633 44.5767 943.083 44.3461C941.762 44.1475 940.081 43.9584 938.736 43.7606C937.873 43.657 937.391 43.5414 937.33 43.4231C937.511 43.2755 937.27 43.2037 934.808 43.2157C934.542 43.2155 934.28 43.2117 934.036 43.2045C933.793 43.1974 933.573 43.1871 933.391 43.1742C933.137 43.1489 932.801 43.1277 932.407 43.1123C932.012 43.0968 931.571 43.0875 931.115 43.085C930.659 43.0824 930.2 43.0868 929.772 43.0977C929.345 43.1086 928.96 43.1257 928.647 43.1479C924.84 42.9772 924.84 42.9772 921.585 43.1726C921.393 43.1838 921.104 43.2053 920.984 43.2022C920.384 43.1854 919.783 43.1631 918.582 43.1224C916.973 43.1415 914.979 43.2021 915.856 43.4343C913.905 43.3844 911.896 43.3449 909.851 43.3162C908.253 43.3011 906.884 43.2747 906.247 43.1774C905.215 43.0115 902.536 43.0179 900.711 42.9493C898.201 42.8496 896.687 43.0649 894.597 43.1224C894.045 43.1375 893.805 43.1942 893.288 43.2197C891.378 43.3154 889.313 43.3737 887.019 43.2819C885.019 43.2105 882.744 43.1805 880.485 43.1958C879.279 43.1971 878.074 43.1915 876.882 43.179C872.078 43.1367 867.43 43.0195 862.47 43.0929C861.838 43.0963 861.202 43.0933 860.584 43.0841L858.842 42.8113C857.641 42.832 856.524 42.8496 855.431 42.8695C854.341 42.8983 853.205 42.9186 852.044 42.9301C849.642 42.9349 847.625 42.9604 846.856 43.1216L841.583 42.9158C842.22 43.0187 842.508 43.0634 842.941 43.1328L832.011 42.9971C832.167 42.9126 832.251 42.8376 832.48 42.7578C832.912 42.6118 832.6 42.5783 830.306 42.5504C829.907 42.5469 829.506 42.545 829.105 42.5448C828.108 42.465 827.447 42.3605 826.51 42.3486C824.192 42.3198 823.64 42.2105 823.015 42.0781C820.878 42.2081 819.028 42.3549 816.386 42.3063C814.824 42.4259 813.479 42.5209 812.266 42.6254C810.476 42.7762 808.723 42.9285 807.077 43.0865C805.432 43.2444 804.063 43.388 800.928 43.3091C800.484 43.3673 800.316 43.4335 799.799 43.4495C796.544 43.5516 791.608 43.4311 789.854 43.2181C789.446 43.1694 788.93 43.1248 788.425 43.0737C785.339 43.2373 782.756 43.4096 779.694 43.526C776.811 43.6369 775.01 43.8013 772.92 43.956C772.331 43.9999 771.851 44.051 771.394 44.0909C771.043 44.0911 770.691 44.0884 770.35 44.0829C766.59 43.9528 766.218 43.964 764.933 44.2424C764.715 44.3099 764.219 44.3721 763.5 44.422C762.781 44.4718 761.867 44.5074 760.861 44.5248C758.952 44.4195 757.426 44.3365 755.901 44.2536L759.288 44.2632C759.07 44.2344 758.763 44.209 758.389 44.1885C758.015 44.1681 757.581 44.153 757.114 44.1443C755.517 44.1252 756.033 44.2081 756.045 44.2632C755.241 44.24 753.871 44.2289 753.715 44.193C753.079 44.0454 751.505 43.9847 749.487 43.9433C748.575 43.9871 747.626 44.031 746.317 44.0924C746.089 43.9161 745.896 43.7685 745.68 43.5954C742.93 43.7638 742.666 43.7789 741.861 43.7247C740.432 43.629 738.03 43.6026 737.441 43.4423C737.273 43.3992 736.144 43.3721 735.567 43.3434L731.712 43.5029C727.496 43.3434 723.869 43.1216 718.501 43.1192C718.012 43.1738 717.303 43.2183 716.454 43.2476C715.605 43.2769 714.65 43.2899 713.696 43.2851L711.354 43.0075L708.856 43.1296C710.466 43.2277 711.871 43.3138 713.264 43.3976C712.819 43.5229 711.906 43.6387 710.608 43.7344C709.311 43.8301 707.672 43.9024 705.842 43.9449C703.62 44.0007 701.206 44.0757 698.635 43.9401C699.932 43.6617 696.413 43.4742 695.597 43.1838C694.624 43.3864 690.504 43.3673 690.937 43.6026C690.937 43.6122 690.288 43.6282 689.928 43.6401C687.994 43.7007 686.157 43.755 683.851 43.6888C682.649 43.6545 680.992 43.6816 679.551 43.6816C678.527 43.6912 677.488 43.6912 676.464 43.6816C675.204 43.6513 673.857 43.6404 672.525 43.65C671.193 43.6595 669.911 43.6892 668.777 43.7366C666.868 43.617 664.97 43.597 662.28 43.6489C660.91 43.6773 659.455 43.6823 658.049 43.6635C656.642 43.6447 655.33 43.6026 654.233 43.5412C652.179 43.4247 648.336 43.4303 645.826 43.526C644.971 43.559 643.989 43.5745 643.003 43.5707C641.723 43.5645 640.473 43.5414 639.328 43.5029C637.779 43.4463 635.617 43.3856 635.172 43.2955C634.5 43.1693 633.345 43.0569 631.821 42.9692C627.678 43.0777 626.357 43.412 621.781 43.4654C621.6 43.5558 621.14 43.6427 620.432 43.7208C619.723 43.7989 618.78 43.8665 617.661 43.9193C614.058 43.6409 609.422 43.5141 604.69 43.3609C604.485 43.4614 604.143 43.5605 603.669 43.6569C603.473 43.687 603.188 43.7143 602.831 43.737C602.474 43.7598 602.053 43.7775 601.591 43.7893C600.29 43.8042 598.966 43.8074 597.652 43.7989C595.802 43.7989 593.808 43.7686 592.139 43.8053C585.057 43.9584 577.606 44.022 570.172 43.9927C567.962 43.9855 565.644 44.0278 563.71 43.9129C563.434 43.8962 562.737 43.9026 562.281 43.9129C557.717 43.9871 554.066 43.8092 554.21 43.5069C554.282 43.3705 554.702 43.2349 554.955 43.0992L550.391 42.9325C552.348 42.4379 552.348 42.4379 551.436 42.3238C549.43 42.4204 550.127 42.6509 547.544 42.7028C545.25 42.5943 543.293 42.489 541.155 42.4044C538.548 42.3015 537.972 42.1651 538.609 41.976C538.783 41.8917 538.863 41.8066 538.849 41.7215C537.48 41.7662 536.194 41.8214 535.017 41.8859C533.816 41.9712 532.387 41.9353 531.138 41.9656C529.889 41.9959 527.703 42.059 527.343 42.1356C526.61 42.2951 524.64 42.3214 523.007 42.3789C520.929 42.4507 518.599 42.4897 516.485 42.5576C515.08 42.603 513.927 42.6804 512.57 42.7331C508.967 42.8735 505.928 42.7889 504.691 42.5209C504.427 42.465 504.139 42.3821 503.49 42.3613C500.572 42.2815 499.971 42.0845 498.53 41.9337C496.68 41.7423 495.779 41.5085 492.525 41.3578L490.519 41.5261C486.976 41.3035 485.246 41.3179 481.547 41.6058C477.572 41.3737 472.972 41.27 467.855 41.3729C466.654 41.2812 465.681 41.2062 464.708 41.1336C462.306 41.1886 460.457 41.3538 457.358 41.2389C459.676 41.0458 456.649 40.9381 455.797 40.7969L458.619 40.6533H453.527C454.286 40.5633 455.116 40.476 456.013 40.3917C456.974 40.3119 457.995 40.2433 456.758 40.1276L448.35 40.3669C449.551 40.6757 450.584 40.9796 452.818 41.2501C449.683 41.3298 446.945 41.3897 444.267 41.4607C441.24 41.5404 438.934 41.4782 436.916 41.3218C435.707 41.2192 433.963 41.1503 432.028 41.1288C430.992 41.1229 430.019 41.0932 429.277 41.0449C428.534 40.9966 428.067 40.9326 427.957 40.8639C425.062 40.9525 423.717 40.86 422.624 40.7283L425.026 40.5097L421.603 40.4587C421.447 40.5799 421.315 40.6924 421.183 40.7929C416.559 40.9964 412.511 40.8791 408.776 40.7132C406.77 40.623 405.233 40.5424 402.446 40.5887C400.801 40.6158 398.723 40.5257 396.753 40.4866C396.645 40.5807 396.561 40.6661 396.477 40.7483C394.075 40.7985 392.009 40.8464 389.848 40.8895C389.233 40.9032 388.578 40.9068 387.938 40.8998C384.335 40.8496 380.732 40.7898 377.128 40.7403C376.002 40.7331 374.868 40.7331 373.741 40.7403C373.578 40.7756 373.474 40.812 373.429 40.8488C373.898 41.2062 373.537 41.262 368.217 41.2764C364.097 41.2876 361.947 41.4559 359.497 41.6226C358.834 41.6726 357.959 41.7082 356.987 41.7247C355.334 41.7347 353.672 41.7363 352.015 41.7295V41.183L343.235 41.0371C343.643 41.1775 343.932 41.2724 344.208 41.3681C342.671 41.5181 340.461 41.4351 338.419 41.42C338.047 41.5117 337.734 41.5859 337.446 41.6593C336.129 41.6828 334.849 41.7148 333.627 41.755C328.988 41.9451 323.792 42.0673 318.385 42.1132C314.674 42.1451 314.23 42.1427 313.149 41.8883C313.053 41.8659 312.897 41.8436 312.729 41.8157L310.05 41.8348C309.966 41.9282 309.894 42.0063 309.858 42.055L302.724 42.1986L305.943 42.394L300.802 42.4977C300.946 42.5703 300.994 42.6373 301.223 42.702C301.451 42.7666 301.931 42.8495 302.424 42.9469C301.397 42.9876 300.277 43.017 299.109 43.0338C297.412 43.0417 295.707 43.0279 294.088 42.9931C292.167 42.9477 293.764 42.8176 293.164 42.7347C293.08 42.7235 292.767 42.7187 292.143 42.6948C291.963 42.7746 291.806 42.8464 291.614 42.9341C291.005 42.9333 290.397 42.937 289.801 42.9453C287.074 43.0027 284.372 43.0681 281.646 43.1248C280.926 43.1447 280.127 43.148 279.376 43.1343C277.346 43.0617 275.448 42.9748 273.479 42.895C275.785 42.682 278.055 42.5121 278.847 42.2783C276.373 42.2089 274.956 42.2855 274.043 42.4004C273.1 42.5258 272.297 42.6557 271.641 42.7889C270.788 42.9485 269.623 43.0075 267.125 42.9676C261.806 42.8889 256.828 42.7307 252.568 42.5049C250.503 42.3916 248.653 42.2656 245.758 42.4068C245.314 42.4283 244.377 42.4068 243.861 42.402C243.729 42.5009 243.609 42.5815 243.501 42.6565C241.555 42.6637 240.114 42.6637 238.696 42.6764C237.546 42.6807 236.421 42.7008 235.393 42.7355C233.051 42.8352 230.902 42.9533 228.632 43.0609C226.121 43.1798 225.028 43.2596 222.891 43.5093C221.822 43.6321 218.555 43.6633 217.978 43.5436C216.885 43.3154 214.159 43.3785 211.144 43.3099C212.345 43.4032 212.85 43.4494 213.414 43.4957L212.922 43.5292L206.605 43.2269L201.44 43.6497C196.756 43.5436 195.026 43.2843 194.234 43.0035H183.052C179.269 43.3274 176.23 43.3689 170.117 43.1766C171.81 42.9844 169.937 42.84 168.916 42.6828C165.577 42.7291 165.889 42.8799 166.201 43.0338C165.493 43.0498 164.736 43.0865 164.28 43.0745C162.034 43.0155 159.86 42.9445 157.59 42.8759C153.915 43.0913 152.894 43.3792 152.209 43.6736C151.092 44.1523 148.102 44.2017 142.781 44.1579C139.436 44.1171 136.128 44.0638 132.873 43.9983C131.764 43.9849 130.645 43.9756 129.522 43.9704C131.684 44.2999 135.527 44.4865 138.277 44.7147C137.328 44.7602 136.404 44.8032 135.503 44.8487C133.401 44.954 131.227 45.0545 129.245 45.1678C126.843 45.3098 124.441 45.2604 122.039 45.1678C120.234 45.0954 118.139 45.0612 116.034 45.0697C114.028 45.0769 111.422 45.1024 110.353 44.9221C108.179 45.0194 106.125 45.0186 104.504 44.9293C102.883 44.8399 104.564 44.7466 105.285 44.6756C104.156 44.5232 102.582 44.5847 100.817 44.6046C101.393 44.745 101.934 44.8766 102.462 45.0035C99.6998 45.2843 94.4752 45.1766 91.0042 45.3345C89.2987 45.1846 87.1249 45.1917 84.8309 45.2436C84.6747 45.2476 84.6387 45.2723 84.5306 45.2899L87.305 45.4119C86.3682 45.459 85.6956 45.4965 84.975 45.5284C84.2544 45.5603 83.5097 45.5818 82.8852 45.6082L81.1197 45.4741L76.6277 45.9935C73.7332 45.9831 72.316 45.8658 71.163 45.7406C70.01 45.6154 69.1212 45.4765 68.0763 45.3417C66.8251 45.3835 65.621 45.4312 64.4732 45.4845C62.2633 45.6066 62.0711 45.609 59.9813 45.4733C57.534 45.3054 54.6951 45.1648 51.574 45.0569C47.2022 44.9157 43.2508 44.7171 39.1072 44.544C38.5937 44.5175 38.0116 44.4975 37.3897 44.4849C33.9547 44.4427 30.4957 44.4052 26.7485 44.3637C26.4122 44.4155 25.9678 44.4865 25.4153 44.5711C23.0973 44.4913 21.584 44.5751 20.3109 44.7195C17.2242 44.5512 15.819 44.7634 13.8733 44.8375C11.0629 44.7498 11.7114 44.5679 11.1229 44.3924C8.57672 44.4299 6.31875 44.406 5.40596 44.1882C2.64356 44.52 -0.851463 44.7195 -5.75172 44.7873C-6.73874 44.6484 -7.8914 44.5151 -9.1987 44.3884C-10.7039 44.2808 -12.3432 44.1818 -14.099 44.0924L-15.8645 44.2943L-17.8102 44.2105C-16.0446 44.4315 -19.7318 44.4419 -20.3083 44.5807C-20.7888 44.694 -21.4493 44.879 -24.4279 44.8742C-28.1391 44.678 -32.595 44.6852 -36.7386 44.6572L-38.4801 45.2955C-38.8227 45.2949 -39.1582 45.2889 -39.4595 45.278C-39.7607 45.2672 -40.019 45.2518 -40.2134 45.233C-40.4078 45.2143 -40.5327 45.1927 -40.578 45.1702C-40.6232 45.1476 -40.5876 45.1247 -40.4738 45.1032C-39.489 44.8766 -40.606 44.6556 -40.606 44.4331C-40.5339 31.0128 -40.5339 17.5927 -40.606 4.17294C-40.606 4.03094 -40.606 3.88974 -40.5339 3.74774C-40.4038 3.691 -40.1947 3.63517 -39.9094 3.581L-25.665 4.16336C-26.2775 3.75811 -26.7699 3.42385 -27.2744 3.09677C-26.2775 3.09677 -25.2686 3.09677 -24.2718 3.09677C-21.1919 3.09334 -18.1187 3.07655 -15.0718 3.04651C-11.4687 2.99865 -10.0875 3.1558 -8.49009 3.30658C-7.39714 3.41108 -6.4123 3.51958 -5.40342 3.62568C-2.14252 3.5768 0.756466 3.45341 2.78769 3.27706C4.88952 3.10714 5.65818 3.09278 8.7929 3.18532L5.65818 3.27068L5.76627 3.32572C7.92815 3.3337 10.102 3.35365 12.2639 3.34806C13.2391 3.33999 14.2285 3.35129 15.107 3.38054C15.9856 3.40979 16.714 3.45567 17.2002 3.5124C17.8343 3.56929 18.5372 3.62265 19.302 3.67195L25.3072 3.35285C29.1265 3.46613 30.4357 3.68072 31.0962 3.91127C32.7777 3.93361 34.1949 3.8315 35.0717 3.84346C38.4947 3.88176 40.8607 3.74455 43.6712 3.67913C45.1956 3.64553 46.825 3.63867 48.4011 3.65922C49.9773 3.67976 51.4467 3.72702 52.667 3.7964C54.0362 3.66477 55.6335 3.5483 58.444 3.61371C59.9933 3.43182 60.9301 3.39513 64.0769 3.30738C65.4461 3.26909 66.4789 3.17495 67.68 3.11272C69.1212 3.04013 70.6946 2.91409 72.1118 2.91887C76.6031 2.9209 80.9886 3.00959 84.7348 3.17415C83.4497 3.31535 82.2366 3.44459 81.1317 3.57303C80.8028 3.60883 80.6283 3.64995 80.6272 3.69189C80.6993 3.77166 80.9755 3.85145 81.2518 3.95675C81.4747 3.97379 81.7602 3.9867 82.0805 3.99424C83.4871 4.01982 84.7974 4.06471 85.9269 4.12599C87.0564 4.18727 87.98 4.26359 88.6382 4.35003C90.2765 4.53645 92.1917 4.7115 94.3551 4.87257C96.505 5.04169 99.1593 5.20842 102.762 5.15018C105.429 5.1071 107.567 5.15976 109.969 5.20124C112.371 5.24272 113.572 5.34324 113.151 5.48923C112.827 5.61527 113.464 5.65516 115.193 5.63681C116.411 5.62331 117.614 5.60466 118.796 5.58097C121.775 5.48503 124.532 5.36147 126.987 5.21401C127.924 5.1446 128.969 5.08077 130.386 4.98664C131.26 5.06529 132.194 5.14092 133.185 5.21321C133.797 5.25469 134.698 5.30734 135.431 5.30574C136.743 5.29395 138.076 5.31313 139.198 5.35992C140.319 5.40672 141.158 5.47817 141.568 5.56183C141.844 5.6057 142.673 5.63601 143.298 5.66872C145.88 5.80274 148.474 5.93597 151.02 6.0676C149.003 6.29336 149.003 6.29336 151.02 6.3867C151.323 6.31396 151.725 6.2432 152.221 6.17529C152.642 6.13062 153.542 6.07238 154.167 6.07477C157.77 6.09232 161.073 6.1721 163.175 6.39388C163.374 6.40865 163.52 6.42623 163.601 6.44529C163.683 6.46436 163.698 6.4844 163.646 6.50392C163.594 6.52343 163.476 6.54191 163.301 6.55795C163.125 6.57399 162.898 6.58717 162.634 6.59651C161.77 6.63879 161.013 6.69144 160.232 6.73931L160.833 6.80312C163.235 6.73372 166.129 6.69623 168.123 6.58933C172.207 6.36835 176.23 6.55742 180.254 6.55104C180.35 6.55104 180.482 6.56061 180.554 6.56779C182.896 6.78877 186.559 6.80712 190.162 6.83983C190.342 6.81749 190.535 6.79594 190.715 6.7744C192.612 6.54146 193.681 6.51354 197.381 6.58294C201.08 6.65235 204.587 6.71378 208.19 6.76882C209.526 6.79278 210.923 6.79806 212.291 6.78433C213.66 6.7706 214.971 6.73815 216.141 6.68905C217.071 6.65661 218.095 6.63758 219.143 6.6332C221.618 6.61565 224.116 6.60688 226.013 6.59731L229.424 6.26384H233.508V6.05085C235.045 6.01894 236.703 6.01654 237.507 5.9607C239.525 5.82109 241.555 5.8179 244.029 5.88093C245.07 5.91781 246.258 5.93231 247.428 5.92241C250.539 5.8554 253.938 5.8179 256.123 5.62644C256.536 5.58103 257.177 5.54676 257.933 5.52968C258.689 5.5126 259.511 5.51382 260.255 5.53311C261.564 5.81711 261.564 5.8171 265.768 5.82588C265.96 5.70621 266.14 5.58655 266.368 5.44535C267.774 5.41822 269.299 5.3903 270.788 5.35839C271.473 5.34324 272.362 5.33207 272.71 5.29776C272.851 5.27977 273.058 5.2644 273.311 5.25305C273.564 5.24169 273.856 5.23471 274.16 5.23273C274.464 5.23075 274.771 5.23384 275.052 5.24171C275.334 5.24959 275.581 5.26199 275.773 5.27782C277.025 5.35759 278.208 5.44202 279.316 5.53071L282.186 5.36239C284.036 5.38313 285.657 5.51156 287.675 5.40706L292.479 5.63203C292.659 5.55225 292.767 5.50359 292.899 5.44057C295.53 5.50119 297.8 5.50598 299.481 5.356C299.481 5.23873 296.923 5.18369 297.884 5.05446C299.085 4.89491 298.46 4.74094 297.127 4.57581C299.109 4.52475 301.042 4.50321 302.46 4.4346C305.943 4.26468 308.045 4.17932 310.867 4.13864C312.052 4.13019 313.21 4.10974 314.302 4.07801C320.33 3.83405 327.141 3.68808 334.179 3.652C336.581 3.64004 338.767 3.58818 340.977 3.68471C341.193 3.69297 341.433 3.69823 341.68 3.70015C341.928 3.70207 342.179 3.70062 342.418 3.69588C345.302 3.62927 348.111 3.5493 350.826 3.45656C356.205 3.24239 362.183 3.1029 368.397 3.04651C371.892 3.01779 372.841 3.06407 373.85 3.29063C374.45 3.42226 374.943 3.55468 375.507 3.6895C378.053 3.66158 379.23 3.56346 380.431 3.45018C381.841 3.31232 383.499 3.1864 385.368 3.07523C388.61 2.89254 388.971 2.90371 392.129 3.11352C392.61 3.14463 393.331 3.16219 393.667 3.19809C395.552 3.4071 399.672 3.51719 399.576 3.81634C400.44 3.81952 401.305 3.81277 402.134 3.7964C404.235 3.72332 406.215 3.63589 408.043 3.53553C408.647 3.49456 409.415 3.46601 410.256 3.45327C411.098 3.44054 411.976 3.44417 412.787 3.46373C413.904 3.48607 414.913 3.53314 416.03 3.55947C417.014 3.57669 418.012 3.58975 419.021 3.59856C418.312 3.46773 417.82 3.372 417.435 3.30897C419.405 3.1574 421.159 3.03853 422.612 2.90451C426.443 2.5527 430.467 2.21685 435.967 1.96715C440.303 1.77011 441.973 1.79085 445.059 2.06847C446.784 2.21217 448.844 2.3366 451.161 2.43703C452.362 2.49127 454.055 2.49048 455.508 2.5168C454.92 2.73938 454.92 2.73938 457.61 2.93882V2.67396C459.844 2.64285 461.898 2.61173 463.964 2.58541C466.03 2.55908 467.951 2.57424 469.128 2.71385C469.594 2.76257 470.228 2.8032 470.978 2.83234C471.728 2.86148 472.572 2.8783 473.44 2.88138L485.258 3.00982C485.558 2.92207 485.847 2.83192 486.171 2.73698L488.237 2.78325C490.471 2.4801 490.471 2.48011 493.774 2.52L496.452 2.17058C500.055 2.18335 500.68 2.38916 502.301 2.55429L511.333 2.4131C511.986 2.48499 512.526 2.56118 512.942 2.64046C513.078 2.70168 513.548 2.75742 514.264 2.79702C514.98 2.83662 515.891 2.85728 516.822 2.85505C517.482 2.85505 518.131 2.86223 518.791 2.86622L518.023 2.92207C520.004 3.02418 522.106 3.11911 524.028 3.2308C526.94 3.39736 529.688 3.57616 532.255 3.76608C532.913 3.81907 533.731 3.86233 534.655 3.8931C535.58 3.92387 536.591 3.94148 537.624 3.94478C538.548 3.94478 539.617 3.78523 540.446 3.68791C540.689 3.64018 540.795 3.58985 540.758 3.53953C543.653 3.45975 546.079 3.51719 548.445 3.60574C549.193 3.64187 550.049 3.6669 550.955 3.67913C554.258 3.68871 557.573 3.67913 560.876 3.68791C562.557 3.68791 564.239 3.70784 566.172 3.72061C565.968 3.77964 565.872 3.81156 565.728 3.84426C565.447 3.90413 565.504 3.96876 565.888 4.02604C566.273 4.08331 566.959 4.12931 567.818 4.15539C569.415 4.21841 570.76 4.20165 572.274 4.09954C573.475 4.01976 575.228 3.91765 577.246 3.99185C580.273 4.10193 583.528 4.20246 585.966 4.35722C588.404 4.51199 590.482 4.55506 593.436 4.50959C593.953 4.50241 594.493 4.50321 595.021 4.49603C596.451 4.47688 597.183 4.51756 597.64 4.60771C598.42 4.75928 599.742 4.80636 601.651 4.7553C603.045 4.71871 604.398 4.67552 605.699 4.62606C609.229 4.4885 613.212 4.41043 617.301 4.3987C619.415 4.39152 620.315 4.46173 621.048 4.56703C622.081 4.51278 622.922 4.4697 623.738 4.42503C624.555 4.38035 625.336 4.33169 626.141 4.28782C628.771 4.14741 630.945 4.15778 633.046 4.32291C633.489 4.36198 633.89 4.40303 634.247 4.44577C636.554 4.45614 638.703 4.45455 640.781 4.47768C641.483 4.48798 642.209 4.48796 642.911 4.47762C643.612 4.46729 644.271 4.44689 644.841 4.41785C646.774 4.32771 647.135 4.34685 648.444 4.48646C649.437 4.58077 650.503 4.67157 651.639 4.75848L650.87 4.89251C652.287 4.89889 653.584 4.9308 654.473 4.90368C656.124 4.84016 657.684 4.76673 659.133 4.6843L663.565 4.82869C664.154 4.77125 664.694 4.71541 665.487 4.63564L669.822 4.90846C669.618 4.77364 669.474 4.68589 669.342 4.58936C671.444 4.47768 673.726 4.49045 676.056 4.55666C678.587 4.62768 681.307 4.66403 684.055 4.66356C684.455 4.66196 684.856 4.66196 685.256 4.66356C686.239 4.67633 687.259 4.66576 688.137 4.63368C689.015 4.6016 689.696 4.55006 690.06 4.48804C690.39 4.4494 690.794 4.41374 691.261 4.38195L698.203 4.6101C699.164 4.49204 700.089 4.37557 701.47 4.20245C702.034 4.34764 702.359 4.43141 702.671 4.51518C706.478 4.43061 706.754 4.13624 710.021 4.01976L707.247 3.99185C708.58 3.89532 709.649 3.88335 711.15 3.96552C713.722 4.10677 716.815 4.19985 720.11 4.23516C722.089 4.246 724.037 4.27471 725.899 4.32052C726.666 4.34378 727.5 4.35583 728.343 4.35583C729.186 4.35583 730.02 4.34378 730.787 4.32052C731.892 4.29659 733.009 4.27745 734.09 4.25591C734.907 4.35323 735.639 4.44098 736.432 4.53432L738.162 4.44258L740.564 4.54709C743.698 4.30776 742.557 4.07401 740.48 3.84107C741.969 3.794 743.302 3.75491 744.575 3.71024C746.569 3.64083 748.37 3.64083 749.908 3.76289C750.092 3.78131 750.335 3.79679 750.62 3.8082C750.904 3.81962 751.224 3.82668 751.555 3.8289C751.886 3.83111 752.22 3.82841 752.533 3.821C752.847 3.81358 753.131 3.80164 753.367 3.78603C754.039 3.39912 756.045 3.33051 761.546 3.48288C763.261 3.52088 765.04 3.54473 766.843 3.55388C768.524 3.57063 770.253 3.57063 771.31 3.68312C772.067 3.76289 773.196 3.7629 774.493 3.74854C775.393 3.7372 776.32 3.73911 777.208 3.75412C779.516 3.7925 781.793 3.83884 784.029 3.89292C787.128 3.9727 789.338 3.90569 791.332 3.74055C794.731 3.45895 795.079 3.45895 799.967 3.581L807.318 3.42145C807.81 3.52356 808.134 3.59217 808.519 3.66078C812.266 3.42145 809.648 3.17256 809.251 2.92207C811.257 2.9093 813.383 2.92844 813.143 2.73778C812.902 2.54712 813.011 2.53994 815.893 2.56786C816.417 2.57026 816.943 2.57026 817.466 2.56786C815.125 2.43862 816.746 2.30939 817.19 2.17776C821.19 2.1283 822.523 2.33731 824.553 2.48968C825.137 2.46655 825.688 2.43984 826.198 2.40991C828.6 2.25036 828.516 2.25036 831.495 2.33013C833.439 2.38259 835.448 2.4237 837.5 2.45299C842.764 2.51031 847.849 2.62514 852.549 2.79282C852.942 2.81287 853.391 2.82747 853.87 2.83574C854.35 2.844 854.849 2.84576 855.339 2.84092C855.829 2.83608 856.299 2.82474 856.721 2.80757C857.144 2.79039 857.51 2.76775 857.797 2.74098C858.587 2.69418 859.318 2.64322 859.983 2.5886C860.133 2.56798 860.343 2.54954 860.601 2.53434C860.859 2.51915 861.16 2.50749 861.486 2.50007C861.812 2.49265 862.157 2.48961 862.501 2.49111C862.846 2.49262 863.182 2.49864 863.49 2.50883C863.827 2.5886 863.827 2.67795 864.319 2.69231C865.748 2.73459 867.622 2.78964 868.883 2.76012C870.408 2.72342 870.925 2.7314 871.513 2.81836C871.874 2.8726 872.306 2.92446 872.642 2.96753C875.141 2.97152 875.837 2.87659 876.245 2.75135C876.558 2.64285 877.242 2.54632 879.212 2.53675C884.737 2.51042 890.19 2.41947 895.81 2.50404C899.75 2.56227 903.677 2.65003 907.821 2.61094C908.731 2.61092 909.636 2.61924 910.511 2.63567C911.112 2.92126 911.472 2.93163 915.315 2.8367C917.105 2.79123 919.075 2.73858 921.08 2.87659C920.167 2.9795 919.255 3.08241 918.246 3.19569C921.645 3.28344 925.584 3.21005 927.998 3.42544L926.629 3.57702C927.974 3.72939 931.253 3.94717 932.634 3.95515C933.295 3.95515 934.016 3.91846 934.772 3.89612C932.13 3.69189 932.106 3.53633 934.388 3.33769C935.685 3.22361 936.79 3.10315 936.045 2.94839C935.926 2.92238 935.926 2.89462 936.045 2.86861C936.184 2.80017 936.527 2.73426 937.054 2.67476C938.831 2.52082 939.973 2.33881 940.369 2.14664C941.198 1.84829 943.432 1.77569 947.828 1.8778C948.955 1.90038 950.102 1.9185 951.262 1.93205C955.514 1.99827 959.67 2.07166 963.201 2.26392C965.711 2.40193 968.365 2.54074 971.608 2.58302C973.662 2.60775 973.506 2.71465 973.842 2.79681C975.644 2.76012 977.133 2.70427 978.646 2.70427C981.44 2.69884 984.123 2.63017 986.249 2.50963C988.363 2.40592 990.464 2.31098 993.455 2.33651C994.917 2.33764 996.357 2.31344 997.635 2.26631C998.415 2.2417 999.281 2.23152 1000.14 2.23686C1001 2.24219 1001.82 2.26284 1002.52 2.29662C1003.99 2.35326 1005.49 2.40671 1007.04 2.45617C1008.59 2.50563 1009.44 2.63248 1011.57 2.56706C1011.99 2.60082 1012.32 2.63915 1012.54 2.68035C1012.62 2.72164 1012.62 2.7635 1012.54 2.80479H1013.34C1013.51 2.72501 1013.68 2.64524 1013.9 2.54472H1019.72C1021.02 2.54472 1022.32 2.55749 1023.6 2.55111C1025.31 2.54234 1026.98 2.52079 1028.67 2.50483C1028.41 2.33013 1030.82 2.39794 1031.92 2.34528C1033.03 2.29263 1034.27 2.26551 1035.26 2.21765C1036.01 2.17935 1037.05 2.10755 1036.92 2.06607C1036.39 1.90652 1038.6 1.84669 1038.95 1.72782C1039.36 1.7358 1039.55 1.73581 1039.6 1.74059C1039.73 1.75371 1039.81 1.76835 1039.85 1.78367C1039.85 1.79006 1039.68 1.79882 1039.68 1.8068C1039.68 1.81478 1039.82 1.81957 1039.89 1.82675C1042.22 1.78446 1042.17 1.78367 1042.85 1.61773C1042.99 1.58423 1043.54 1.55711 1044.32 1.49249V1.72145C1045.52 1.66241 1046.72 1.63449 1046.99 1.58424C1047.19 1.51257 1047.19 1.4389 1046.99 1.36724C1048.75 1.40633 1050.34 1.47095 1051.95 1.47175C1054.82 1.47751 1057.7 1.45601 1060.49 1.40793C1063.45 1.35129 1066.09 1.19573 1069.42 1.33374C1069.57 1.34012 1069.91 1.32576 1070.17 1.31938C1073.53 1.21966 1076.89 1.11755 1080.27 1.02102C1081.47 0.987512 1082.67 0.967568 1083.87 0.941243C1084.06 0.934564 1084.23 0.925951 1084.37 0.915719L1082.6 0.849499L1085.98 0.79366L1088.48 1.19254L1091.95 1.06091C1093.96 1.08244 1093.89 1.30821 1096.28 1.25875C1098.17 1.20719 1099.99 1.14388 1101.7 1.06968C1105.79 1.3449 1106.15 1.73262 1107.94 2.13069C1109.86 2.01981 1111.19 1.89935 1112.96 1.85388C1114.72 1.8084 1116.98 1.83792 1118.84 1.83473L1121.37 1.59939L1123.11 1.8451L1128.52 1.81079L1133.03 1.57147C1133.11 1.64292 1133.48 1.71163 1134.09 1.77053C1134.7 1.82942 1135.54 1.87636 1136.52 1.90652C1137.84 1.83871 1138.31 1.69592 1140.73 1.77808C1141.52 1.80521 1143.13 1.73262 1144.4 1.7039C1143.99 1.60258 1143.63 1.51244 1143.32 1.43266C1143.92 1.37987 1144.76 1.34148 1145.72 1.32334C1146.67 1.3052 1147.69 1.30829 1148.62 1.33214C1149.63 1.36006 1150.16 1.46457 1151.1 1.55472C1151.45 1.33454 1153.88 1.34252 1156.16 1.33614C1156.63 1.33614 1157.36 1.35369 1157.54 1.33614C1160.28 1.10638 1162.91 1.25636 1165.6 1.33614C1166.39 1.36721 1167.29 1.3845 1168.21 1.38639C1171.1 1.36964 1174.14 1.36884 1176.83 1.30662C1179.52 1.24439 1181.3 1.25636 1183.14 1.38639L1185.93 1.25795C1189.15 1.38958 1191.94 1.52201 1193.28 1.75814C1191.48 2.07086 1191.63 2.1291 1194.57 2.22244C1194.41 2.17298 1194.28 2.1307 1194.13 2.08363C1198.62 2.1307 1202.02 2.00385 1205.55 1.82117C1205.79 1.85068 1205.88 1.88339 1206.17 1.89376C1208.02 1.95918 1210.15 2.09 1211.71 2.06527C1213.62 2.03102 1215.65 2.04087 1217.46 2.0932C1218.34 1.92408 1219.49 1.78367 1222.39 1.74458C1223.15 1.73421 1223.74 1.6648 1224.44 1.62811C1225.65 1.55279 1226.91 1.4817 1228.23 1.41511C1229.86 1.33534 1231.67 1.28188 1233.32 1.20929C1235.72 1.10319 1236.76 1.10718 1238.71 1.25077C1240.65 1.39437 1242.5 1.54115 1244.4 1.68714C1248.28 1.66241 1247.9 1.9855 1250.9 2.03815C1251.85 2.0657 1252.77 2.09824 1253.65 2.13547C1255.98 2.1953 1258.26 2.26485 1260.46 2.3437C1261.96 2.40672 1263.02 2.43703 1264.77 2.38199C1265.73 2.34655 1266.81 2.32915 1267.91 2.33168C1269 2.33421 1270.06 2.35657 1270.98 2.39634C1270.98 2.4482 1270.87 2.50564 1270.81 2.56068C1272.79 2.61573 1274.92 2.5862 1275.76 2.50404C1277.41 2.34449 1279.36 2.35566 1281.67 2.37082C1283.63 2.38438 1285.58 2.38996 1287.82 2.40033C1289.49 2.24637 1291.15 2.08123 1293.06 1.92168C1293.56 1.8802 1295.25 1.84589 1295.69 1.86823C1298.58 2.0198 1302.42 2.08203 1304.69 2.29184C1305.21 2.33971 1306.01 2.4115 1306.64 2.40911C1309.29 2.40033 1312.21 2.46814 1314.6 2.31577C1314.43 2.26551 1314.25 2.21685 1314.04 2.15622C1316.44 2.15622 1317.3 2.08841 1317.17 1.92726C1317.1 1.84749 1317.9 1.70709 1318.83 1.68395C1321.82 1.60817 1325.15 1.51642 1328.17 1.53796C1332.53 1.56827 1336.58 1.48212 1340.74 1.46377C1343.5 1.45181 1345.7 1.44064 1347.02 1.65524C1348.29 1.55392 1349.3 1.54514 1350.55 1.6289C1351.86 1.7238 1353.41 1.80218 1355.14 1.86025C1356.83 1.90892 1358.58 1.92567 1359.94 2.02938C1360.12 2.04514 1360.35 2.05827 1360.6 2.06794C1360.86 2.07761 1361.15 2.08362 1361.45 2.08557C1361.74 2.08752 1362.04 2.08537 1362.32 2.07927C1362.61 2.07317 1362.87 2.06324 1363.09 2.05012C1364.66 1.96157 1366.28 2.01821 1367.64 2.09718C1370.23 2.24796 1370.57 2.24317 1373.74 2.1283C1377.34 1.99826 1380.95 1.85945 1385.07 1.83552C1388.75 1.81398 1392.41 1.80042 1395.74 1.66879L1398.47 1.86345C1400.24 1.67279 1400.64 1.64964 1401.81 1.68714C1402.23 1.75335 1402.67 1.82436 1403.08 1.89057C1406.54 1.89057 1407.06 1.93285 1406.15 2.11713L1410.1 2.35645C1410.01 2.30007 1410.26 2.24367 1410.78 2.19906C1411.31 2.15444 1412.07 2.12508 1412.92 2.11713C1414.35 2.30779 1415.44 2.5208 1418.71 2.64126C1423.21 2.31258 1427.79 2.56148 1432.24 2.60855C1435.09 2.51042 1438.15 2.63248 1440.65 2.5902C1442.62 2.48729 1444.41 2.40192 1446.06 2.3046C1448.06 2.18494 1449.38 2.16818 1451.06 2.3046C1453.47 2.49526 1457.6 2.58301 1458.52 2.86302C1458.52 2.87738 1458.88 2.88776 1459.1 2.89813L1463.22 3.09837C1464.25 3.02743 1465.11 2.94678 1465.79 2.85904C1467.24 2.58142 1468.41 2.53994 1472.62 2.63248C1472.76 2.95158 1473 2.96674 1477.81 3.03694C1479.65 3.06406 1481.57 3.06964 1483.07 3.17335C1483.82 3.2252 1485.05 3.20366 1486.29 3.1925C1488.52 3.17335 1491.61 3.12549 1492.96 3.30498C1494.78 3.55149 1498.27 3.55308 1500.63 3.61052C1502.72 3.53872 1504.11 3.45975 1505.65 3.44539C1507.37 3.42943 1508.43 3.52516 1508.93 3.64482C1509.11 3.59935 1509.28 3.55389 1509.48 3.50044L1516.53 3.52596L1523.92 2.96753C1530.08 3.12708 1531.95 3.22999 1535.49 3.5459C1536.38 3.6093 1537.36 3.66651 1538.43 3.71662C1538.97 3.55707 1539.41 3.42943 1539.85 3.30338C1540.85 3.38316 1541.66 3.44858 1542.54 3.52038L1544.94 3.28664C1546.14 3.32253 1547.27 3.38715 1548 3.37199C1552.02 3.28583 1553.14 3.48926 1554.93 3.64403C1557.08 3.8315 1559.55 3.99105 1563.34 4.0429C1566.83 4.0795 1570.36 4.09393 1573.89 4.08598C1576.65 4.08598 1579.4 4.07003 1582.12 4.08598C1584.85 4.10194 1586.17 4.00621 1586.31 3.84666C1587.32 3.82398 1588.4 3.82094 1589.43 3.83791C1590.45 3.85489 1591.39 3.89115 1592.11 3.94238C1593.32 4.02216 1593.82 4.16257 1594.71 4.28782C1595.23 4.25847 1595.69 4.22497 1596.08 4.1881C1596.98 4.07482 1598.18 4.06843 1599.68 4.12906C1600.35 4.15872 1601.04 4.18537 1601.76 4.20883C1602.57 4.23053 1603.46 4.23449 1604.3 4.22014C1605.14 4.20578 1605.89 4.17386 1606.44 4.12906C1608.71 3.96951 1610.33 3.89851 1612.24 3.97749C1615.41 4.10752 1618.01 4.03653 1620.8 3.9384C1621.96 3.90728 1623.17 3.88351 1624.4 3.8674C1622.93 4.12747 1627.03 4.27745 1625.7 4.5056C1626.79 4.31494 1628.47 4.23198 1631.46 4.28782C1632.23 4.30297 1633.2 4.26627 1634.33 4.24872C1635.22 4.48086 1639 4.35482 1640.8 4.47209C1640.73 4.55187 1640.66 4.63165 1640.53 4.78402C1642.17 4.63085 1643.23 4.6476 1644.59 4.71222C1646.67 4.81194 1649.24 4.81592 1651.7 4.80715C1653.03 4.79728 1654.34 4.78048 1655.63 4.7569V4.60213L1660.5 4.6819C1660.81 4.62287 1660.99 4.59017 1661.16 4.55746L1661.02 4.56862C1661.77 4.5391 1663.23 4.50081 1663.17 4.48087C1662.94 4.40109 1663.37 4.34924 1664.45 4.3636C1665.11 4.37238 1665.73 4.4354 1666.15 4.48246C1666.41 4.52574 1666.57 4.57151 1666.62 4.61808L1669.97 4.59973L1671.74 4.7545L1668 4.6835L1671.06 5.14301C1673.68 4.99383 1676.44 4.88374 1678.18 4.72339C1680.5 4.50959 1683.18 4.5423 1686.2 4.58618C1687.62 4.60692 1689.18 4.64839 1690.48 4.62765C1694.37 4.56782 1698.08 4.62765 1701.85 4.65876C1704.26 4.67951 1704.69 4.72338 1704.59 4.88692C1704.5 5.05046 1704.59 5.19805 1704.59 5.34484C1707.16 5.37914 1708.86 5.35999 1709.83 5.19167C1710.26 5.11189 1711.73 5.0752 1713.43 5.072C1717.18 5.07771 1720.84 4.99959 1723.83 4.85023C1724.93 4.80883 1726.19 4.79125 1727.44 4.79997C1730.57 4.79997 1733.72 4.82151 1736.7 4.83268C1737.52 4.74393 1738.21 4.64984 1738.75 4.55187C1739.35 4.39232 1740.52 4.30616 1743.1 4.29898C1743.87 4.29898 1744.65 4.24553 1745.34 4.20883C1746.46 4.1506 1747.52 4.08599 1748.69 4.01818L1751.4 4.22878C1754.24 4.22878 1756.48 4.22878 1758.71 4.22878C1760.27 4.22894 1761.83 4.22308 1763.38 4.21123C1765.07 4.19659 1766.73 4.1742 1768.37 4.14422C1769.71 4.11869 1770.96 4.07401 1772.27 4.03971C1773.58 4.0054 1774.84 3.94079 1775.78 3.95993C1778.83 4.02548 1782.11 4.03075 1785.21 3.9751C1786.1 3.95523 1787.07 3.95692 1787.94 3.97988C1790.09 4.07242 1791.55 4.01498 1793.23 3.92164C1793.98 3.88612 1794.78 3.85641 1795.63 3.83309L1800.44 4.15699C1801.82 4.10705 1803.26 4.06257 1804.72 4.02376C1805.7 4.00047 1806.75 3.99308 1807.79 4.00222C1810.92 4.03971 1813.26 3.98706 1814.88 3.82033C1815.51 3.75571 1816.08 3.6879 1816.64 3.62169C1820.24 3.67195 1822.89 3.87219 1826.41 3.81714C1826.77 3.69429 1827.11 3.5834 1827.42 3.4773L1831.37 3.67674C1831.69 3.59696 1831.84 3.55548 1832.05 3.50442C1832.73 3.5124 1833.25 3.51639 1833.72 3.52516C1835.35 3.55308 1838.24 3.48368 1838.28 3.39673C1838.36 3.24834 1839.88 3.20446 1841.41 3.15261C1844.01 3.06486 1846.53 2.96593 1849.22 2.89334C1850.35 2.86797 1851.34 2.82161 1852.08 2.75978C1852.82 2.69795 1853.27 2.62329 1853.39 2.54472C1853.49 2.51078 1853.61 2.47722 1853.76 2.4442L1858.35 2.61812V2.29902C1861.35 2.36284 1863.15 2.18973 1865.81 2.14904L1864.85 2.25355C1866.96 2.27908 1869.04 2.35645 1871.27 2.27748C1871.5 2.2695 1871.99 2.30381 1872.35 2.30381C1877.49 2.30381 1882.65 2.40272 1887.75 2.29503C1889.66 2.25514 1890.74 2.31019 1891.49 2.44979C1892.39 2.30221 1893.54 2.23839 1895.67 2.29024C1896.24 2.3054 1897.18 2.27669 1897.83 2.25355C1899.93 2.17856 1901.97 2.094 1904.04 2.01422C1906.63 1.91371 1909.32 1.86903 1912 1.97034L1914.19 1.75416L1922.49 1.95359C1924.07 1.7031 1924.89 1.45101 1928.49 1.31539L1931.04 1.42069C1931.68 1.37118 1932.4 1.32674 1933.2 1.28826C1936.18 1.17817 1939.2 1.07287 1942.25 0.969162C1942.58 0.957152 1942.94 0.949684 1943.31 0.947212C1943.68 0.94474 1944.05 0.947317 1944.41 0.954788C1944.76 0.96226 1945.09 0.974473 1945.37 0.990664C1945.65 1.00685 1945.88 1.02668 1946.04 1.04894C1946.91 1.12871 1947.85 1.20849 1949.02 1.31539C1951.26 1.10479 1955.02 1.21488 1957.66 1.07607L1953.84 0.782491C1956.01 0.688356 1957.27 0.476151 1960.61 0.619746V0.621343Z" fill="#22333B"/>
</svg>
