<svg width="1920" height="148" viewBox="0 0 1920 148" fill="none" xmlns="http://www.w3.org/2000/svg">
<path fill-rule="evenodd" clip-rule="evenodd" d="M181.239 111.562L181.815 111.895L182.896 110.785L182.307 110.452L181.239 111.562ZM1401.78 21.6628L1402.16 21.191L1400.02 20.1827L1399.63 20.6452L1401.78 21.6628ZM1467.55 25.7051C1469.41 26.9169 1469.4 26.9077 1471.25 25.1594L1467.55 25.7051ZM77.8408 142.967L74.2377 145.076C76.7959 144.715 76.7959 144.715 77.8408 142.967ZM1325.83 15.6686L1328.56 14.7435C1326.86 13.5595 1326.15 14.2903 1325.83 15.6686ZM1960.89 1.53402L1960.61 121.293C1959.98 121.136 1958.74 67.9469 1958.74 120.877C1958.74 38.0131 1953.94 120.877 1951.69 119.434C1949.29 117.88 1946.96 117.806 1945.38 119.203C1944.56 119.904 1943.56 120.468 1942.45 120.861C1941.33 121.254 1940.13 121.467 1938.9 121.488C1937.64 121.613 1936.45 122.014 1935.47 122.644C1934.95 122.986 1935.13 123.958 1934.93 124.633C1934.93 124.781 1934.56 124.882 1934.14 125.142C1930.09 123.967 1927.03 124.679 1924.03 127.639C1920.43 131.136 1917.4 131.228 1912.8 129.276L1905.96 133.467L1903.83 130.516C1901.43 130.609 1900.82 131.737 1900.36 133.097C1899.45 135.872 1897.96 136.501 1894.36 135.937C1892.96 135.635 1891.52 135.507 1890.07 135.557C1888.12 135.854 1886.1 135.625 1884.35 134.91C1884.03 134.736 1883.67 134.614 1883.29 134.55C1882.9 134.486 1882.51 134.482 1882.12 134.538C1881.74 134.594 1881.37 134.709 1881.04 134.876C1880.72 135.043 1880.44 135.259 1880.22 135.511C1878.29 137.435 1875.67 137.768 1872.57 136.575V133.097C1868.8 132.588 1867.44 135.132 1865.14 136.159C1862.52 134.975 1861.32 131.987 1857.18 133.273C1857.04 133.596 1857 134.41 1856.51 134.642C1853.61 136.038 1850.6 137.315 1847.62 138.61C1845.98 139.322 1844.79 139.202 1843.65 137.815C1842.13 136.176 1840.49 134.606 1838.74 133.115C1837.99 136.538 1835.83 137.944 1832.09 138.027C1831.31 138.027 1830.58 138.777 1829.76 139.082C1826.85 140.183 1823.76 141.024 1820.77 139.452C1817.78 137.879 1814.22 138.24 1810.87 138.101C1809.2 138.036 1807.52 138.101 1805.11 138.175L1801.5 140.553C1800.3 141.376 1798.8 141.737 1797.52 140.895C1795.1 139.496 1792.92 137.874 1791.02 136.066C1789.52 134.485 1787.58 133.185 1785.34 132.264L1781.27 133.754C1778.86 131.043 1778.01 131.043 1775.26 133.328C1774.67 133.838 1773.9 134.207 1773.04 134.392C1771.26 134.72 1769.45 134.903 1767.62 134.938C1766.64 134.9 1765.65 135.03 1764.74 135.319C1763.82 135.609 1763 136.05 1762.34 136.612C1761.62 137.244 1760.67 137.682 1759.6 137.862C1758.54 138.042 1757.43 137.954 1756.44 137.611C1756.62 136.14 1756.44 134.966 1754.12 134.568C1753.28 134.42 1751.96 133.643 1752.01 133.143C1752.14 131.83 1750.96 131.876 1750.06 131.774C1748.83 131.703 1747.6 131.703 1746.36 131.774C1746.36 131.108 1746.36 130.516 1746.36 129.924C1746.15 127.963 1744.38 127.241 1742.34 128.351C1741.04 129.166 1739.81 130.047 1738.67 130.988C1736.47 130.303 1734.28 129.313 1733.72 127.463C1733.29 125.974 1732.1 125.206 1730.94 124.263C1729.31 122.912 1727.7 121.562 1726.72 120.729L1719.11 118.324C1716.99 117.649 1715.19 116.798 1712.44 117.02C1708.95 117.306 1704.45 117.88 1702.98 113.606C1701.37 114.226 1700.05 114.661 1698.83 115.207C1697.34 115.873 1695.97 116.687 1694.47 117.325C1693.51 117.842 1692.38 118.14 1691.21 118.185C1690.23 118.083 1689.36 117.214 1688.08 116.465L1682.39 119.952C1681.87 119.092 1681.58 118.555 1681.18 118.037C1680.79 117.519 1680.48 117.057 1679.98 116.456C1679.63 116.721 1679.3 117.002 1678.99 117.297C1676.31 120.6 1675.85 120.711 1670.94 119.712C1668.57 119.203 1666.16 118.808 1663.73 118.528C1662.69 118.446 1661.65 118.685 1660.84 119.194C1658.77 120.701 1656.56 120.646 1654.16 119.961C1653.96 119.897 1653.84 119.684 1653.75 119.619C1653.94 118.694 1654.11 117.908 1654.42 116.437L1647.86 118.426C1646.65 116.835 1645.08 115.697 1642.25 116.409C1639.68 117.048 1636.89 117.196 1634.33 117.871C1631.77 118.546 1629.43 119.647 1627.01 117.76C1626.84 117.63 1626.27 117.871 1625.9 117.852C1623.59 117.751 1621.31 117.621 1618.95 117.51C1618.5 117.958 1618.1 118.432 1617.74 118.925C1617.43 119.571 1617.16 120.229 1616.94 120.896C1614.39 121.405 1611.98 122.487 1609.05 121.469C1606.12 120.452 1602.74 119.434 1599.21 120.646C1598.53 120.877 1597.47 120.489 1596.59 120.387C1594.38 121.571 1592.14 122.801 1589.87 123.994C1588.31 124.809 1587.19 124.29 1586.11 123.282C1584.91 122.117 1583.44 121.062 1582.13 119.924C1581.53 119.397 1580.67 118.851 1580.51 118.232C1580.08 116.474 1578.42 115.725 1576.39 114.8C1575.59 115.722 1574.94 116.724 1574.48 117.778C1574.32 118.398 1575.17 119.184 1575.55 119.878C1573.05 121.599 1570.94 122.228 1568.75 121.913C1567.55 121.737 1566.8 121.358 1567.27 120.239C1567.36 120.017 1566.94 119.665 1566.76 119.379C1566.67 119.981 1566.31 120.541 1565.74 120.961C1565.18 121.382 1564.44 121.636 1563.65 121.682C1561.62 122.043 1559.91 123.356 1557.95 124.032C1556.87 124.365 1555.68 124.44 1554.55 124.244C1553.24 124.023 1552.01 123.588 1550.94 122.968C1549.96 122.314 1548.74 121.914 1547.44 121.824C1546.15 121.734 1544.85 121.96 1543.74 122.468C1542 123.171 1540.25 123.532 1538.61 122.218C1538.69 121.367 1538.78 120.498 1538.85 119.582H1535.71C1536.34 116.853 1533.06 116.751 1531.27 115.216C1530.32 117.306 1525.89 115.947 1525.9 119.157L1531.61 119.712C1531.49 120.868 1531.38 121.867 1531.25 123.125L1524.18 125.216C1525.25 127.5 1525.04 127.843 1521.35 129.323C1521.07 127.177 1519.5 126.945 1517.18 127.547C1515.8 127.805 1514.39 127.975 1512.97 128.056C1511.95 125.28 1509.36 123.606 1506.62 121.478C1506.08 122.829 1505.74 123.735 1505.35 124.679C1504.15 124.614 1503.29 124.522 1502.37 124.522C1499.38 124.522 1496.49 124.383 1493.89 126.178C1492.69 127.029 1490.35 127.103 1488.49 127.223C1486.68 127.194 1484.87 127.092 1483.07 126.918C1478.76 126.825 1474.42 126.992 1470.12 126.686C1469.2 126.639 1468.31 126.451 1467.48 126.133C1466.66 125.815 1465.92 125.375 1465.32 124.836C1463.7 122.885 1461.59 122.681 1459.11 122.7L1461.51 120.202C1460.43 119.628 1459.4 118.583 1457.07 119.194C1457.81 120.415 1458.5 121.543 1459.17 122.662C1455.02 126.363 1450.24 125.169 1445.31 123.588C1444.45 123.995 1443.51 124.374 1442.66 124.846C1440.03 126.298 1437.41 126.316 1435.11 124.559C1433.3 123.171 1431.44 122.903 1429.36 123.847L1427.97 122.2C1427.7 122.326 1427.44 122.465 1427.2 122.616C1427.01 122.746 1426.86 122.931 1426.68 123.069C1424.38 124.919 1423.3 125.179 1420.43 124.096C1419.54 123.684 1418.71 123.201 1417.95 122.653C1415.45 121.108 1413.15 120.082 1409.68 121.608C1403.33 124.383 1396.1 125.021 1389.01 125.817C1385.81 126.168 1384.09 125.169 1383.15 122.718C1382.81 121.858 1382.84 120.868 1382.59 120.026C1381.93 117.686 1381.73 115.188 1379.11 113.283C1375.94 115.068 1372.86 116.789 1369.99 113.421C1368.35 114.346 1367.72 115.678 1365.45 115.891C1364.12 116.011 1363.05 117.658 1361.85 118.666C1361.77 118.74 1361.66 118.833 1361.54 118.842C1358.97 119.046 1357.94 120.479 1356.66 122.006C1356.17 122.747 1355.36 123.336 1354.37 123.673C1353.39 124.01 1352.28 124.074 1351.23 123.856C1348.42 123.31 1345.58 122.838 1342.39 122.274C1343.33 120.197 1344.11 118.077 1344.71 115.928C1345.01 113.731 1345.14 111.523 1345.11 109.314C1343.39 108.898 1341.51 107.464 1339.27 109.314C1338.73 109.74 1336.2 109.508 1335.67 108.963C1334.3 107.51 1332.23 106.613 1331.3 104.726C1329.49 101.119 1327.42 100.425 1322.67 100.813C1322.01 102.118 1321.34 103.44 1320.27 105.438C1319.39 103.82 1318.91 102.931 1318.17 101.535C1317.83 102.543 1317.68 103.042 1317.57 103.385L1308.15 105.115L1305.39 101.414L1302.18 103.561L1295.2 100.156C1294.18 101.081 1293.21 102.821 1292.08 102.876C1288.92 103.052 1287.63 104.726 1286.49 106.345C1285.01 108.417 1283.06 108.602 1280.34 108.195C1280.07 106.475 1279.82 104.791 1279.56 103.135C1278.04 103.246 1276.36 103.783 1275.65 103.348C1273.25 101.886 1270.85 102.756 1268.83 102.784C1267.94 104.338 1267.17 105.679 1266.66 106.604L1259.52 105.438C1259.35 106.909 1259.23 107.973 1259.04 109.684C1258.02 108.685 1257.53 108.195 1256.87 107.529C1255.98 108.806 1255.04 110.119 1254.15 111.451C1253.05 113.116 1252.57 113.301 1250.49 112.496C1249.9 112.274 1249.37 111.941 1248.78 111.719C1245.18 110.304 1241.7 109.379 1237.65 111.405C1235.53 112.469 1232.49 113.606 1229.88 111.849C1227.52 110.229 1224.43 109.392 1221.27 109.518C1221.14 113.597 1215.5 116.104 1210.2 114.448C1210.2 111.812 1210.2 111.812 1207.79 109.823C1206.06 110.45 1204.43 111.222 1202.92 112.126C1201.59 113.332 1200.43 114.64 1199.45 116.03L1196.66 114.79C1195.24 115.234 1193.95 116.048 1192.78 115.947C1188.59 115.567 1184.22 116.067 1180.22 114.531C1179.86 114.427 1179.48 114.386 1179.1 114.411C1178.72 114.437 1178.35 114.529 1178.02 114.68C1174.31 116.752 1170.12 118.287 1167.32 121.312C1166.97 121.756 1166.51 122.137 1165.95 122.428C1165.4 122.718 1164.77 122.912 1164.1 122.995C1163.44 123.078 1162.76 123.048 1162.12 122.907C1161.47 122.767 1160.87 122.519 1160.36 122.181C1157.43 120.174 1154.65 118.037 1151.78 115.965C1151.21 115.558 1150.58 115.17 1149.77 114.633C1148.16 116.53 1146.66 118.333 1145.05 120.23L1142.61 120.368C1142.52 121.293 1142.43 122.061 1142.31 123.06C1141.39 122.468 1140.7 122.043 1140.29 121.793C1138.88 122.32 1137.46 123.338 1136.5 123.125C1135.31 122.851 1134.2 122.393 1133.25 121.779C1132.29 121.165 1131.51 120.408 1130.95 119.555C1129.98 120.332 1129.27 120.877 1128.55 121.405C1127.83 121.932 1127.5 122.663 1126.77 122.931C1123.57 124.095 1121.08 126.157 1119.79 128.694C1118.3 131.469 1115.84 133.319 1113.07 135.169C1109.96 137.297 1106.76 137.944 1103 136.557C1102.83 135.446 1102.67 134.383 1102.45 132.967L1099.62 134.17L1101.77 136.714C1101.15 137.155 1100.48 137.546 1099.76 137.879C1096.45 139.203 1093.31 140.77 1090.39 142.56C1089.76 143.154 1088.93 143.607 1088 143.873C1087.06 144.138 1086.05 144.205 1085.07 144.068C1082.46 143.924 1079.96 143.201 1077.86 141.987C1078.97 138.222 1078.97 138.222 1078.12 136.575C1077.9 136.899 1077.54 137.204 1077.62 137.389C1077.92 138.148 1078.09 139.017 1076.87 139.054C1076.38 139.004 1075.92 138.877 1075.51 138.679C1075.09 138.481 1074.74 138.218 1074.47 137.907C1074.09 137.255 1073.92 136.546 1073.96 135.835C1073.85 134.753 1073.83 133.661 1073.76 132.431C1070.9 132.764 1068.28 132.847 1067.55 130.294C1066.59 126.918 1063.2 124.818 1060.94 122.135C1055.72 124.596 1050.13 123.8 1047.02 120.285C1045.15 119.924 1043.3 119.693 1041.57 119.212C1037.23 118.01 1036.86 118.093 1033.55 120.877C1032.12 122.08 1030.62 123.319 1028.24 123.31C1027.7 123.31 1026.84 123.227 1026.68 122.968C1025.54 121.266 1023.88 121.904 1022.32 122.126C1021.88 125.761 1021.46 129.249 1021.04 132.819C1018.64 132.671 1016.32 132.459 1013.98 132.403C1013.18 132.421 1012.4 132.243 1011.74 131.896C1011.08 131.548 1010.58 131.049 1010.32 130.47C1008.16 126.918 1008.11 126.936 1002.9 128.028L1003.02 127.963C1001.99 127.371 1001.02 126.705 999.941 126.196C999.056 125.834 998.137 125.525 997.19 125.271C996.494 127.241 994.957 125.687 993.912 125.632C993.218 125.516 992.498 125.541 991.82 125.703C991.143 125.865 990.531 126.159 990.044 126.557C989.204 127.183 988.309 127.764 987.366 128.296C986.705 128.111 986.165 127.991 985.733 127.824C982.934 126.779 982.334 124.716 982.129 122.69C981.925 120.664 984.928 121.284 986.177 120.368C985.084 117.982 983.367 120.674 981.853 120.035C980.856 118.602 979.727 117.066 977.049 116.419C977.301 118.454 977.493 120.415 974.839 121.044C971.704 121.821 969.47 123.541 966.876 124.91C964.984 126.018 962.976 127.002 960.871 127.852C957.315 129.129 953.675 130.263 949.966 131.247C946.555 132.172 944.633 131.201 943.084 128.527C941.762 126.224 940.081 124.032 938.736 121.737C937.873 120.537 937.392 119.196 937.331 117.825C937.511 116.113 937.271 115.281 934.808 115.419C934.542 115.417 934.28 115.373 934.036 115.29C933.793 115.207 933.573 115.088 933.391 114.938C933.137 114.645 932.801 114.399 932.407 114.22C932.013 114.041 931.571 113.933 931.115 113.903C930.659 113.874 930.2 113.924 929.772 114.051C929.345 114.177 928.96 114.376 928.647 114.633C924.84 112.654 924.84 112.654 921.585 114.92C921.393 115.05 921.104 115.299 920.984 115.262C920.384 115.068 919.783 114.809 918.582 114.337C916.973 114.559 914.979 115.262 915.856 117.954C913.905 117.375 911.897 116.917 909.851 116.585C908.253 116.409 906.884 116.104 906.248 114.975C905.215 113.051 902.536 113.125 900.711 112.33C898.201 111.174 896.687 113.671 894.598 114.337C894.045 114.513 893.805 115.17 893.288 115.466C891.379 116.576 889.313 117.251 887.019 116.187C885.019 115.359 882.744 115.011 880.485 115.188C879.279 115.204 878.074 115.139 876.882 114.994C872.078 114.504 867.43 113.144 862.47 113.995C861.838 114.035 861.202 114.001 860.584 113.893L858.842 110.73C857.641 110.97 856.525 111.174 855.432 111.405C854.341 111.739 853.205 111.975 852.045 112.108C849.642 112.163 847.625 112.459 846.856 114.328L841.583 111.941C842.22 113.135 842.508 113.653 842.941 114.458L832.011 112.885C832.167 111.904 832.251 111.035 832.48 110.11C832.912 108.417 832.6 108.029 830.306 107.705C829.908 107.664 829.506 107.642 829.105 107.64C828.108 106.715 827.447 105.503 826.51 105.364C824.192 105.031 823.64 103.764 823.015 102.228C820.878 103.736 819.028 105.438 816.386 104.874C814.824 106.262 813.479 107.362 812.266 108.574C810.477 110.323 808.723 112.089 807.078 113.921C805.432 115.753 804.063 117.418 800.928 116.502C800.484 117.177 800.316 117.945 799.799 118.13C796.544 119.314 791.608 117.917 789.855 115.447C789.446 114.883 788.93 114.365 788.425 113.773C785.339 115.669 782.756 117.667 779.694 119.018C776.811 120.304 775.01 122.209 772.92 124.004C772.331 124.512 771.851 125.105 771.395 125.567C771.043 125.57 770.692 125.539 770.35 125.475C766.59 123.967 766.218 124.096 764.933 127.325C764.715 128.108 764.219 128.828 763.5 129.406C762.781 129.985 761.867 130.398 760.861 130.599C758.952 129.378 757.426 128.416 755.901 127.454L759.288 127.565C759.07 127.232 758.764 126.937 758.389 126.7C758.015 126.463 757.581 126.288 757.114 126.187C755.517 125.965 756.033 126.927 756.045 127.565C755.241 127.297 753.871 127.167 753.715 126.751C753.079 125.04 751.505 124.337 749.488 123.856C748.575 124.365 747.626 124.873 746.317 125.586C746.089 123.541 745.897 121.83 745.68 119.823C742.93 121.774 742.666 121.95 741.861 121.321C740.432 120.211 738.03 119.906 737.441 118.047C737.273 117.547 736.144 117.233 735.568 116.9L731.712 118.75C727.497 116.9 723.869 114.328 718.501 114.3C718.012 114.933 717.303 115.449 716.454 115.789C715.605 116.129 714.65 116.28 713.697 116.224L711.354 113.005L708.856 114.421C710.466 115.558 711.871 116.557 713.264 117.529C712.819 118.981 711.906 120.325 710.608 121.434C709.311 122.543 707.672 123.382 705.842 123.874C703.62 124.522 701.206 125.391 698.635 123.819C699.933 120.59 696.413 118.417 695.597 115.049C694.624 117.399 690.504 117.177 690.937 119.906C690.937 120.017 690.288 120.202 689.928 120.341C687.994 121.044 686.157 121.673 683.851 120.905C682.65 120.507 680.992 120.822 679.551 120.822C678.527 120.933 677.488 120.933 676.464 120.822C675.205 120.47 673.857 120.345 672.525 120.455C671.193 120.566 669.911 120.909 668.778 121.46C666.868 120.072 664.97 119.841 662.28 120.442C660.91 120.772 659.455 120.83 658.049 120.612C656.642 120.393 655.33 119.906 654.233 119.194C652.179 117.843 648.336 117.908 645.826 119.018C644.971 119.4 643.99 119.58 643.003 119.536C641.723 119.464 640.473 119.196 639.328 118.75C637.779 118.093 635.617 117.39 635.172 116.344C634.5 114.881 633.345 113.578 631.821 112.561C627.678 113.819 626.357 117.695 621.781 118.315C621.6 119.363 621.141 120.371 620.432 121.277C619.723 122.182 618.78 122.966 617.661 123.578C614.058 120.35 609.422 118.879 604.69 117.103C604.485 118.268 604.143 119.417 603.669 120.535C603.473 120.885 603.188 121.2 602.831 121.464C602.475 121.728 602.053 121.934 601.591 122.071C600.29 122.243 598.966 122.28 597.652 122.181C595.802 122.181 593.808 121.83 592.139 122.256C585.058 124.032 577.606 124.769 570.172 124.429C567.962 124.346 565.644 124.836 563.71 123.504C563.434 123.31 562.738 123.384 562.281 123.504C557.717 124.364 554.066 122.302 554.21 118.796C554.282 117.214 554.703 115.641 554.955 114.069L550.391 112.136C552.349 106.401 552.349 106.4 551.436 105.078C549.43 106.197 550.127 108.87 547.544 109.471C545.25 108.213 543.293 106.992 541.155 106.012C538.549 104.819 537.972 103.237 538.609 101.045C538.783 100.067 538.863 99.0804 538.849 98.0935C537.48 98.612 536.194 99.2515 535.017 99.9991C533.816 100.989 532.387 100.573 531.138 100.924C529.889 101.276 527.703 102.007 527.343 102.895C526.61 104.745 524.64 105.05 523.007 105.716C520.929 106.548 518.599 107.002 516.485 107.788C515.08 108.315 513.927 109.213 512.57 109.823C508.967 111.451 505.928 110.471 504.691 107.362C504.427 106.715 504.139 105.753 503.49 105.512C500.572 104.587 499.971 102.303 498.53 100.554C496.68 98.3342 495.779 95.6239 492.525 93.8755L490.519 95.8272C486.976 93.2464 485.246 93.4129 481.547 96.7523C477.572 94.0604 472.972 92.858 467.855 94.0513C466.654 92.9875 465.681 92.1179 464.708 91.2762C462.306 91.9144 460.457 93.8293 457.358 92.4973C459.676 90.2587 456.65 89.0098 455.797 87.3725L458.619 85.7074H453.527C454.286 84.6634 455.116 83.6507 456.013 82.6733C456.974 81.7483 457.995 80.9527 456.758 79.6114L448.35 82.3865C449.551 85.9664 450.584 89.4908 452.818 92.6267C449.683 93.5517 446.945 94.2454 444.267 95.0687C441.24 95.9937 438.934 95.2722 436.916 93.4591C435.707 92.2688 433.963 91.4704 432.028 91.2206C430.992 91.1522 430.019 90.8082 429.277 90.2479C428.534 89.6876 428.067 88.9457 427.957 88.1494C425.062 89.1762 423.717 88.1032 422.624 86.5769L425.026 84.0423L421.603 83.4504C421.447 84.8565 421.315 86.1607 421.183 87.3262C416.559 89.6851 412.511 88.3253 408.776 86.4012C406.77 85.3559 405.233 84.4216 402.446 84.9581C400.801 85.2726 398.723 84.2273 396.754 83.774C396.645 84.8656 396.561 85.8554 396.477 86.8082C394.075 87.3909 392.009 87.946 389.848 88.4455C389.233 88.6045 388.578 88.6459 387.938 88.5659C384.335 87.9831 380.732 87.2893 377.129 86.7158C376.002 86.6325 374.868 86.6325 373.742 86.7158C373.578 87.1252 373.474 87.5469 373.429 87.9737C373.898 92.1179 373.537 92.7655 368.217 92.932C364.097 93.0615 361.947 95.0132 359.497 96.9465C358.834 97.5264 357.959 97.939 356.987 98.1306C355.334 98.246 353.672 98.2646 352.015 98.1861V91.8495L343.235 90.1569C343.643 91.785 343.932 92.8857 344.208 93.9957C342.671 95.7348 340.461 94.7727 338.419 94.5969C338.047 95.6607 337.734 96.521 337.446 97.372C336.129 97.6441 334.849 98.0162 333.627 98.4822C328.988 100.687 323.792 102.103 318.385 102.636C314.674 103.006 314.23 102.978 313.149 100.027C313.053 99.7679 312.897 99.509 312.729 99.1852L310.05 99.4072C309.966 100.49 309.894 101.396 309.858 101.96L302.724 103.625L305.943 105.892L300.802 107.094C300.946 107.936 300.994 108.713 301.223 109.462C301.451 110.211 301.931 111.174 302.424 112.302C301.397 112.774 300.277 113.115 299.109 113.311C297.412 113.402 295.707 113.242 294.088 112.839C292.167 112.311 293.764 110.804 293.164 109.842C293.08 109.712 292.767 109.657 292.143 109.379C291.963 110.304 291.806 111.137 291.614 112.154C291.005 112.144 290.397 112.188 289.801 112.284C287.074 112.95 284.372 113.708 281.646 114.365C280.926 114.596 280.127 114.635 279.376 114.476C277.346 113.634 275.448 112.626 273.479 111.701C275.785 109.231 278.055 107.261 278.847 104.55C276.373 103.745 274.956 104.634 274.043 105.966C273.1 107.42 272.297 108.926 271.641 110.471C270.788 112.321 269.623 113.005 267.125 112.543C261.806 111.63 256.828 109.795 252.568 107.177C250.503 105.864 248.653 104.402 245.759 106.04C245.314 106.289 244.377 106.04 243.861 105.984C243.729 107.131 243.609 108.065 243.501 108.935C241.555 109.018 240.114 109.018 238.696 109.166C237.546 109.216 236.421 109.449 235.394 109.851C233.051 111.007 230.902 112.376 228.632 113.625C226.121 115.003 225.029 115.928 222.891 118.824C221.822 120.248 218.555 120.609 217.978 119.221C216.885 116.576 214.159 117.307 211.144 116.511C212.346 117.593 212.85 118.13 213.414 118.666L212.922 119.055L206.605 115.549L201.44 120.452C196.756 119.221 195.026 116.215 194.234 112.959H183.052C179.269 116.715 176.23 117.195 170.117 114.966C171.81 112.737 169.937 111.063 168.916 109.24C165.577 109.777 165.889 111.525 166.201 113.311C165.493 113.496 164.736 113.921 164.28 113.782C162.034 113.098 159.86 112.274 157.59 111.479C153.915 113.976 152.894 117.316 152.209 120.729C151.092 126.279 148.102 126.853 142.781 126.344C139.436 125.872 136.128 125.254 132.873 124.494C131.764 124.339 130.645 124.231 129.522 124.17C131.684 127.991 135.527 130.155 138.277 132.801C137.328 133.328 136.404 133.828 135.503 134.355C133.401 135.576 131.227 136.742 129.245 138.055C126.843 139.702 124.441 139.128 122.039 138.055C120.234 137.216 118.139 136.819 116.034 136.917C114.028 137 111.422 137.297 110.353 135.206C108.179 136.335 106.125 136.325 104.504 135.289C102.883 134.253 104.564 133.171 105.285 132.348C104.156 130.581 102.582 131.293 100.817 131.524C101.393 133.152 101.934 134.679 102.462 136.15C99.6998 139.406 94.4753 138.157 91.0042 139.988C89.2988 138.249 87.1249 138.333 84.8309 138.934C84.6747 138.98 84.6387 139.267 84.5306 139.47L87.305 140.886C86.3682 141.431 85.6956 141.866 84.975 142.236C84.2544 142.606 83.5097 142.856 82.8852 143.161L81.1197 141.607L76.6278 147.629C73.7333 147.509 72.316 146.149 71.163 144.697C70.01 143.245 69.1213 141.635 68.0763 140.072C66.8252 140.556 65.621 141.11 64.4732 141.728C62.2633 143.143 62.0711 143.17 59.9813 141.598C57.534 139.651 54.6951 138.02 51.574 136.769C47.2022 135.132 43.2508 132.829 39.1072 130.821C38.5937 130.514 38.0116 130.282 37.3897 130.137C33.9547 129.647 30.4957 129.212 26.7485 128.731C26.4122 129.332 25.9678 130.155 25.4153 131.136C23.0973 130.211 21.584 131.182 20.3109 132.856C17.2242 130.905 15.819 133.365 13.8733 134.225C11.0629 133.208 11.7114 131.099 11.1229 129.064C8.57673 129.498 6.31875 129.221 5.40596 126.696C2.64356 130.544 -0.851463 132.856 -5.75171 133.643C-6.73873 132.033 -7.8914 130.486 -9.1987 129.018C-10.7039 127.77 -12.3432 126.621 -14.0989 125.586L-15.8645 127.926L-17.8102 126.955C-16.0446 129.517 -19.7318 129.637 -20.3083 131.247C-20.7888 132.56 -21.4493 134.706 -24.4279 134.651C-28.1391 132.375 -32.595 132.459 -36.7386 132.135L-38.4801 139.535C-38.8227 139.528 -39.1582 139.459 -39.4595 139.333C-39.7607 139.207 -40.019 139.028 -40.2134 138.811C-40.4078 138.594 -40.5327 138.344 -40.578 138.083C-40.6232 137.821 -40.5876 137.555 -40.4738 137.306C-39.489 134.679 -40.606 57.9689 -40.606 129.535C-40.5339 -26.0799 -40.2485 198.326 -40.3206 42.7165C-40.3206 41.07 -40.3206 39.4327 -40.2485 37.7861C-40.1184 37.1282 -39.9094 36.4809 -39.624 35.8527L-25.3796 42.6055C-25.9921 37.9064 -26.4846 34.0305 -26.989 30.2378C-25.9921 30.2378 -24.9833 30.2378 -23.9864 30.2378C-20.9065 30.198 -17.8333 30.0033 -14.7864 29.6551C-11.1833 29.1 -9.8021 30.9224 -8.20471 32.6707C-7.11176 33.8825 -6.12692 35.1405 -5.11804 36.3708C-1.85714 35.804 1.04185 34.3733 3.07307 32.3284C5.1749 30.3581 5.94357 30.1916 9.07829 31.2646L5.94357 32.2545L6.05165 32.8927C8.21353 32.9852 10.3874 33.2165 12.5493 33.1517C13.5245 33.0581 14.5139 33.1891 15.3924 33.5283C16.271 33.8675 16.9994 34.3994 17.4856 35.0572C18.1196 35.7169 18.8226 36.3357 19.5874 36.9073L25.5926 33.2072C29.4119 34.5207 30.7211 37.009 31.3816 39.6824C33.0631 39.9414 34.4803 38.7574 35.3571 38.8961C38.7801 39.3401 41.1461 37.7491 43.9565 36.9906C45.481 36.601 47.1104 36.5215 48.6865 36.7597C50.2627 36.998 51.7321 37.5459 52.9523 38.3504C54.3215 36.8241 55.9189 35.4735 58.7294 36.232C60.2787 34.123 61.2155 33.6975 64.3623 32.6799C65.7314 32.2359 66.7643 31.1443 67.9654 30.4228C69.4066 29.581 70.98 28.1195 72.3972 28.175C76.8885 28.1985 81.274 29.2269 85.0202 31.1351C83.7351 32.7724 82.522 34.271 81.417 35.7603C81.0882 36.1754 80.9137 36.6522 80.9126 37.1385C80.9847 38.0636 81.2609 38.9887 81.5371 40.2097C81.7601 40.4073 82.0456 40.557 82.3659 40.6445C83.7725 40.9411 85.0828 41.4615 86.2123 42.1721C87.3418 42.8827 88.2654 43.7677 88.9236 44.7701C90.5619 46.9316 92.4771 48.9614 94.6405 50.8291C96.7904 52.7902 99.4447 54.7235 103.048 54.0482C105.714 53.5487 107.852 54.1592 110.254 54.6402C112.656 55.1212 113.857 56.2868 113.437 57.9796C113.113 59.4411 113.749 59.9036 115.479 59.6909C116.696 59.5343 117.9 59.3181 119.082 59.0434C122.06 57.9309 124.818 56.4982 127.273 54.7883C128.21 53.9835 129.255 53.2434 130.672 52.1518C131.546 53.0639 132.48 53.9408 133.47 54.779C134.083 55.26 134.984 55.8705 135.716 55.852C137.029 55.7153 138.362 55.9376 139.483 56.4802C140.605 57.0229 141.444 57.8514 141.854 58.8214C142.13 59.3302 142.958 59.6816 143.583 60.0609C146.165 61.615 148.759 63.1598 151.306 64.6861C149.288 67.3039 149.288 67.3039 151.306 68.3862C151.609 67.5428 152.011 66.7223 152.507 65.9348C152.927 65.4168 153.828 64.7415 154.452 64.7693C158.056 64.9728 161.358 65.8978 163.46 68.4694C163.659 68.6407 163.805 68.8446 163.887 69.0656C163.968 69.2867 163.984 69.5191 163.932 69.7454C163.88 69.9717 163.761 70.186 163.586 70.372C163.411 70.558 163.183 70.7108 162.92 70.819C162.055 71.3093 161.298 71.9199 160.518 72.4749L161.118 73.2149C163.52 72.4101 166.415 71.9754 168.409 70.7358C172.492 68.1735 176.516 70.3658 180.539 70.2918C180.635 70.2918 180.767 70.4028 180.839 70.486C183.181 73.0484 186.845 73.2612 190.448 73.6404C190.628 73.3814 190.82 73.1316 191 72.8819C192.898 70.1808 193.967 69.857 197.666 70.6618C201.365 71.4665 204.872 72.1789 208.475 72.8171C209.812 73.0949 211.208 73.1561 212.577 72.9969C213.945 72.8377 215.256 72.4615 216.426 71.8921C217.357 71.516 218.38 71.2953 219.429 71.2445C221.903 71.041 224.401 70.9393 226.299 70.8283L229.71 66.9616H233.793V64.4918C235.331 64.1218 236.988 64.0941 237.793 63.4466C239.81 61.8277 241.84 61.7907 244.314 62.5215C245.355 62.9492 246.543 63.1173 247.713 63.0026C250.824 62.2255 254.223 61.7907 256.409 59.5706C256.821 59.044 257.462 58.6467 258.218 58.4486C258.974 58.2506 259.797 58.2647 260.54 58.4884C261.85 61.7815 261.85 61.7814 266.053 61.8832C266.245 60.4956 266.426 59.1081 266.654 57.4708C268.059 57.1563 269.584 56.8325 271.074 56.4625C271.758 56.2868 272.647 56.1572 272.995 55.7595C273.137 55.5508 273.343 55.3726 273.596 55.2409C273.849 55.1093 274.141 55.0284 274.445 55.0054C274.749 54.9824 275.056 55.0182 275.338 55.1095C275.619 55.2008 275.867 55.3447 276.058 55.5282C277.31 56.4532 278.493 57.4322 279.601 58.4606L282.471 56.5088C284.321 56.7493 285.943 58.2386 287.96 57.0268L292.764 59.6354C292.945 58.7104 293.053 58.1461 293.185 57.4153C295.815 58.1183 298.085 58.1738 299.766 56.4347C299.766 55.0749 297.208 54.4367 298.169 52.9382C299.37 51.0881 298.746 49.3028 297.412 47.388C299.394 46.796 301.328 46.5462 302.745 45.7507C306.228 43.7803 308.33 42.7906 311.152 42.3188C312.337 42.2209 313.496 41.9838 314.587 41.6158C320.616 38.787 327.426 37.0944 334.465 36.676C336.867 36.5373 339.053 35.936 341.263 37.0553C341.479 37.1511 341.718 37.212 341.966 37.2343C342.214 37.2566 342.465 37.2397 342.704 37.1848C345.587 36.4125 348.396 35.4852 351.111 34.4097C356.491 31.9264 362.468 30.3089 368.682 29.6551C372.177 29.322 373.126 29.8586 374.135 32.4857C374.736 34.012 375.228 35.5476 375.792 37.1109C378.339 36.7871 379.516 35.6493 380.717 34.3358C382.126 32.7373 383.784 31.2772 385.653 29.9881C388.896 27.8697 389.256 27.9992 392.415 30.4321C392.895 30.7928 393.616 30.9964 393.952 31.4126C395.838 33.8362 399.957 35.1128 399.861 38.5817C400.725 38.6185 401.59 38.5402 402.42 38.3504C404.52 37.5029 406.501 36.4892 408.329 35.3255C408.932 34.8505 409.7 34.5193 410.542 34.3717C411.383 34.224 412.262 34.2661 413.073 34.493C414.19 34.752 415.199 35.2978 416.316 35.6031C417.299 35.8028 418.298 35.9542 419.306 36.0563C418.598 34.5393 418.105 33.4292 417.721 32.6985C419.691 30.9409 421.444 29.5625 422.897 28.0085C426.729 23.9291 430.752 20.0347 436.253 17.1393C440.589 14.8545 442.258 15.095 445.345 18.3141C447.069 19.9805 449.129 21.4233 451.446 22.5878C452.647 23.2168 454.341 23.2076 455.794 23.5128C455.205 26.0937 455.205 26.0937 457.896 28.4063V25.3351C460.13 24.9743 462.183 24.6136 464.249 24.3083C466.315 24.0031 468.237 24.1788 469.414 25.7976C469.879 26.3626 470.514 26.8337 471.264 27.1716C472.014 27.5095 472.858 27.7045 473.725 27.7403L485.544 29.2296C485.844 28.212 486.132 27.1667 486.456 26.0659L488.522 26.6024C490.756 23.0873 490.756 23.0873 494.059 23.5499L496.737 19.4982C500.341 19.6462 500.965 22.0327 502.586 23.9476L511.618 22.3103C512.272 23.1439 512.811 24.0274 513.228 24.9467C513.363 25.6565 513.834 26.3029 514.55 26.7621C515.266 27.2212 516.176 27.4608 517.107 27.435C517.768 27.435 518.416 27.5182 519.077 27.5645L518.308 28.2121C520.29 29.3961 522.392 30.4969 524.313 31.7919C527.225 33.7234 529.973 35.7966 532.54 37.9989C533.199 38.6132 534.016 39.1149 534.941 39.4717C535.865 39.8285 536.876 40.0327 537.909 40.0709C538.834 40.0709 539.903 38.2209 540.732 37.0924C540.974 36.5389 541.08 35.9553 541.044 35.3718C543.938 34.4468 546.365 35.1128 548.731 36.1395C549.478 36.5586 550.334 36.8488 551.241 36.9906C554.544 37.1016 557.858 36.9906 561.161 37.0924C562.843 37.0924 564.524 37.3235 566.458 37.4715C566.254 38.1561 566.158 38.5261 566.013 38.9054C565.732 39.5996 565.789 40.349 566.174 41.0131C566.559 41.6773 567.245 42.2106 568.103 42.513C569.701 43.2438 571.046 43.0495 572.559 41.8655C573.76 40.9404 575.514 39.7564 577.531 40.6167C580.558 41.8932 583.813 43.0588 586.251 44.8534C588.689 46.648 590.767 47.1474 593.722 46.6201C594.238 46.5369 594.778 46.5462 595.307 46.463C596.736 46.2409 597.469 46.7126 597.925 47.7579C598.706 49.5155 600.027 50.0613 601.937 49.4693C603.331 49.045 604.683 48.5442 605.984 47.9708C609.514 46.3757 613.497 45.4704 617.586 45.3343C619.7 45.2511 620.601 46.0652 621.334 47.2862C622.366 46.6572 623.207 46.1577 624.024 45.6397C624.841 45.1216 625.621 44.5574 626.426 44.0486C629.056 42.4206 631.23 42.5408 633.332 44.4556C633.774 44.9086 634.176 45.3846 634.533 45.8802C636.839 46.0004 638.989 45.982 641.067 46.2502C641.768 46.3696 642.495 46.3694 643.196 46.2495C643.897 46.1297 644.556 45.8931 645.126 45.5564C647.06 44.5112 647.42 44.7331 648.729 46.352C649.722 47.4456 650.788 48.4984 651.924 49.5062L651.155 51.0603C652.573 51.1343 653.87 51.5044 654.758 51.1899C656.409 50.4533 657.969 49.6018 659.419 48.646L663.85 50.3203C664.439 49.6543 664.979 49.0068 665.772 48.0818L670.108 51.2453C669.904 49.682 669.76 48.6645 669.627 47.5452C671.729 46.2501 674.011 46.3982 676.341 47.166C678.872 47.9895 681.593 48.411 684.34 48.4055C684.74 48.387 685.141 48.387 685.541 48.4055C686.525 48.5537 687.544 48.431 688.423 48.0591C689.301 47.6871 689.981 47.0894 690.345 46.3704C690.675 45.9222 691.079 45.5087 691.546 45.1401L698.488 47.7857C699.449 46.4166 700.374 45.0661 701.755 43.0588C702.32 44.7423 702.644 45.7137 702.956 46.685C706.764 45.7044 707.04 42.291 710.307 40.9404L707.532 40.6167C708.865 39.4974 709.934 39.3587 711.436 40.3115C714.008 41.9493 717.101 43.0286 720.395 43.4381C722.375 43.5637 724.322 43.8967 726.185 44.4278C726.952 44.6976 727.785 44.8373 728.629 44.8373C729.472 44.8373 730.306 44.6976 731.073 44.4278C732.178 44.1503 733.295 43.9284 734.376 43.6786C735.192 44.8071 735.925 45.8247 736.718 46.907L738.447 45.8431L740.849 47.055C743.984 44.2799 742.843 41.5695 740.765 38.8684C742.254 38.3226 743.588 37.8693 744.861 37.3513C746.854 36.5465 748.656 36.5465 750.193 37.9618C750.377 38.1754 750.62 38.3549 750.905 38.4873C751.19 38.6196 751.509 38.7015 751.84 38.7272C752.171 38.7529 752.506 38.7216 752.819 38.6356C753.132 38.5497 753.417 38.4112 753.652 38.2301C754.325 33.7437 756.331 32.9481 761.831 34.715C763.546 35.1556 765.325 35.4321 767.128 35.5383C768.81 35.7325 770.539 35.7325 771.596 37.0368C772.353 37.9618 773.482 37.9619 774.779 37.7954C775.679 37.664 776.605 37.686 777.493 37.8601C779.802 38.3052 782.079 38.8425 784.315 39.4697C787.414 40.3947 789.624 39.6176 791.617 37.7028C795.016 34.4374 795.365 34.4374 800.253 35.8527L807.603 34.0027C808.096 35.1867 808.42 35.9822 808.804 36.7778C812.551 34.0027 809.933 31.1167 809.537 28.2121C811.542 28.0641 813.668 28.286 813.428 26.0752C813.188 23.8644 813.296 23.7811 816.179 24.1049C816.702 24.1327 817.228 24.1327 817.752 24.1049C815.41 22.6063 817.031 21.1077 817.476 19.5814C821.475 19.0079 822.808 21.4315 824.838 23.1983C825.423 22.9301 825.974 22.6204 826.483 22.2733C828.886 20.4232 828.802 20.4232 831.78 21.3483C833.724 21.9566 835.734 22.4333 837.785 22.7729C843.05 23.4376 848.135 24.769 852.834 26.7134C853.227 26.9459 853.676 27.1152 854.156 27.211C854.635 27.3069 855.135 27.3272 855.624 27.2711C856.114 27.215 856.584 27.0835 857.007 26.8844C857.429 26.6852 857.795 26.4227 858.083 26.1122C858.872 25.5696 859.603 24.9787 860.269 24.3454C860.419 24.1062 860.629 23.8924 860.887 23.7162C861.145 23.54 861.445 23.4049 861.772 23.3188C862.098 23.2328 862.443 23.1975 862.787 23.2149C863.131 23.2324 863.467 23.3022 863.776 23.4203C864.112 24.3454 864.112 25.3815 864.604 25.548C866.034 26.0382 867.907 26.6765 869.169 26.3342C870.694 25.9087 871.21 26.0012 871.799 27.0095C872.159 27.6385 872.591 28.2398 872.928 28.7393C875.426 28.7855 876.123 27.6848 876.531 26.2325C876.843 24.9744 877.528 23.8551 879.497 23.7441C885.022 23.4388 890.475 22.3842 896.096 23.3648C900.035 24.0401 903.963 25.0577 908.106 24.6044C909.016 24.6042 909.921 24.7006 910.797 24.8911C911.397 28.2027 911.758 28.323 915.601 27.2222C917.39 26.6949 919.36 26.0844 921.366 27.6847C920.453 28.878 919.54 30.0713 918.531 31.3849C921.93 32.4024 925.87 31.5514 928.284 34.049L926.915 35.8066C928.26 37.5734 931.539 40.0987 932.92 40.1912C933.58 40.1912 934.301 39.7657 935.058 39.5067C932.415 37.1386 932.391 35.3348 934.673 33.0315C935.971 31.7087 937.075 30.3118 936.331 28.5173C936.212 28.2157 936.212 27.8938 936.331 27.5923C936.469 26.7987 936.812 26.0343 937.34 25.3444C939.116 23.5595 940.259 21.449 940.655 19.2207C941.483 15.761 943.717 14.9193 948.113 16.1033C949.241 16.3651 950.388 16.5752 951.548 16.7324C955.8 17.5001 959.955 18.3512 963.486 20.5805C965.997 22.1808 968.651 23.7904 971.894 24.2807C973.948 24.5674 973.791 25.8069 974.128 26.7597C975.929 26.3342 977.419 25.6866 978.932 25.6866C981.726 25.6237 984.408 24.8274 986.534 23.4296C988.648 22.2271 990.75 21.1262 993.741 21.4222C995.202 21.4353 996.642 21.1547 997.92 20.6082C998.701 20.3228 999.567 20.2049 1000.43 20.2667C1001.29 20.3286 1002.11 20.568 1002.81 20.9597C1004.27 21.6165 1005.78 22.2363 1007.32 22.8098C1008.87 23.3833 1009.73 24.8541 1011.85 24.0956C1012.27 24.4871 1012.6 24.9315 1012.83 25.4092C1012.91 25.888 1012.91 26.3734 1012.83 26.8522H1013.63C1013.8 25.9271 1013.97 25.0021 1014.18 23.8366H1020.01C1021.3 23.8366 1022.6 23.9846 1023.89 23.9106C1025.59 23.8089 1027.26 23.5591 1028.96 23.374C1028.69 21.3482 1031.1 22.1345 1032.21 21.524C1033.31 20.9135 1034.55 20.599 1035.55 20.0439C1036.29 19.5999 1037.34 18.7674 1037.21 18.2864C1036.68 16.4363 1038.89 15.7425 1039.24 14.3642C1039.64 14.4567 1039.84 14.4568 1039.88 14.5123C1040.01 14.6643 1040.1 14.8341 1040.14 15.0118C1040.14 15.0858 1039.97 15.1875 1039.97 15.28C1039.97 15.3725 1040.1 15.428 1040.17 15.5113C1042.5 15.021 1042.45 15.0117 1043.14 13.0877C1043.27 12.6992 1043.82 12.3847 1044.6 11.6354V14.2903C1045.81 13.6057 1047.01 13.282 1047.27 12.6992C1047.48 11.8682 1047.48 11.014 1047.27 10.1831C1049.04 10.6363 1050.62 11.3857 1052.23 11.3949C1055.11 11.4617 1057.98 11.2124 1060.77 10.6548C1063.74 9.99806 1066.38 8.19431 1069.71 9.79461C1069.85 9.86862 1070.2 9.70206 1070.45 9.62806C1073.81 8.47177 1077.18 7.28773 1080.55 6.16844C1081.75 5.77993 1082.95 5.54867 1084.16 5.24341C1084.34 5.16597 1084.51 5.0661 1084.66 4.94745L1082.88 4.1796L1086.27 3.53212L1088.77 8.15729L1092.24 6.63096C1094.24 6.88072 1094.17 9.49855 1096.56 8.92502C1098.46 8.32716 1100.27 7.59314 1101.99 6.7327C1106.07 9.92407 1106.43 14.4198 1108.22 19.0357C1110.15 17.7499 1111.48 16.3531 1113.24 15.8259C1115.01 15.2986 1117.27 15.6409 1119.13 15.6039L1121.65 12.8749L1123.39 15.7241L1128.81 15.3263L1133.31 12.5512C1133.4 13.3797 1133.76 14.1765 1134.38 14.8594C1134.99 15.5423 1135.83 16.0866 1136.81 16.4363C1138.13 15.65 1138.6 13.9942 1141.01 14.947C1141.81 15.2615 1143.41 14.4198 1144.69 14.0868C1144.28 12.912 1143.92 11.8667 1143.61 10.9416C1144.2 10.3295 1145.04 9.8844 1146 9.67402C1146.96 9.46363 1147.98 9.49948 1148.9 9.7761C1149.91 10.0999 1150.44 11.3117 1151.39 12.357C1151.74 9.80388 1154.16 9.8964 1156.45 9.82239C1156.91 9.82239 1157.65 10.0259 1157.83 9.82239C1160.57 7.1583 1163.2 8.89736 1165.89 9.82239C1166.68 10.1827 1167.57 10.3832 1168.49 10.4052C1171.39 10.2109 1174.43 10.2017 1177.12 9.48013C1179.81 8.75861 1181.58 8.89736 1183.42 10.4052L1186.22 8.91577C1189.44 10.4421 1192.22 11.9776 1193.57 14.7157C1191.77 18.3419 1191.91 19.0172 1194.86 20.0995C1194.7 19.526 1194.57 19.0357 1194.41 18.49C1198.9 19.0357 1202.3 17.5649 1205.83 15.4466C1206.07 15.7888 1206.17 16.1681 1206.46 16.2884C1208.31 17.0469 1210.43 18.5639 1211.99 18.2771C1213.9 17.88 1215.93 17.9942 1217.75 18.601C1218.62 16.6399 1219.78 15.0118 1222.67 14.5586C1223.44 14.4383 1224.03 13.6334 1224.73 13.2079C1225.93 12.3346 1227.2 11.5103 1228.52 10.7382C1230.14 9.81313 1231.96 9.19329 1233.6 8.35151C1236 7.12121 1237.05 7.16748 1238.99 8.83254C1240.94 10.4976 1242.79 12.1996 1244.69 13.8925C1248.57 13.6057 1248.18 17.3521 1251.18 17.9626C1252.14 18.282 1253.06 18.6594 1253.93 19.0911C1256.27 19.7848 1258.54 20.5913 1260.74 21.5056C1262.25 22.2363 1263.3 22.5878 1265.06 21.9496C1266.01 21.5386 1267.1 21.3369 1268.19 21.3662C1269.29 21.3956 1270.35 21.6548 1271.27 22.116C1271.27 22.7173 1271.16 23.3834 1271.1 24.0216C1273.08 24.6599 1275.2 24.3176 1276.05 23.3648C1277.69 21.5147 1279.65 21.6443 1281.95 21.8201C1283.91 21.9773 1285.87 22.0421 1288.1 22.1623C1289.77 20.377 1291.43 18.4622 1293.34 16.6121C1293.84 16.1311 1295.54 15.7333 1295.97 15.9923C1298.87 17.7499 1302.71 18.4714 1304.98 20.9043C1305.5 21.4593 1306.3 22.2918 1306.92 22.264C1309.58 22.1623 1312.5 22.9485 1314.89 21.1817C1314.72 20.5989 1314.54 20.0347 1314.32 19.3317C1316.72 19.3317 1317.59 18.5454 1317.46 16.6768C1317.39 15.7518 1318.19 14.1238 1319.11 13.8555C1322.11 12.9767 1325.43 11.9129 1328.46 12.1626C1332.82 12.5142 1336.87 11.5152 1341.02 11.3024C1343.78 11.1637 1345.98 11.0342 1347.3 13.5225C1348.58 12.3477 1349.59 12.2459 1350.83 13.2172C1352.14 14.3175 1353.7 15.2264 1355.42 15.8998C1357.12 16.4641 1358.87 16.6583 1360.23 17.8609C1360.41 18.0437 1360.63 18.1959 1360.89 18.308C1361.15 18.4202 1361.44 18.4898 1361.73 18.5124C1362.03 18.535 1362.33 18.5101 1362.61 18.4394C1362.89 18.3686 1363.15 18.2536 1363.37 18.1014C1364.95 17.0746 1366.57 17.7314 1367.93 18.6471C1370.52 20.3955 1370.86 20.34 1374.03 19.0079C1377.63 17.5001 1381.23 15.8905 1385.35 15.613C1389.04 15.3632 1392.69 15.206 1396.03 13.6797L1398.76 15.9369C1400.52 13.726 1400.93 13.4577 1402.09 13.8925C1402.52 14.6602 1402.96 15.4836 1403.37 16.2513C1406.83 16.2513 1407.34 16.7416 1406.43 18.8784L1410.38 21.6535C1410.3 20.9997 1410.54 20.3457 1411.07 19.8284C1411.59 19.3111 1412.36 18.9706 1413.2 18.8784C1414.63 21.0892 1415.73 23.5591 1418.99 24.9559C1423.5 21.1448 1428.07 24.0309 1432.53 24.5766C1435.38 23.4388 1438.44 24.8542 1440.94 24.3639C1442.91 23.1706 1444.7 22.1807 1446.34 21.0522C1448.35 19.6646 1449.67 19.4704 1451.35 21.0522C1453.75 23.263 1457.88 24.2806 1458.81 27.5274C1458.81 27.6939 1459.17 27.8143 1459.38 27.9345L1463.5 30.2564C1464.53 29.4338 1465.4 28.4986 1466.07 27.4813C1467.53 24.2621 1468.69 23.7811 1472.91 24.8542C1473.04 28.5543 1473.28 28.73 1478.1 29.5441C1479.93 29.8586 1481.86 29.9233 1483.36 31.1258C1484.1 31.7271 1485.34 31.4773 1486.58 31.3478C1488.81 31.1258 1491.9 30.5708 1493.24 32.6522C1495.07 35.5105 1498.55 35.529 1500.92 36.195C1503.01 35.3625 1504.4 34.4467 1505.94 34.2802C1507.65 34.0952 1508.71 35.2053 1509.22 36.5928C1509.4 36.0655 1509.56 35.5383 1509.77 34.9186L1516.82 35.2145L1524.2 28.7393C1530.37 30.5893 1532.24 31.7826 1535.77 35.4458C1536.66 36.1809 1537.65 36.8442 1538.71 37.4254C1539.25 35.5753 1539.7 34.0952 1540.13 32.6336C1541.14 33.5587 1541.94 34.3173 1542.82 35.1498L1545.22 32.4394C1546.42 32.8557 1547.55 33.6049 1548.29 33.4292C1552.31 32.4301 1553.43 34.789 1555.22 36.5835C1557.37 38.7574 1559.84 40.6074 1563.62 41.2087C1567.11 41.6331 1570.65 41.8004 1574.18 41.7083C1576.93 41.7083 1579.68 41.5233 1582.41 41.7083C1585.13 41.8933 1586.45 40.7832 1586.6 38.9332C1587.6 38.6702 1588.68 38.6349 1589.71 38.8318C1590.74 39.0286 1591.67 39.4491 1592.4 40.0432C1593.6 40.9682 1594.11 42.5963 1594.99 44.0486C1595.51 43.7083 1595.97 43.3199 1596.36 42.8923C1597.26 41.5788 1598.47 41.5047 1599.97 42.2077C1600.63 42.5516 1601.33 42.8607 1602.04 43.1327C1602.85 43.3843 1603.74 43.4303 1604.58 43.2638C1605.43 43.0974 1606.18 42.7272 1606.73 42.2077C1609 40.3576 1610.62 39.5345 1612.53 40.4502C1615.7 41.958 1618.29 41.1348 1621.08 39.997C1622.25 39.6362 1623.45 39.3605 1624.68 39.1737C1623.22 42.1893 1627.31 43.9284 1625.98 46.574C1627.07 44.3631 1628.76 43.4011 1631.75 44.0486C1632.51 44.2244 1633.49 43.7988 1634.62 43.5953C1635.51 46.2871 1639.29 44.8256 1641.09 46.1854C1641.02 47.1104 1640.95 48.0355 1640.81 49.8023C1642.46 48.0262 1643.52 48.2205 1644.87 48.9698C1646.95 50.1261 1649.52 50.1722 1651.98 50.0705C1653.31 49.9561 1654.62 49.7613 1655.91 49.4878V47.6932L1660.79 48.6182C1661.1 47.9337 1661.28 47.5545 1661.45 47.1753L1661.3 47.3047C1662.06 46.9624 1663.51 46.5184 1663.45 46.2871C1663.23 45.3621 1663.66 44.7609 1664.74 44.9274C1665.4 45.0291 1666.01 45.7599 1666.43 46.3057C1666.7 46.8075 1666.85 47.3382 1666.9 47.8782L1670.25 47.6654L1672.03 49.4601L1668.28 48.6368L1671.34 53.965C1673.96 52.2351 1676.73 50.9586 1678.47 49.0993C1680.78 46.6202 1683.46 46.9995 1686.49 47.5082C1687.91 47.7488 1689.47 48.2297 1690.77 47.9892C1694.66 47.2954 1698.37 47.9892 1702.14 48.3499C1704.54 48.5905 1704.97 49.0992 1704.88 50.9955C1704.78 52.8918 1704.88 54.6033 1704.88 56.3053C1707.45 56.7031 1709.14 56.481 1710.11 54.5292C1710.55 53.6042 1712.01 53.1787 1713.72 53.1417C1717.46 53.2078 1721.12 52.302 1724.12 50.57C1725.21 50.09 1726.47 49.8862 1727.72 49.9873C1730.86 49.9873 1734 50.2371 1736.98 50.3666C1737.81 49.3375 1738.5 48.2465 1739.04 47.1104C1739.64 45.2604 1740.8 44.2613 1743.38 44.178C1744.15 44.178 1744.93 43.5583 1745.63 43.1327C1746.75 42.4575 1747.8 41.7083 1748.98 40.922L1751.68 43.364C1754.53 43.364 1756.76 43.364 1759 43.364C1760.56 43.3659 1762.12 43.298 1763.67 43.1605C1765.35 42.9908 1767.02 42.7312 1768.65 42.3835C1770 42.0875 1771.25 41.5694 1772.56 41.1717C1773.87 40.7739 1775.13 40.0246 1776.06 40.2466C1779.12 41.0066 1782.39 41.0677 1785.49 40.4225C1786.38 40.1921 1787.35 40.2117 1788.23 40.4779C1790.38 41.5509 1791.83 40.8849 1793.51 39.8026C1794.26 39.3907 1795.07 39.0462 1795.92 38.7759L1800.72 42.5316C1802.11 41.9526 1803.54 41.4367 1805.01 40.9867C1805.99 40.7167 1807.04 40.631 1808.07 40.7369C1811.21 41.1717 1813.55 40.5612 1815.17 38.6278C1815.79 37.8786 1816.37 37.0923 1816.92 36.3245C1820.53 36.9073 1823.18 39.2292 1826.7 38.5909C1827.06 37.1664 1827.4 35.8806 1827.71 34.6503L1831.66 36.9628C1831.97 36.0378 1832.13 35.5568 1832.33 34.9647C1833.02 35.0572 1833.53 35.1035 1834 35.2053C1835.64 35.529 1838.53 34.7243 1838.57 33.716C1838.65 31.9954 1840.16 31.4866 1841.7 30.8853C1844.29 29.8678 1846.82 28.7207 1849.51 27.879C1850.63 27.5848 1851.62 27.0472 1852.36 26.3303C1853.1 25.6134 1853.56 24.7475 1853.67 23.8366C1853.77 23.443 1853.89 23.0539 1854.05 22.671L1858.64 24.6876V20.9875C1861.64 21.7275 1863.44 19.7202 1866.09 19.2484L1865.13 20.4603C1867.25 20.7563 1869.32 21.6535 1871.56 20.7377C1871.79 20.6452 1872.28 21.0431 1872.64 21.0431C1877.78 21.0431 1882.93 22.19 1888.04 20.9412C1889.95 20.4787 1891.03 21.117 1891.77 22.7358C1892.67 21.0245 1893.83 20.2845 1895.95 20.8858C1896.53 21.0615 1897.46 20.7285 1898.11 20.4603C1900.22 19.5907 1902.26 18.6102 1904.32 17.6852C1906.92 16.5196 1909.61 16.0016 1912.29 17.1764L1914.47 14.6696L1922.77 16.9821C1924.36 14.0775 1925.17 11.1544 1928.78 9.58188L1931.32 10.8029C1931.96 10.2287 1932.69 9.71342 1933.48 9.26728C1936.46 7.99074 1939.49 6.76969 1942.54 5.56715C1942.86 5.42788 1943.22 5.34129 1943.59 5.31263C1943.96 5.28397 1944.34 5.31384 1944.69 5.40048C1945.05 5.48712 1945.37 5.62873 1945.65 5.81647C1945.93 6.00422 1946.16 6.23411 1946.32 6.49218C1947.2 7.41722 1948.14 8.34233 1949.3 9.58188C1951.55 7.13979 1955.31 8.41633 1957.95 6.80678L1954.13 3.4026C1956.29 2.31106 1957.55 -0.149562 1960.89 1.5155V1.53402Z" fill="#EAE0D6"/>
</svg>
