<svg width="1666" height="724" viewBox="0 0 1666 724" fill="none" xmlns="http://www.w3.org/2000/svg">
<path fill-rule="evenodd" clip-rule="evenodd" d="M864.886 616.338L865.466 615.962L864.106 614.392L863.746 614.607L864.886 616.338ZM144.188 676.75L143.519 676.274L142.569 677.512C142.795 677.655 143.033 677.784 143.279 677.898C143.605 677.531 143.909 677.147 144.188 676.75ZM641.794 647.28L641.734 648.051L643.424 647.934V647.468L641.764 647.28H641.794ZM1124.87 593.453C1124.55 593.148 1124.24 592.834 1123.92 592.556C1123.5 592.861 1123.06 593.157 1122.67 593.498C1122.67 593.498 1123.07 594.09 1123.18 594.072C1123.76 593.914 1124.32 593.719 1124.87 593.489V593.453ZM960.38 89.0467C960.06 88.7776 959.86 88.4726 959.63 88.4547C959.4 88.4367 959.03 88.7507 959.03 88.9212C959.051 89.0497 959.108 89.1712 959.195 89.2747C959.283 89.3782 959.398 89.4602 959.53 89.5132C959.75 89.5132 960.02 89.253 960.38 89.0467ZM1534.2 31.6319C1533.75 31.1744 1533.59 30.8515 1533.36 30.8157C1533.13 30.7798 1532.7 31.1475 1532.72 31.2103C1532.83 31.5273 1533.05 31.806 1533.34 32.0087C1533.47 32.0804 1533.86 31.7845 1534.2 31.6319ZM6.53182 715.917L3.82227 715.801L5.05206 717.541L6.53182 715.917ZM1246.44 650.348C1246.53 650.608 1246.63 650.868 1246.72 651.128L1249.25 650.428C1249.25 650.249 1249.16 650.069 1249.11 649.89L1246.44 650.348ZM1621.68 640.578L1622.27 640.946L1623.71 638.954L1623.3 638.694L1621.68 640.578ZM331.767 58.2043L330.917 58.3119C331.067 59.1013 331.217 59.8819 331.377 60.6624L332.117 60.5726C332.007 59.7831 331.887 58.9938 331.767 58.2043ZM723.39 659.866L723.81 659.247C723.37 658.251 722.5 658.233 720.88 658.61L723.39 659.866ZM429.63 658.359C429.84 658.224 430.06 658.099 430.27 657.982C430.285 657.902 430.285 657.82 430.27 657.74C430.2 657.569 430.13 657.39 430.04 657.22C429.69 656.565 428.8 656.466 428.83 657.031C428.86 657.596 429.36 657.928 429.65 658.359H429.63ZM118.133 47.5735C118.793 47.1519 119.323 46.8379 119.993 46.4162C118.103 45.7793 118.103 45.7793 118.133 47.5735ZM722.76 652.886C724.76 650.823 724.76 650.823 724.26 649.648C723.68 650.886 723.26 651.882 722.76 652.886ZM1350.77 68.5478C1351.03 69.8934 1351.17 70.656 1351.33 71.5172L1353.15 70.2434L1350.77 68.5478ZM744.367 626.709L745.036 626.574C744.666 625.812 745.906 624.439 743.467 624.17C743.817 625.166 744.097 625.964 744.367 626.709ZM894.601 622.833C892.031 624.188 892.031 624.188 894.281 625.928C894.391 624.942 894.471 624.134 894.601 622.833ZM724.63 664.836L722.34 668.909L722.7 669.07L725.7 666.881L724.64 664.836H724.63ZM757.744 607.421L754.745 605.878C754.285 606.551 753.815 607.233 753.165 608.202L757.784 607.421H757.744ZM498.788 639.053L502.638 635.267C499.208 635.483 499.018 635.68 498.788 639.053ZM578.665 640.336L580.664 637.869H575.605L578.605 640.336H578.665ZM1666 16.3722V637.393C1665.57 637.465 1665.11 637.689 1664.74 637.591C1662.05 636.891 1661.99 636.9 1660.44 638.703C1660.13 639.071 1659.73 639.385 1659.28 639.825L1655.35 637.51C1654.09 638.029 1652.86 638.628 1651.69 639.304C1648.18 641.544 1644.15 643.055 1639.9 643.727C1636.72 644.31 1635.74 643.539 1634.91 640.578C1634.35 638.461 1633.82 636.218 1631.46 634.908C1629.59 637.343 1628.78 640.309 1629.19 643.243C1626.81 643.799 1626.81 643.799 1627.09 645.835C1626.09 647.629 1623.99 646.176 1622.99 646.974V650.294C1619.38 650.913 1619.1 647.71 1616.88 646.706L1613.88 648.446C1612.33 647.514 1610.72 646.672 1609.05 645.925C1606.84 645.073 1604.44 644.615 1602.23 643.772C1600.31 643.025 1598.48 642.099 1596.77 641.009C1595.77 640.363 1595.18 639.215 1594.26 638.398C1593.67 637.896 1592.62 637.77 1592.15 637.223C1591.68 636.676 1591.84 635.895 1591.64 634.801C1590.35 636.834 1589.81 639.177 1590.08 641.502C1590.17 643.727 1588.9 644.75 1586.39 644.543C1585.64 644.49 1584.8 644.077 1584.17 644.274C1580.86 645.297 1577.86 644.193 1574.79 643.377C1573.3 643.039 1571.79 642.8 1570.27 642.66C1569.2 642.534 1568.34 642.39 1568.34 641.143C1568.34 640.758 1567.79 640.381 1567.49 639.986C1565.72 640.533 1564.13 641.717 1562.49 640.228C1562.83 636.523 1562.49 636.128 1558.75 636.245C1557.94 636.963 1557.29 638.039 1556.42 638.219C1553.86 638.694 1551.3 639.6 1548.59 638.649C1547.88 638.398 1546.47 638.416 1546.15 638.82C1545.15 639.995 1544.04 639.609 1542.87 639.645C1540.99 639.637 1539.11 639.751 1537.24 639.986C1533.35 640.614 1529.6 639.843 1525.87 639.089C1524.98 638.919 1524.23 637.932 1523.54 637.214C1523.12 636.672 1522.75 636.092 1522.45 635.483L1518.08 637.223C1517.39 635.904 1516.77 634.747 1516.15 633.581L1513.25 633.948V637.295C1512.72 637.478 1512.18 637.61 1511.63 637.69C1508.76 637.833 1505.98 638.111 1504.4 634.998C1503.85 633.886 1501.85 632.881 1500.4 632.702C1498.91 632.502 1497.55 631.872 1496.5 630.907C1493.87 632.029 1492.12 634.155 1490.8 637.088C1489.18 640.677 1487.65 641.26 1483.88 639.896C1483.07 639.501 1482.15 639.324 1481.23 639.388C1480.31 639.452 1479.43 639.753 1478.69 640.255C1477.27 641.054 1476.61 641.368 1477.84 642.731C1478.22 643.153 1478.01 643.996 1478.07 644.579C1475.65 645.889 1474.15 644.355 1472.57 643.485L1465.89 647.351C1466.37 649.397 1466.79 651.137 1467.29 653.254L1458.3 652.878C1454.97 646.329 1449.95 642.956 1442.43 645.118L1438.61 641.341L1434.67 642.005L1431.23 639.654C1430.02 640.856 1429.1 641.789 1428.13 642.767L1425.5 641.996C1425.37 642.725 1425.34 643.466 1425.41 644.203C1425.58 644.891 1425.49 645.612 1425.14 646.245C1424.79 646.877 1424.21 647.382 1423.49 647.674C1421.83 648.302 1421.68 649.388 1421.3 650.518C1420.99 651.464 1420.78 652.434 1420.68 653.416C1420.54 654.681 1420.16 655.748 1418.3 656.107L1420.3 656.78C1419.64 657.605 1419.14 658.242 1418.5 659.076C1417.05 657.569 1415.61 658.081 1414.1 658.843C1411.63 660.099 1409.17 661.409 1406.6 662.485C1404.95 663.176 1403.22 664.038 1401.2 663.32C1400.8 663.176 1400.21 663.58 1399.64 663.706C1399.13 663.857 1398.6 663.945 1398.07 663.966C1397.9 663.966 1397.75 663.454 1397.6 663.176C1397.23 663.485 1396.83 663.755 1396.41 663.984C1395.9 664.193 1395.36 664.312 1394.81 664.334C1389.81 664.513 1384.72 664.863 1379.7 663.768C1376.19 662.867 1372.46 662.892 1368.97 663.84C1366.38 664.594 1363.38 664.647 1361.31 662.27L1358.83 665.114C1355.71 663.32 1352.83 661.526 1349.69 660.027C1347.17 658.825 1345.3 659.39 1343.39 661.355C1343.16 661.69 1342.9 662.008 1342.61 662.306C1341.68 663.006 1340.75 663.625 1339.62 662.36C1339.4 662.118 1338.52 662.36 1337.86 662.36L1339.26 665.15C1338.39 665.58 1337.4 665.764 1336.41 665.679C1335.42 665.595 1334.49 665.244 1333.73 664.674C1333.03 664.194 1332.28 663.788 1331.49 663.463C1329.16 662.477 1326.86 661.786 1324.29 663.06C1323.23 663.582 1321.99 663.751 1320.81 663.535C1317.81 662.844 1315.01 663.688 1312.17 664.028C1309.65 664.324 1307.49 665.482 1305.26 666.72C1302.52 668.077 1299.57 669.072 1296.51 669.671C1293.02 670.506 1289.33 670.954 1286.32 673.332C1283.31 675.709 1279.02 675.745 1276.69 673.457C1275.39 672.183 1273.29 671.08 1273.87 668.765C1273.96 668.379 1273.56 667.572 1273.24 667.5C1271.65 667.141 1271.57 665.823 1271.01 664.872C1269.63 662.495 1268.22 660.126 1267.11 657.695C1266.44 656.188 1265.49 655.712 1264.46 655.901C1263.44 656.614 1262.5 657.416 1261.66 658.296C1260.51 659.821 1260.6 659.875 1258.87 659.884L1258.39 658.942C1256.77 656.87 1256.77 656.87 1257.39 655.282C1256.07 654.151 1253.56 655.748 1252.84 653.434L1250.71 654.654L1247.03 652.958C1246.6 654.151 1246.23 655.21 1245.93 656.053C1246.3 657.686 1246.71 659.202 1246.93 660.745C1247.17 662.145 1247.24 663.553 1247.4 665.105C1245.4 664.127 1245.4 664.145 1243.29 664.396C1241.18 664.648 1238.98 664.935 1236.82 665.078C1232.13 665.365 1228.4 663.768 1227.42 660.485C1226.32 656.771 1222.5 655.712 1220 653.38C1219.83 653.227 1219.45 653.254 1219.16 653.201L1218.7 649.468C1216.03 649.54 1216.13 649.406 1213.77 647.925C1212.77 647.28 1211.17 647.235 1209.83 647.028C1209.15 646.921 1208.41 647.163 1207.73 647.028C1205.91 646.8 1204.1 646.48 1202.32 646.068C1201.63 645.922 1200.91 645.916 1200.22 646.051C1199.53 646.186 1198.88 646.459 1198.32 646.849C1197.5 647.306 1196.62 648.042 1195.78 648.024C1192.64 647.952 1190.03 649.406 1187.26 650.276C1184.82 651.072 1182.67 652.464 1181.05 654.295C1180.28 655.138 1178.59 655.327 1177.3 655.757C1176.65 655.907 1175.98 656.015 1175.3 656.08C1175.41 655.318 1175.55 654.636 1175.58 653.945C1175.61 653.254 1175.52 652.572 1175.49 651.891C1173.81 652.196 1173.83 650.993 1173.65 650.096C1173.27 648.239 1172.52 646.669 1170.45 645.943L1169.7 648.526L1168.83 648.347C1169.03 647.45 1169.23 646.553 1169.46 645.566C1167.98 645.019 1167.4 645.566 1167.6 646.849C1167.81 647.816 1168.08 648.772 1168.41 649.711L1168.11 649.971C1167.82 650.087 1167.37 650.393 1167.27 650.312C1166.04 649.415 1164.65 648.661 1164.16 647.037C1163.59 645.135 1162.16 644.669 1160.28 645.665C1158.28 646.759 1156.36 648.042 1154.22 649.352C1148.98 647.073 1146.87 639.143 1150.5 635.797H1156.1C1155.36 634.523 1155.81 632.648 1153.65 632.818C1152.73 633.5 1151.93 634.11 1151.19 634.666C1149.19 633.276 1148.61 631.76 1149.88 629.625C1147.8 629.768 1147.06 629.059 1146.78 627.471C1146.61 626.011 1145.94 624.636 1144.85 623.542C1143.84 622.697 1142.96 621.741 1142.22 620.698C1138.68 615.863 1137.83 610.965 1141.39 605.878L1149.39 606.416C1148.71 605.98 1148.07 605.5 1147.48 604.981C1148.67 603.088 1146.48 603.187 1145.76 602.46C1142.88 605.34 1142.59 605.313 1140.43 602.164C1140.14 601.742 1139.78 601.366 1139.49 601.016C1138.3 600.863 1137.21 600.702 1136.11 600.594C1135.56 600.57 1135.03 600.358 1134.64 600.003C1134.25 599.647 1134.03 599.173 1134.01 598.674C1133.5 596.055 1132.89 595.723 1129.7 595.687C1128.18 595.687 1126.7 595.436 1125.15 595.301C1125.06 596.198 1124.98 596.961 1124.91 597.706C1122.91 597.454 1121.91 595.983 1120.15 595.418C1118.6 594.933 1117.73 595.221 1117.15 596.028C1115.68 598.038 1114.48 600.208 1113.08 602.46C1107.89 603.07 1102.89 598.872 1102.15 593.041C1103.77 592.143 1105.4 591.309 1107.75 590.062L1102.52 588.124C1102.98 589.865 1102.79 590.959 1101.52 591.659C1099.52 591.21 1098.27 590.25 1098.07 588.456C1095.33 588.456 1093.8 587.721 1091.77 585.442C1086.2 586.205 1084.05 585.272 1081.51 581.046C1082.82 580.221 1082.82 580.221 1082.27 578.714C1082 579.71 1081.8 580.409 1081.61 581.118C1080.85 581.034 1080.08 581.103 1079.36 581.32C1078.64 581.537 1077.98 581.897 1077.43 582.374C1076.43 583.271 1074.67 583.603 1073.04 584.267C1072.04 580.93 1069.75 579.557 1066.49 579.369C1064.05 581.71 1061.73 582.553 1061.12 581.244L1062.19 579.97L1059.78 578.023C1058.08 579.642 1055.75 580.607 1053.27 580.714C1053.95 581.064 1054.27 581.19 1054.49 581.351C1054.71 581.513 1055.14 581.818 1055.49 582.087C1053.31 583.146 1053.19 583.11 1051.82 581.378C1050.82 580.149 1050.29 578.507 1048.62 578.57L1047.53 575.493C1044.45 577.018 1044.53 577.036 1042.93 579.144C1042.16 580.194 1041.42 581.235 1039.76 581.504C1037.85 581.809 1037.05 583.298 1036.24 584.742C1035.49 586.143 1034.47 587.416 1033.24 588.501C1032.74 588.923 1031.4 589.757 1030.35 588.698C1028.97 587.299 1027.83 588.205 1026.63 588.986C1027.39 592.637 1028.13 596.234 1028.92 600.02L1023.55 600.809C1021.21 601.15 1019.15 601.016 1018.01 598.701C1017.63 598.209 1017.05 597.864 1016.4 597.732C1013.88 597.051 1011.32 596.458 1008.84 595.857C1007.98 596.755 1008.84 599.231 1005.84 597.266C1006.84 599.859 1007.58 601.877 1008.3 603.824C1008.04 604.513 1007.49 605.088 1006.78 605.434C1006.06 605.78 1005.23 605.871 1004.44 605.69C999.443 604.793 994.924 606.076 990.445 607.906C989.678 608.295 988.824 608.525 987.945 608.578C985.336 608.462 983.686 609.772 982.166 611.377C981.266 612.328 980.336 613.243 979.167 614.454L977.697 610.866C976.757 611.216 975.467 611.35 975.017 611.969C974.567 612.588 974.237 613.441 973.208 613.351C972.259 613.309 971.333 613.076 970.498 612.669C969.941 612.3 969.299 612.048 968.619 611.931C967.939 611.815 967.238 611.837 966.569 611.996C963.159 612.705 963.119 612.544 962.17 609.305C962.058 609.007 961.91 608.722 961.73 608.453C959.29 608.695 956.85 609.296 954.491 609.09C950.142 608.722 947.382 610.714 945.102 613.495C942.823 616.276 941.443 616.868 937.854 615.827C937.249 615.593 936.58 615.528 935.934 615.642C935.288 615.756 934.695 616.042 934.234 616.464C933.234 617.244 931.705 617.361 930.485 617.971C929.265 618.581 928.355 619.299 927.216 619.846C926.796 620.043 926.136 619.846 925.636 619.846C924.796 619.074 925.966 617.621 924.286 617.155C922.606 616.688 922.866 618.169 921.866 618.411L925.326 620.967C924.376 625.552 921.976 627.606 916.457 628.566C915.758 628.597 915.056 628.533 914.378 628.378C914.258 627.301 914.168 626.449 914.068 625.507C910.748 625.058 907.659 623.775 904.349 625.202C903.621 625.545 902.796 625.69 901.977 625.618C901.159 625.546 900.381 625.261 899.74 624.798C898.74 625.3 897.99 626.009 897.25 626C895.311 626 894.251 626.978 893.251 628.162C890.962 630.854 887.812 631.796 884.253 631.616C882.813 631.544 881.043 631.993 880.463 630.889C880.413 628.404 880.533 626.458 880.283 624.547C880.023 622.439 878.924 621.856 876.794 622.214C875.444 622.439 874.084 622.537 872.705 622.699C872.645 621.963 872.615 621.551 872.575 621.156L869.385 621.721C870.265 620.896 870.995 620.035 872.455 620.483C872.905 620.618 873.685 619.9 874.314 619.586C874.965 619.502 875.609 619.385 876.244 619.236C876.344 619.236 876.244 618.716 876.244 618.438L874.784 618.536C874.004 616.527 873.365 616.105 871.415 616.554C868.865 617.146 866.356 617.828 863.556 618.536C863.089 617.556 862.753 616.529 862.556 615.477C862.496 614.58 862.986 613.611 863.386 612.095C861.777 613.225 860.697 614.141 859.457 614.84C856.713 616.289 854.377 618.284 852.628 620.671C850.779 623.3 848.509 623.551 845.569 621.811C844.737 621.252 843.94 620.653 843.18 620.017C842.02 620.725 840.99 621.434 839.88 622.026C839.37 622.304 838.341 622.636 838.201 622.475C837.141 621.273 834.491 622.403 834.101 620.214C834.101 620.044 833.101 619.999 832.682 619.909C832.482 621.479 832.302 622.95 832.122 624.394C831.662 623.381 832.122 622.062 830.262 622.331C829.532 623.741 828.91 625.195 828.402 626.682C828.007 628.39 827.766 630.124 827.682 631.867C827.572 633.491 827.682 635.124 827.682 636.694C825.683 636.586 824.003 636.55 822.363 636.38C820.724 636.209 819.124 635.617 817.544 635.734C814.545 635.94 813.955 633.94 813.025 632.217C812.385 631.033 811.815 629.813 811.025 628.279L809.865 629.472C808.946 630.369 807.796 630.934 806.476 630.369C804.906 629.714 803.136 629.113 802.017 628.028C800.357 626.431 798.567 626.341 796.378 626.646C795.91 627.401 795.375 628.121 794.778 628.799C791.778 631.795 788.979 632.63 785.3 630.261C784.46 629.723 783.39 629.624 782.95 628.404C782.69 627.696 781.06 627.453 780.23 626.817C776.731 624.125 773.292 621.362 769.722 618.527C767.663 618.985 765.633 620.95 763.173 619.335C763.023 617.541 762.883 615.809 762.763 614.096C764.663 615.136 764.403 617.855 767.363 618.42L764.433 613.826C763.9 613.928 763.37 614.036 762.843 614.149C761.114 613.584 762.633 611.763 761.174 610.929L759.024 611.907C756.864 610.624 754.745 609.332 752.205 610.05C750.975 612.319 751.545 614.392 752.705 616.482C749.376 618.787 745.916 618.456 742.477 617.379L739.667 620.797L742.667 621.775L742.007 622.484C743.527 624.394 745.556 621.685 747.516 623.246C747.188 624.634 746.688 625.985 746.026 627.274C745.026 628.817 743.477 630.055 742.327 631.526C740.107 634.37 739.597 637.734 738.877 641.036C738.621 642.478 738.101 643.872 737.338 645.162C736.564 646.129 736.208 647.315 736.338 648.5C736.539 649.75 736.816 650.99 737.168 652.214C737.658 653.927 738.228 655.623 738.857 657.596L733.318 656.188C733.248 657.219 733.188 657.982 733.138 658.736L731.889 657.399C731.669 658.161 731.519 658.664 731.209 659.687L733.088 658.664L734.408 660.359C732.629 661.804 730.829 663.248 728.979 664.737L728.209 662.405C727.419 664.585 726.814 666.817 726.4 669.079C726.39 669.304 726.323 669.523 726.203 669.721C726.083 669.918 725.914 670.088 725.708 670.217C725.503 670.345 725.267 670.429 725.019 670.462C724.771 670.495 724.518 670.477 724.28 670.407C721.55 669.922 718.891 669.16 717.721 666.648C717.201 665.545 716.721 664.854 715.511 665.015C715.411 664.414 715.331 663.948 715.231 663.401C714.082 664.36 713.092 665.078 712.232 665.912C710.132 667.985 710.182 667.94 707.333 666.81C704.203 665.563 701.484 663.777 697.824 663.221C690.043 662.076 682.638 659.405 676.138 655.398C674.318 654.268 672.279 653.425 670.249 652.393C669.499 654.797 668.869 656.762 668.319 658.52C667.32 658.305 666.47 658.143 665.64 657.946C663.64 657.453 661.641 656.95 659.641 656.412C656.641 655.614 655.372 653.855 655.552 651.029C655.567 650.413 655.422 649.803 655.126 649.247C654.831 648.691 654.395 648.204 653.852 647.827C653.682 648.966 653.552 649.818 653.412 650.769L649.913 649.495C650.133 650.455 650.273 651.092 650.443 651.855L648.253 651.415L647.923 651.927L650.922 654.295C651.012 655.551 651.442 656.879 651.112 658.018C650.652 659.552 649.023 659.812 647.113 659.669L649.013 655.945L644.933 656.609C645.173 657.435 645.413 658.26 645.653 659.067C644.64 658.974 643.66 658.693 642.774 658.242C642.084 657.964 640.934 657.946 640.694 657.506C639.834 655.954 638.694 655.99 637.335 656.888C637.125 656.215 636.985 655.766 636.875 655.443C635.985 656.439 635.055 657.462 634.185 658.413V661.257C631.616 661.095 629.326 660.978 627.046 660.79C624.367 660.584 621.697 659.041 619.048 660.79C618.908 660.889 618.608 660.79 618.398 660.79C609.999 661.239 601.601 661.606 593.342 659.848C590.873 659.319 587.683 659.902 586.423 656.502C585.483 657.991 584.584 658.224 583.184 657.776C580.434 656.879 577.905 655.578 577.415 652.958C577.07 650.909 577.371 648.815 578.285 646.912C579.131 644.98 579.393 642.882 579.045 640.829L574.775 640.56C572.906 637.169 574.395 634.469 576.925 631.948L574.925 630.997C570.706 631.293 570.116 634.316 569.096 636.99C569 637.451 568.795 637.888 568.496 638.273C567.756 638.91 567.497 639.789 566.497 640.372C563.977 641.753 561.568 641.161 559.118 640.695C558.638 640.605 558.338 639.744 557.908 639.179C554.329 640.192 551.599 637.322 548.13 637.268C548.94 639.798 548.58 640.856 546.36 642.04C544.96 642.785 543.441 643.341 541.991 644.005C540.751 644.579 538.991 644.902 538.421 645.799C537.422 647.378 535.842 647.872 534.282 648.347C531.343 649.186 528.606 650.513 526.214 652.259C523.634 654.196 519.365 653.784 518.495 651.361C517.965 649.863 516.495 649.495 515.865 648.248C515.16 646.992 514.337 645.792 513.406 644.66C512.951 644.832 512.51 645.033 512.086 645.261C510.086 646.544 508.087 646.804 505.967 645.414C503.967 644.122 501.818 643.009 499.698 641.825C499.095 641.446 498.416 641.175 497.698 641.027C494.74 640.785 491.872 639.987 489.28 638.685C487.09 637.474 482.931 638.64 482.281 640.794C481.551 643.099 479.781 644.095 477.732 645.127L477.032 643.449L479.541 642.139C479.431 641.96 479.322 641.78 479.222 641.592L476.612 642.893L474.092 640.955C473.742 641.444 473.347 641.906 472.913 642.336C471.053 644.014 470.383 644.077 467.973 642.695C466.694 641.96 465.514 641.081 464.284 640.264C462.984 641.359 461.435 642.283 460.485 643.557C459.295 645.162 458.815 647.432 455.806 645.781C455.696 645.728 455.366 645.862 455.256 645.979C453.726 647.629 451.686 647.127 449.407 646.93L451.626 649.872C450.315 650.843 448.939 651.741 447.507 652.563C447.097 652.778 446.644 652.917 446.173 652.973C445.703 653.028 445.225 652.999 444.767 652.886C441.428 651.568 437.899 651.46 434.379 651.209C435.099 649.262 435.099 649.262 433.379 648.473C433.749 649.495 434.049 650.357 434.379 651.209C430.85 653.254 430.67 653.963 432.599 657.246C432.837 657.734 433.005 658.246 433.099 658.772L428.63 660.512C428.85 659.848 429.21 659.094 427.99 659.005C427.72 659.005 427.16 659.426 427.17 659.642C427.17 660.467 427.73 660.871 428.69 660.629L431.54 661.283C430.54 662.342 429.83 663.14 429.06 663.975C428.71 663.562 428.47 663.266 428.23 662.997L425.951 664.432C426.081 665.051 426.171 665.518 426.281 666.02L427.64 665.024C427.82 667.716 427.35 667.85 424.071 666.657C422.251 667.177 420.851 667.913 419.462 667.904C416.865 667.739 414.281 667.44 411.723 667.007C411.723 667.007 412.783 665.258 410.613 665.93C410.923 666.828 412.043 667.725 410.613 668.622C408.793 669.77 407.004 670.003 405.134 668.936C405.074 668.092 405.064 667.321 404.944 666.558C404.864 666.038 404.694 665.123 404.464 665.096C403.74 664.971 402.989 665.106 402.375 665.473C399.795 667.832 396.156 669.268 394.626 672.56C394.527 672.791 394.375 673.002 394.18 673.178C393.986 673.354 393.753 673.492 393.496 673.583C391.316 673.986 390.937 675.449 390.647 677.063C390.437 678.221 390.037 679.351 389.807 680.508C389.347 682.877 387.807 683.989 385.138 684.222C384.042 684.303 382.988 684.637 382.078 685.191C380.788 686.088 379.828 687.434 377.999 687.371C376.169 687.308 375.669 689.417 373.919 689.497H373.08L370.97 686.357C370.2 687.111 369.7 687.604 368.97 688.322L372.63 690.556C372.595 691.714 372.28 692.851 371.706 693.889C371.132 694.927 370.314 695.84 369.308 696.565C368.301 697.291 367.131 697.811 365.878 698.09C364.625 698.369 363.319 698.4 362.051 698.181C362.051 695.302 360.452 693.068 358.672 690.807C355.913 692.96 353.553 693.687 352.803 692.682L353.423 690.933L351.423 690.682C351.333 690.215 351.243 689.784 351.113 689.076L349.294 689.928C348.294 690.466 347.114 691.614 346.294 691.426C344.434 690.969 345.384 692.574 344.664 692.799C341.735 691.973 341.665 691.552 341.185 689.12C340.245 684.24 339.835 682.778 333.766 684.07C331.017 684.653 328.147 684.967 325.668 686.519C324.301 687.361 322.718 687.876 321.068 688.017C317.689 688.241 314.28 688.089 310.22 688.089C311.52 683.424 310.76 678.894 309.83 674.184C308.241 674.471 306.291 674.3 305.451 675.081C303.141 677.234 300.452 679.208 299.332 682.258C298.332 684.949 295.853 685.622 292.883 684.249C287.254 681.666 281.885 678.813 278.006 674.103C277.675 673.746 277.256 673.463 276.782 673.276C276.309 673.089 275.793 673.004 275.276 673.026C274.655 673.197 273.995 673.219 273.362 673.09C272.729 672.961 272.145 672.686 271.667 672.291C270.427 671.482 269.124 670.753 267.767 670.111C266.538 669.537 264.988 668.487 263.968 668.774C261.249 669.546 258.839 668.326 256.289 668.362C255.19 668.362 254.01 667.994 253.02 668.263C249.301 669.25 245.811 668.442 242.312 667.5C241.542 665.141 240.812 664.334 238.962 664.63C236.483 665.015 234.063 665.742 231.624 666.352C230.264 666.684 228.854 667.464 227.574 667.303C226.294 667.142 225.135 666.083 223.775 665.338C222.265 667.482 220.665 669.689 219.136 671.932C218.592 672.66 217.867 673.266 217.018 673.7C216.169 674.135 215.219 674.387 214.243 674.436C213.268 674.486 212.292 674.332 211.394 673.986C210.496 673.64 209.7 673.112 209.067 672.443C208.014 671.408 206.877 670.443 205.668 669.555C204.687 671.278 203.575 672.939 202.339 674.525C201.589 675.335 200.666 676.001 199.623 676.483C198.58 676.966 197.44 677.255 196.27 677.333C196.03 675.825 195.83 674.211 193.67 673.574L192.76 675.52C192.43 674.184 192.23 673.385 192.02 672.56L188.931 675.009C189.141 676.4 189.341 677.754 189.521 679.001C188.391 680.185 187.101 679.898 185.751 679.845C184.022 679.746 182.162 678.723 180.462 680.158C181.142 681.055 182.402 681.818 180.882 682.957C178.883 682.724 177.603 681.558 176.483 679.961C175.506 680.28 174.503 680.532 173.483 680.715C172.676 680.9 171.822 680.82 171.074 680.49C168.844 678.777 167.075 679.593 165.215 680.984C164.517 681.465 163.762 681.877 162.965 682.213C162.641 682.299 162.301 682.327 161.965 682.294V680.67L159.426 680.185C156.966 682.715 154.607 685.299 150.157 684.052C150.178 682.912 149.898 681.784 149.34 680.76C148.783 679.735 147.963 678.844 146.948 678.158C145.768 678.409 144.158 677.862 143.948 679.656C143.948 679.845 143.469 680.078 143.169 680.149C141.169 680.616 139.349 682.195 136.92 680.876C136.02 680.383 134.6 680.688 133.3 680.634C132.9 682.922 134.3 684.222 135.56 685.55C134.47 688.654 131.401 689.381 128.561 689.856C126.341 690.233 123.792 690.071 122.222 688.062C122.322 686.734 122.402 685.505 122.502 684.24C119.783 684.438 119.653 684.608 120.502 686.223C120.822 686.806 121.062 687.425 121.222 687.775C119.983 690.018 117.343 688.215 115.723 690C114.723 691.139 111.984 690.942 110.234 691.713C108.549 692.561 106.941 693.527 105.425 694.602C103.325 694.055 101.516 693.705 99.836 693.104C98.1563 692.503 96.6365 691.596 94.8368 690.753C95.2279 689.884 95.764 689.074 96.4266 688.349C98.2163 686.896 98.4262 685.128 98.3162 683.236C96.6365 682.931 95.0568 682.527 93.437 682.339C92.0973 682.213 90.5475 681.746 89.6277 683.289C88.8578 684.572 87.978 685.801 87.2481 686.878H83.6587C83.7951 687.153 83.9055 687.438 83.9887 687.73C83.9842 687.803 83.96 687.874 83.9182 687.936C83.8764 687.999 83.8182 688.051 83.7487 688.089C81.3591 688.457 82.3389 689.766 82.5689 690.987L84.8685 690.556C85.2385 691.74 85.5484 692.745 85.9283 693.983L81.869 695.624C82.039 697.715 82.269 699.859 82.3989 702.003C82.7989 708.39 79.8793 710.911 72.8105 710.427C71.7252 710.457 70.6448 710.571 69.5811 710.768C66.5327 710.91 63.5534 711.635 60.8426 712.894C60.2239 713.079 59.575 713.17 58.9229 713.163L55.8234 713.576C54.4452 712.676 52.7941 712.174 51.0901 712.137C49.3861 712.1 47.71 712.53 46.285 713.369C45.6033 713.775 44.8387 714.056 44.0354 714.195C43.1956 714.374 42.2957 714.32 41.4359 714.437C37.9465 714.93 36.7467 714.347 35.5669 711.333C35.4285 710.868 35.1404 710.449 34.7385 710.13C34.3366 709.811 33.8388 709.605 33.3073 709.539C32.3774 709.377 31.4776 709.063 30.4177 708.776C30.5077 712.113 27.2083 713.728 25.7685 716.294C25.1187 717.451 24.0288 718.608 23.3889 719.882C22.7491 721.156 21.9892 722.654 21.2993 724C20.1295 723.309 19.2496 722.717 18.2998 722.206C14.9704 720.546 11.301 719.344 9.44131 715.926C9.22135 715.513 8.12154 715.477 7.91157 715.406C5.91191 717.038 4.26219 718.456 2.50249 719.712C1.50266 720.438 0.392854 719.936 0.212884 718.608C0.0360984 717.026 -0.0306832 715.435 0.0129214 713.845C0.0129214 478.965 0.0129214 244.084 0.0129214 9.20431C0.0129214 8.40589 0.0129214 7.60753 0.0129214 6.80911C0.0129214 6.01069 0.202885 5.31977 0.35286 4.18941L8.54147 7.29358C9.5413 6.78223 9.39132 5.94791 9.02139 5.04184C8.61053 4.25258 8.39759 3.39202 8.39759 2.52092C8.39759 1.64981 8.61053 0.789256 9.02139 0C9.97182 0.156364 10.9348 0.243404 11.9009 0.260196C14.4476 0.078924 17.0087 0.145069 19.5396 0.457533C22.6791 0.870201 26.1985 0.64589 27.4583 4.23431C27.632 4.6945 27.8391 5.14401 28.0781 5.57997C29.168 7.60743 29.4179 9.95782 32.7573 10.7114C34.4271 11.0792 35.5769 13.2772 36.9667 14.6588L41.126 11.2497L40.1761 10.8102L41.6259 8.7378C43.8728 9.2909 45.8132 10.5687 47.0749 12.3262C47.8148 13.2233 47.3849 14.5153 48.6646 15.3855C49.9444 16.2557 50.4843 18.2112 51.7641 18.588C53.0439 18.9648 54.8136 17.978 56.6033 17.5295C56.9932 18.2113 57.4232 18.9289 57.8731 19.7004L62.5223 15.7173L76.32 19.0006C75.5701 20.6423 74.9002 22.0778 74.1103 23.8002C74.6802 24.2039 75.3301 25.0113 76.11 25.1639C77.5698 25.424 79.3395 25.747 80.5792 25.2357C81.4068 24.9114 82.2979 24.7379 83.2007 24.7256C84.1036 24.7133 85.0002 24.8623 85.8384 25.1639C87.3117 25.5017 88.8034 25.7711 90.3076 25.9712C89.5977 22.2571 91.6774 19.1264 90.4876 15.8251C90.3976 15.1337 90.3976 14.4351 90.4876 13.7437C93.727 13.8424 96.7465 14.0308 99.766 13.977C100.485 13.8997 101.213 14.0325 101.842 14.3557C102.47 14.6789 102.966 15.1753 103.255 15.7712C104.456 18.1499 106.18 20.286 108.325 22.0509C109.714 23.2889 110.494 24.9127 112.384 25.9085C114.603 27.0748 114.383 28.2498 111.934 29.138C110.564 29.6493 110.934 30.412 111.394 31.0489C111.744 31.5334 112.544 31.7576 113.254 32.1613L115.363 27.9001C121.632 27.4874 126.012 30.6631 127.461 36.6199C123.462 36.8621 121.072 38.9434 119.633 41.7334C120.729 42.8051 121.731 43.9509 122.632 45.1604C123.113 46.1833 123.449 47.2563 123.632 48.3541C123.632 48.4079 123.352 48.5334 123.182 48.6321C122.492 48.0938 121.792 47.5376 121.182 47.0442C119.643 47.7888 120.602 48.6501 120.712 49.4396H117.413L121.062 52.1309C120.862 50.857 120.752 50.1303 120.632 49.4396C122.112 49.4396 121.792 50.9646 122.202 51.1619C125.452 52.7229 128.761 54.2659 132.64 54.3108C134.279 54.3963 135.912 54.5641 137.53 54.8132L136.88 53.8173C139.229 53.7097 139.229 53.7098 140.519 55.4681C138.259 56.4908 139.699 58.0158 139.889 59.3883C142.509 60.0432 145.128 60.6803 147.888 61.3532C148.354 60.6603 148.926 60.0291 149.588 59.4781C150.537 58.895 151.927 58.0068 152.717 58.267C155.177 59.2253 157.559 60.3375 159.846 61.5952C162.475 60.3751 163.845 57.5403 165.715 55.145C166.085 54.6696 165.885 53.7994 165.845 53.1086C165.805 52.4178 165.675 51.8079 165.525 50.7942L168.204 51.0632C168.994 52.4178 168.994 52.4178 171.284 51.9603L168.554 50.7134C169.884 48.0669 171.254 49.897 172.634 50.7134C172.894 50.2918 173.134 49.8702 173.383 49.4486L175.383 49.6459L173.963 48.3002L175.073 46.506C178.373 46.9366 178.073 49.8342 179.402 51.5925L182.662 50.5071C183.752 51.574 184.932 52.5638 186.191 53.4676C187.601 54.3647 189.261 55.6115 190.781 55.5756C194.28 55.5128 197.669 57.4506 201.209 56.0062C201.638 55.897 202.096 55.9322 202.499 56.105C204.929 56.9302 207.305 57.8765 209.617 58.9398C210.267 59.3043 211.026 59.481 211.792 59.4457C212.557 59.4104 213.292 59.1649 213.897 58.7424C214.793 58.2242 215.83 57.9358 216.896 57.9082C218.806 57.9082 220.715 58.2849 222.895 58.5182C223.215 55.7013 223.515 53.1895 223.825 50.561C224.595 51.0813 225.345 51.6106 226.155 52.1668C229.284 48.5784 232.153 44.8104 235.473 41.5001C239.142 37.9117 240.532 37.6964 245.331 40.8632C245.591 41.0336 245.751 41.3297 246.001 41.5091C248.501 43.3033 251 45.0348 254.18 45.8781C256.309 46.4612 257.979 47.3761 258.699 49.5651C258.936 50.275 259.383 50.9141 259.992 51.4147C260.601 51.9153 261.35 52.2588 262.158 52.4088C264.206 53.0429 266.195 53.8199 268.107 54.7324C268.319 54.7685 268.536 54.7685 268.747 54.7324L269.927 53.037C270.827 53.1538 271.683 53.458 272.428 53.9253C273.173 54.3927 273.785 55.0103 274.216 55.7283C274.517 56.3186 275.054 56.7862 275.72 57.0387C276.387 57.2912 277.134 57.3102 277.816 57.0919C280.725 56.5178 283.045 57.0918 284.255 59.7024L286.904 59.3973C287.114 60.2944 287.304 61.1915 287.564 62.2949C290.404 61.7567 293.343 59.6665 295.503 62.8153L293.713 65.7669L297.632 68.1621L298.822 66.1885C301.282 66.4127 304.051 65.4349 305.331 67.9827C308.041 67.3816 308.331 65.3453 309.25 63.6049C309.97 62.2323 310.54 60.7161 311.88 59.6575L313.59 59.559L315.969 61.9362C316.719 60.6444 317.329 59.6127 317.909 58.6259C317.639 58.5093 317.289 58.3568 316.909 58.2133C317.039 58.0428 317.169 57.8903 317.299 57.7288L322.298 56.9842C324.298 58.9488 324.908 58.8861 326.817 56.3562L328.927 57.3699C329.127 56.8944 329.177 56.2664 329.527 56.0422C331.047 55.145 334.656 55.1451 335.776 56.3383C336.938 57.5417 338.49 58.3886 340.215 58.7604L343.585 54.3288C343.997 54.2519 344.422 54.2519 344.834 54.3288C349.114 55.6744 353.483 55.5308 357.902 55.154C360.424 54.9403 362.961 54.8924 365.491 55.0106C370.75 55.2438 375.549 57.4685 380.748 58.0068C381.483 58.1866 382.166 58.5081 382.748 58.9488C383.658 59.4691 384.518 60.0612 385.317 60.5726C387.737 58.5989 389.997 56.706 392.316 54.8759C393.096 54.2479 394.236 53.9161 394.846 53.1984C397.135 50.5071 399.845 49.9956 402.845 51.736C403.248 51.9285 403.674 52.0819 404.114 52.1935C404.814 51.0991 405.454 50.0584 406.114 49.0537C407.274 47.3223 408.404 45.5729 409.663 43.9043C410.563 42.7201 411.883 41.7243 413.553 42.1101C415.267 42.4408 416.9 43.0488 418.372 43.9043C420.863 45.3314 423.647 46.2983 426.56 46.7483C429.56 47.3045 432.06 47.8696 433.769 50.3367C434.437 51.1078 435.368 51.6621 436.419 51.9156C438.349 52.4449 440.418 52.6331 442.348 53.0996C444.278 53.5661 446.127 54.1314 447.987 54.7324C449.048 55.0252 450.058 55.451 450.986 55.9973C454.706 58.4105 457.985 58.4644 461.854 56.0781C462.501 55.7448 463.169 55.4452 463.854 55.181C464.484 55.9614 464.994 56.5984 465.514 57.2084C467.324 59.3077 468.873 61.8286 468.833 64.2508C468.737 66.1379 469.259 68.009 470.333 69.6334L477.332 69.1579C476.892 67.1843 478.222 66.0181 480.331 65.1748L480.641 67.1574C483.011 66.7358 485.64 70.5663 487.83 66.5742C492.239 67.0676 490.43 62.9859 492.719 61.3442C494.249 61.9632 495.909 63.1382 497.588 63.1921C500.718 63.1921 502.148 64.6814 503.327 66.8793C503.597 67.3727 504.327 67.6688 504.877 68.0455C505.747 67.4355 506.497 66.5204 507.367 66.4038C508.237 66.2871 509.516 66.8434 510.716 67.1484C514.536 63.9188 518.605 61.0031 524.504 64.0981C525.784 59.8907 524.944 55.9704 523.404 51.7989C525.124 51.7989 526.404 52.0949 527.493 51.754C531.173 50.5788 534.062 50.9108 535.992 54.3377C536.272 54.8311 537.802 55.3604 538.112 55.145C539.341 54.2479 540.491 54.8222 541.601 55.0465C544.24 55.5848 546.85 56.2844 549.52 56.9213C549.29 58.0068 549.09 58.9577 548.9 59.8369C550.319 60.3931 552.019 60.6803 553.069 61.5685C555.549 63.6856 558.208 63.282 561.068 62.7078C563.369 62.1099 565.484 61.0411 567.247 59.5857C570.246 57.4506 573.766 56.6342 577.175 55.5577C579.654 54.7772 581.124 55.8089 581.834 58.1055C582.214 59.3346 582.414 60.7969 583.294 61.694C584.027 62.395 584.594 63.2225 584.96 64.1262C585.326 65.0299 585.484 65.9911 585.424 66.9511C588.143 67.902 590.623 69.3373 593.202 69.4987C595.972 69.6692 597.461 70.6291 598.501 73.2755C600.551 71.4364 602.181 69.9025 603.91 68.4851C604.154 68.3158 604.439 68.202 604.742 68.1535C605.045 68.1051 605.357 68.1234 605.65 68.207C608.41 70.0729 610.929 72.0825 610.649 75.6619C610.479 77.8688 610.899 78.111 613.179 78.7479C615.058 79.2593 616.818 80.2013 618.718 80.5422C621.797 81.1253 622.227 83.5295 622.537 85.4224C622.767 86.8577 622.537 88.1856 623.797 89.3608C624.187 89.7376 624.057 90.5539 624.187 91.3344C624.717 91.1819 625.367 91.1729 625.667 90.8768C627.126 89.3697 628.596 89.935 630.096 90.7423C630.501 90.9057 630.865 91.1404 631.166 91.4329C632.096 92.6709 633.355 91.729 634.395 91.9533C635.435 92.1776 636.215 93.0119 637.115 93.5771L637.625 93.0837C637.065 92.3181 636.505 91.5646 635.945 90.8229C637.765 86.8308 642.404 84.956 645.773 86.4452L648.033 92.671C651.722 91.8367 654.662 91.9802 654.772 92.8235L652.232 93.7206C653.012 95.147 654.122 96.0262 655.472 95.748C656.868 95.5086 658.145 94.8809 659.121 93.9538C660.701 92.1596 661.231 91.5317 663.39 91.2625C664.44 91.1735 665.458 90.8881 666.378 90.4246C667.297 89.961 668.098 89.3296 668.729 88.5712C669.869 87.1179 670.729 85.6108 672.869 85.225C672.994 85.1743 673.103 85.0959 673.185 84.997C673.267 84.8981 673.32 84.7822 673.339 84.66C673.159 82.9554 674.598 82.6144 675.778 82.0223C678.258 84.3637 678.258 84.3638 680.027 81.9058C678.578 81.3227 676.648 81.0715 675.808 80.1116C674.738 78.8556 675.518 76.9538 676.238 75.626C677.075 74.0823 678.284 72.7249 679.777 71.6519C681.707 70.2794 682.287 70.5395 684.137 72.2709C685.04 73.1384 685.995 73.962 686.996 74.7379C687.772 75.242 688.584 75.7005 689.426 76.1105C692.195 73.0603 694.765 71.7058 695.815 72.576L694.445 74.5316C695.125 74.5764 695.565 74.72 695.745 74.5945C697.445 73.3295 700.024 74.424 701.574 72.8002L701.874 73.2576L704.793 73.0602C703.743 71.7953 702.794 72.513 701.874 73.2665C701.934 72.3246 701.984 71.3737 702.044 70.4497C705.443 70.5215 705.743 70.7279 707.123 74.119L712.732 71.9299L718.051 79.6091L723.68 75.7158C723.54 74.9712 723.36 74.0202 723.14 72.8719C727.749 72.8719 732.249 70.3421 736.888 74.101C737.232 72.5112 737.483 70.906 737.638 69.2924C737.698 67.7673 737.458 66.2423 737.348 64.6544C739.347 64.5558 740.937 64.3584 742.467 64.4302C744.746 64.5289 746.826 64.9775 747.596 67.3907C747.991 68.1958 748.566 68.9194 749.286 69.5167C750.146 70.4138 751.085 71.2303 751.985 72.0825C752.885 72.9348 754.985 71.7235 754.905 73.7151C757.804 74.6122 760.674 75.6708 763.633 76.4064C764.493 76.6217 765.633 76.0567 766.633 75.6799C767.417 75.3161 768.154 74.877 768.832 74.3702C771.162 72.8092 771.702 72.7554 773.502 74.5855C773.827 75.022 774.277 75.3721 774.805 75.5993C775.332 75.8265 775.918 75.9225 776.501 75.8773C776.981 75.0895 777.508 74.3258 778.081 73.5896C779.75 71.6698 781.75 71.0598 784.23 72.0735C786.158 72.9147 788.302 73.2741 790.439 73.1141C791.249 73.0573 792.01 72.7385 792.578 72.217C794.268 70.979 796.008 70.4228 798.057 71.5531C798.514 71.7517 798.994 71.9051 799.487 72.0107C801.047 70.1626 802.917 68.6107 803.816 66.6909C804.716 64.7711 804.546 62.5821 804.876 60.3214C806.406 61.4158 807.166 63.2461 809.386 62.4745C809.116 61.5057 808.846 60.5637 808.556 59.541C809.735 58.7246 810.825 57.5223 812.415 59.1281C812.585 59.3076 813.155 59.182 813.535 59.191C815.534 59.191 816.874 58.3568 818.034 56.6254L816.664 56.5625C816.324 56.5625 816.004 56.5625 815.394 56.4817C817.074 55.1002 818.394 55.145 819.224 56.4817C819.581 57.1975 819.892 57.9314 820.154 58.6796C821.153 60.8326 822.153 61.102 824.593 59.9985C824.806 59.8957 825.041 59.8373 825.283 59.8279C828.482 62.1873 831.182 64.4749 834.221 66.3229C837.643 68.3357 840.713 70.7939 843.33 73.6165C844.06 74.4239 844.899 75.1505 845.989 76.2091L849.329 71.0238C850.329 72.6296 851.668 73.0872 853.328 72.6655C853.488 72.1273 853.628 71.6607 853.898 70.8085L858.967 72.4682C859.637 71.5711 860.167 70.7816 860.867 69.7769L863.046 72.208C866.266 69.6782 869.045 71.2033 871.715 72.9168C874.115 70.2703 876.594 68.7541 880.193 70.3779C880.703 70.6201 881.473 70.3779 882.123 70.4318C884.573 70.6022 887.022 70.7907 889.342 70.9611C889.892 72.1094 888.642 74.2444 891.672 73.5447C891.162 72.4951 890.672 71.5173 890.232 70.5305C892.821 67.6598 896.301 67.247 900.35 69.5347C899.876 70.4453 899.65 71.4439 899.69 72.4483C899.73 73.4526 900.035 74.434 900.58 75.312C904.659 75.4914 909.258 73.2039 911.778 78.1021C913.778 75.0788 916.097 73.2757 919.947 74.9981C920.107 75.0699 920.377 74.9442 920.597 74.9083C924.866 74.1727 928.925 75.2942 932.985 76.1195C938.704 77.2947 943.833 80.3897 949.982 80.3718C950.208 80.3658 950.43 80.429 950.612 80.5511C950.932 80.8023 951.481 81.1252 951.451 81.3854C951.251 83.4846 953.351 83.9243 954.451 85.0456C957.87 83.4578 960.08 83.6909 962.45 85.826C961.89 87.082 961.33 88.3469 960.72 89.6926C963.199 91.8995 967.419 91.6304 969.138 94.7254C967.629 96.3044 965.419 97.5603 965.889 100.305L968.778 99.4979L972.488 101.884C974.207 100.09 975.917 101.059 977.787 102.351C978.017 101.508 978.017 100.619 978.327 100.557C980.121 99.9496 981.976 99.499 983.866 99.211C985.456 99.0046 987.145 99.4352 988.715 99.211C990.285 98.9867 991.345 98.9238 992.504 100.225C991.694 97.2821 994.634 95.9454 995.064 93.5232C997.833 94.4921 999.623 93.6131 1001.33 91.8637C1003.05 90.1873 1004.92 88.6446 1006.92 87.2525C1007.92 86.4899 1009.58 85.862 1010.49 87.0821C1012.7 90.0425 1017.25 91.0203 1018.43 94.806C1018.54 95.0344 1018.7 95.2407 1018.9 95.4132C1019.1 95.5856 1019.34 95.7208 1019.6 95.8109C1022.67 96.8785 1023.36 98.8071 1021.95 101.516C1024.48 102.288 1026.89 102.584 1028.95 101.516C1029.96 100.931 1031.13 100.59 1032.33 100.527C1033.53 100.465 1034.73 100.682 1035.82 101.158C1036.49 101.418 1037.39 101.158 1038.57 101.158C1036.77 98.8162 1037 97.0757 1038.66 95.2366C1039.42 94.3934 1040.23 92.707 1039.8 92.07C1038.98 90.8679 1039.85 90.2129 1040.15 89.4503C1041.08 87.0551 1042.21 84.7317 1043.28 82.3813C1043.41 81.9761 1043.64 81.6014 1043.95 81.2827C1044.26 80.964 1044.64 80.7088 1045.07 80.5343C1045.5 80.3598 1045.96 80.2701 1046.43 80.2714C1046.9 80.2728 1047.37 80.3652 1047.8 80.5422C1048.72 80.8113 1049.68 80.9638 1050.61 81.224C1053.11 81.9596 1055.61 82.4441 1057.97 83.7808C1060.51 85.2431 1062.85 87.2257 1066.18 87.3692C1066.81 87.3692 1067.38 88.1495 1068.02 88.5173C1069.6 89.4144 1071.12 90.8588 1072.8 91.0472C1075.98 91.4929 1079.04 92.486 1081.8 93.9718C1082.52 94.1934 1083.27 94.3468 1084.03 94.4293C1083.74 91.7829 1083.47 89.4862 1083.19 86.9743C1085.02 86.5437 1087.03 85.7992 1088.96 87.0462C1090.89 88.2931 1092.84 89.8361 1094.81 91.2625C1094.65 91.53 1094.51 91.809 1094.4 92.0968C1094.32 92.3645 1094.27 92.6377 1094.24 92.9133C1095.44 92.0162 1095.8 90.3117 1097.84 90.9487C1099.4 91.4421 1100.91 92.0609 1101.65 93.4873C1100.25 95.5686 1100.25 95.5688 1102.26 96.7888C1105.26 93.6848 1106.07 93.3619 1108.25 94.5371L1105.47 95.4342C1107.31 96.1609 1108.46 96.9412 1109.46 96.8964C1110.46 96.8515 1111.33 95.9095 1112.4 95.2815C1113.92 96.0889 1115.4 95.7032 1116.6 94.4563C1117.61 93.5399 1118.51 92.5395 1119.3 91.4688C1120.3 89.9438 1121.03 88.2574 1121.98 86.6964C1123.12 84.8035 1124.6 84.2472 1126.65 84.9918C1129.3 85.8889 1131.91 86.9835 1134.52 88.0331C1135.52 88.4457 1136.52 88.993 1138.13 89.8273L1134.13 81.547C1136.13 80.4884 1137.81 79.6093 1139.44 78.6135C1139.97 78.255 1140.63 78.0732 1141.29 78.0994C1141.96 78.1256 1142.59 78.358 1143.09 78.7569C1143.82 79.3103 1144.75 79.6095 1145.71 79.6002C1147.55 79.1785 1148.62 80.0666 1149.71 80.9368C1152.58 80.2999 1155.45 80.0398 1157.71 78.1469C1158.08 77.9818 1158.48 77.884 1158.89 77.8594C1159.3 77.8347 1159.72 77.8835 1160.11 78.0033C1161.75 78.3621 1163.33 78.9005 1165.01 79.4297C1165.17 76.9717 1166.13 75.4017 1168.76 74.9442C1169.25 74.8635 1169.67 74.406 1170.16 74.2624C1173.63 73.2577 1177.05 72.1094 1180.58 71.3648C1184.11 70.6202 1188.1 71.1852 1191.58 69.6781C1193.18 68.9963 1193.95 70.0999 1194.97 71.3738C1196.26 70.5974 1197.46 69.6948 1198.53 68.6824C1199.13 67.9173 1199.95 67.3204 1200.92 66.9614C1201.88 66.6024 1202.93 66.4961 1203.96 66.655C1203.96 67.0946 1204.18 67.4623 1204.04 67.6596C1203.1 68.9873 1204.64 69.4539 1205.25 70.0191C1205.6 70.3421 1206.83 69.8397 1207.67 69.8038C1208.15 69.8038 1207.92 67.8034 1208.95 69.4361C1209.32 70.0102 1210.59 69.0323 1210.74 70.5126C1210.85 71.634 1212.14 72.6655 1212.91 73.733C1215.24 72.4771 1218.45 72.5221 1219.08 69.4361C1222.86 72.1274 1225.07 75.1955 1223.8 79.7079L1226.72 79.9591C1227.09 79.5106 1227.37 79.2054 1227.61 78.8824C1230.52 75.1236 1233.55 75.2043 1237 77.9853C1238.37 79.1479 1240.06 79.9598 1241.89 80.3358C1244.53 80.7037 1247.58 82.13 1249.89 79.1875L1250.89 80.5511C1249.76 80.7395 1248.52 80.7664 1248.12 82.1211C1249.8 82.4889 1250.98 82.3542 1250.77 80.4524L1253.92 83.35L1256.08 81.2509L1257.32 82.148C1257.68 81.6815 1258.03 81.2509 1258.39 80.7575C1262.19 82.8118 1264.56 82.6684 1268.09 80.1475C1267.03 77.7163 1267.68 76.2898 1270.16 76.6846C1275.27 77.492 1279.16 74.4148 1283.68 73.733C1284.31 73.5362 1284.86 73.1696 1285.24 72.6835C1286.1 71.7864 1286.88 70.8893 1287.67 69.9922C1289.14 70.8265 1290.37 72.3067 1291.9 70.2434C1292.1 69.9653 1293.17 69.9652 1293.68 70.1626C1294.78 70.6022 1295.75 71.3289 1296.84 71.7864C1297.63 71.9887 1298.44 72.106 1299.25 72.1362C1298.79 71.3826 1298.55 70.997 1298.25 70.4856C1300.58 70.073 1300.73 71.3828 1300.73 72.567C1300.65 73.7991 1300.5 75.0266 1300.28 76.245L1302.45 75.7785L1304.27 72.0466C1308.5 73.9843 1308.6 73.9485 1309.07 70.7638L1303.87 71.1495C1301.28 66.4487 1302.76 61.2814 1306.95 59.0745C1309.43 60.9943 1311.89 62.7345 1315.25 62.4923C1315.94 60.2585 1316.48 58.267 1318.92 57.639L1323.31 60.6085C1323.61 60.3842 1324.45 59.8999 1324.39 59.7922C1322.99 57.1906 1325.02 55.1093 1325.59 52.3821L1329.5 53.0011V53.611L1327.29 54.4363C1328.52 54.2415 1329.79 54.3313 1330.97 54.6969C1332.16 55.0626 1333.22 55.6921 1334.06 56.5266C1334.6 57.0111 1335.66 57.056 1336.51 57.2444C1339.09 57.8364 1341.91 57.9889 1344.21 59.0386C1348.03 60.8328 1351.37 60.0344 1354.85 58.599C1355.21 58.4774 1355.57 58.3784 1355.94 58.3029L1356.74 58.5631C1354.74 60.0882 1357.39 61.9271 1355.65 63.1741C1356.3 63.9277 1356.77 64.5468 1357.32 65.094C1357.56 65.3452 1357.99 65.6413 1358.27 65.5965C1358.63 65.4558 1358.94 65.2293 1359.17 64.9416C1358 63.5062 1359.95 63.4613 1360.44 62.618C1361.36 63.6407 1362.25 64.6007 1363.1 65.5965C1363.66 66.2059 1364.45 66.6141 1365.32 66.7474C1366.19 66.8807 1367.08 66.7301 1367.84 66.3229C1368.02 66.2243 1368.05 65.9193 1368.16 65.6681L1365.51 65.3901C1367.22 64.3316 1368.75 63.8918 1370.35 65.2644C1371.32 65.9151 1372.39 66.4518 1373.51 66.8613C1374.01 67.1727 1374.62 67.3123 1375.22 67.2547C1375.83 67.197 1376.39 66.9459 1376.81 66.5472C1378.81 64.8427 1381.33 64.8068 1383.88 64.9683C1384.14 66.1615 1384.36 67.2021 1384.51 67.8749C1386.59 67.8749 1388.39 67.9557 1390.18 67.9557C1390.71 67.9631 1391.24 67.8872 1391.75 67.7315C1392.97 67.3457 1394.17 66.8791 1395.75 66.305C1395.06 64.8876 1394.38 63.4792 1393.62 61.8913C1394.55 61.4427 1395.54 61.048 1396.45 60.5187C1398.18 59.5319 1399.53 59.8011 1401.24 60.8687C1403.24 62.0888 1405.65 62.7256 1408.12 63.7124C1408.39 64.1072 1406.9 65.1209 1408.65 65.7669C1408.75 64.3674 1408.65 62.9767 1410.52 62.7345C1413.09 62.4026 1414.96 63.4613 1416.52 65.0671C1415.45 67.3816 1415.52 67.5163 1418.7 68.0815C1419.07 67.3907 1419.26 66.5025 1419.87 66.045C1421.44 64.8519 1421.77 63.2997 1422.24 61.6221C1423.01 58.942 1424.01 56.3203 1425.24 53.7814C1425.51 53.2981 1425.88 52.867 1426.33 52.5129C1426.78 52.1587 1427.31 51.8887 1427.88 51.7183C1430.7 50.9826 1433.64 50.5968 1436.52 50.0226C1437.11 49.897 1437.95 49.6637 1438.16 49.269C1439.33 47.0352 1441.6 46.8109 1443.81 46.3624L1445.14 50.1571L1448.58 49.26C1449.58 46.3085 1450.98 43.8776 1454.27 43.1958L1458.7 47.6813L1465.14 42.9535C1466 42.5061 1466.77 41.9466 1467.43 41.2938C1469.12 38.9254 1469.09 38.7728 1471.5 39.3918C1472.27 39.6604 1473.11 39.7117 1473.9 39.5383C1474.7 39.365 1475.42 38.9757 1475.96 38.4231C1476.29 38.0386 1476.74 37.7488 1477.25 37.5888C1479.9 37.1852 1481.81 35.7318 1483.68 34.1708C1484.33 33.6326 1485.31 33.2736 1485.75 32.6905C1486.46 31.6588 1487.3 31.7934 1488.35 31.8472V33.516C1490.46 31.7217 1492.42 32.3497 1494.48 33.0135C1496.08 33.4422 1497.7 33.7896 1499.34 34.0541C1499.7 33.1677 1500.15 32.3097 1500.67 31.4885C1501.07 30.9178 1501.65 30.4725 1502.35 30.2145C1505.1 29.3173 1507.9 28.6266 1510.83 27.8013C1511.49 28.0345 1511.22 29.9903 1512.95 28.9855C1510.78 26.2942 1511.38 24.6345 1515.03 23.4951C1515.81 23.3203 1516.62 23.2418 1517.44 23.2619L1519.51 27.5501C1523.43 26.653 1526.91 26.3929 1530.06 28.5819C1530.59 28.9288 1531.19 29.1594 1531.83 29.2547C1532.55 29.4182 1533.31 29.3996 1534.01 29.2008C1536.48 28.1781 1538.23 29.2009 1540.01 30.5914C1539.37 31.8114 1538.77 32.9507 1538.17 34.072L1540.26 35.2653L1538.83 36.1085C1539.22 36.3231 1539.59 36.563 1539.93 36.8262C1540.31 37.1582 1540.64 37.5439 1540.93 37.8937C1543.72 37.2299 1545.09 36.0996 1544.41 34.431C1543.35 31.9281 1544.49 30.1517 1545.88 28.2139C1546.57 27.3586 1546.87 26.2994 1546.71 25.2537C1546.17 23.7196 1546.87 22.5622 1547.42 21.3242C1547.97 20.0862 1548.8 18.9021 1549.32 17.6283C1549.84 16.3544 1550.06 14.9368 1550.55 13.6539C1550.72 13.187 1551 12.7578 1551.37 12.3939C1551.74 12.03 1552.19 11.7396 1552.69 11.5417C1553.19 11.3438 1553.73 11.2427 1554.28 11.2449C1554.83 11.2472 1555.37 11.3528 1555.87 11.5548C1556.37 11.8121 1556.92 11.991 1557.49 12.084C1562.77 12.38 1567.32 14.4523 1571.56 17.0091C1575.13 19.1621 1578.79 20.3553 1582.98 19.2159C1585.75 18.4713 1588.69 17.8883 1590.59 15.493C1590.98 14.9996 1592.29 15.0805 1593.08 14.919C1593.97 17.1259 1594.3 19.1981 1596.53 20.4271L1598.59 18.4805L1600.19 20.131C1603.38 21.4228 1605.4 17.6462 1607.94 19.3865C1608.49 18.615 1608.87 17.4756 1609.57 17.2872C1610.27 17.0988 1611.22 17.9242 1611.98 18.4176C1612.47 18.7316 1612.7 19.4314 1613.21 19.6378C1615.85 20.6963 1618.55 21.6472 1621.5 22.7327C1620.84 20.6245 1620.19 18.5702 1619.5 16.453C1622.13 15.6097 1624.5 14.5601 1627.08 16.8926C1628.76 18.3997 1631.08 18.9827 1633.4 16.9732C1636.08 14.7035 1639.94 14.9099 1643.29 14.1653C1645 13.7975 1647.07 14.9188 1648.87 13.627C1649.08 13.4745 1649.97 13.7436 1650.24 14.0486C1652.33 16.4349 1653.29 16.7399 1656.07 15.8428C1657.87 15.3228 1659.44 14.313 1660.56 12.9542C1660.82 12.6312 1661.8 12.7747 1662.45 12.7029C1661.45 14.0396 1663.05 14.0396 1663.67 14.4971C1664.29 14.9547 1665.22 15.8159 1665.99 16.3363L1666 16.3722Z" fill="#22333B"/>
</svg>
