<svg width="1920" height="191" viewBox="0 0 1920 191" fill="none" xmlns="http://www.w3.org/2000/svg">
<path fill-rule="evenodd" clip-rule="evenodd" d="M181.029 177.04L181.605 177.16L182.686 176.759L182.097 176.639L181.029 177.04ZM1401.29 7.47417L1401.66 7.30394L1399.52 6.94012L1399.14 7.10701L1401.29 7.47417ZM1467.06 8.93284C1468.92 9.3701 1468.91 9.36677 1470.76 8.73591L1467.06 8.93284ZM77.6308 188.372L74.0277 189.133C76.5859 189.003 76.5859 189.003 77.6308 188.372ZM1325.33 5.31122L1328.06 4.97743C1326.37 4.55018 1325.66 4.81387 1325.33 5.31122ZM1960.4 0.210898V180.551C1959.77 180.494 1959.02 180.347 1958.53 180.401C1955.66 180.718 1953.73 180.401 1951.48 179.88C1949.08 179.319 1946.75 179.293 1945.17 179.797C1944.35 180.05 1943.35 180.253 1942.24 180.395C1941.12 180.537 1939.92 180.614 1938.69 180.621C1937.43 180.666 1936.24 180.811 1935.26 181.038C1934.74 181.162 1934.92 181.512 1934.72 181.756C1934.72 181.809 1934.35 181.846 1933.93 181.94C1929.88 181.516 1926.82 181.773 1923.82 182.841C1920.22 184.103 1917.19 184.136 1912.59 183.432L1905.75 184.944L1903.62 183.879C1901.22 183.912 1900.61 184.32 1900.15 184.81C1899.24 185.812 1897.75 186.039 1894.15 185.835C1892.75 185.726 1891.31 185.68 1889.86 185.698C1887.91 185.805 1885.89 185.722 1884.14 185.464C1883.82 185.402 1883.46 185.357 1883.08 185.334C1882.69 185.311 1882.3 185.31 1881.91 185.33C1881.53 185.35 1881.16 185.392 1880.83 185.452C1880.51 185.513 1880.23 185.591 1880.01 185.681C1878.08 186.376 1875.46 186.496 1872.36 186.065V184.81C1868.59 184.627 1867.23 185.545 1864.93 185.915C1862.31 185.488 1861.11 184.41 1856.97 184.874C1856.83 184.99 1856.79 185.284 1856.3 185.368C1853.4 185.872 1850.39 186.332 1847.41 186.8C1845.77 187.057 1844.58 187.013 1843.44 186.513C1841.92 185.921 1840.28 185.355 1838.53 184.817C1837.78 186.052 1835.62 186.559 1831.88 186.589C1831.1 186.589 1830.37 186.86 1829.55 186.97C1826.64 187.367 1823.55 187.671 1820.56 187.103C1817.57 186.536 1814.01 186.666 1810.66 186.616C1808.99 186.593 1807.31 186.616 1804.9 186.643L1801.29 187.501C1800.09 187.798 1798.59 187.928 1797.31 187.624C1794.89 187.119 1792.71 186.534 1790.81 185.882C1789.31 185.311 1787.37 184.842 1785.13 184.51L1781.06 185.047C1778.65 184.069 1777.8 184.069 1775.05 184.894C1774.46 185.078 1773.69 185.211 1772.83 185.277C1771.05 185.396 1769.24 185.462 1767.41 185.474C1766.43 185.461 1765.44 185.508 1764.53 185.612C1763.61 185.717 1762.79 185.876 1762.13 186.079C1761.41 186.307 1760.46 186.465 1759.39 186.53C1758.33 186.594 1757.22 186.563 1756.23 186.439C1756.41 185.908 1756.23 185.484 1753.91 185.341C1753.07 185.288 1751.75 185.007 1751.8 184.827C1751.93 184.353 1750.75 184.37 1749.85 184.333C1748.62 184.307 1747.39 184.307 1746.15 184.333C1746.15 184.093 1746.15 183.879 1746.15 183.665C1745.94 182.958 1744.17 182.697 1742.13 183.098C1740.83 183.392 1739.6 183.71 1738.46 184.049C1736.26 183.802 1734.07 183.445 1733.51 182.777C1733.08 182.24 1731.89 181.963 1730.73 181.622C1729.1 181.135 1727.49 180.648 1726.51 180.347L1718.9 179.48C1716.78 179.236 1714.98 178.929 1712.22 179.009C1708.74 179.112 1704.24 179.319 1702.77 177.777C1701.16 178.001 1699.84 178.158 1698.62 178.355C1697.13 178.595 1695.76 178.889 1694.26 179.119C1693.3 179.306 1692.17 179.413 1691 179.429C1690.02 179.393 1689.15 179.079 1687.87 178.809L1682.17 180.067C1681.66 179.757 1681.37 179.563 1680.97 179.376C1680.58 179.189 1680.27 179.022 1679.77 178.805C1679.42 178.901 1679.09 179.002 1678.78 179.109C1676.1 180.301 1675.64 180.341 1670.73 179.98C1668.36 179.797 1665.95 179.654 1663.52 179.553C1662.48 179.523 1661.44 179.61 1660.63 179.793C1658.56 180.337 1656.35 180.317 1653.95 180.07C1653.75 180.047 1653.63 179.97 1653.54 179.947C1653.73 179.613 1653.9 179.329 1654.21 178.799L1647.65 179.516C1646.44 178.942 1644.87 178.532 1642.04 178.789C1639.47 179.019 1636.68 179.072 1634.12 179.316C1631.56 179.56 1629.22 179.957 1626.79 179.276C1626.63 179.229 1626.06 179.316 1625.69 179.309C1623.38 179.273 1621.1 179.226 1618.74 179.186C1618.29 179.348 1617.89 179.518 1617.53 179.697C1617.22 179.929 1616.95 180.167 1616.73 180.408C1614.18 180.591 1611.77 180.982 1608.84 180.614C1605.91 180.247 1602.53 179.88 1599 180.317C1598.32 180.401 1597.26 180.261 1596.38 180.224C1594.17 180.651 1591.93 181.095 1589.66 181.526C1588.1 181.819 1586.98 181.632 1585.9 181.269C1584.7 180.848 1583.23 180.468 1581.92 180.057C1581.32 179.867 1580.46 179.67 1580.3 179.446C1579.87 178.812 1578.21 178.542 1576.18 178.208C1575.38 178.541 1574.73 178.902 1574.27 179.283C1574.11 179.506 1574.96 179.79 1575.34 180.04C1572.84 180.661 1570.73 180.888 1568.54 180.775C1567.34 180.711 1566.59 180.574 1567.05 180.171C1567.15 180.09 1566.73 179.964 1566.55 179.86C1566.46 180.078 1566.1 180.279 1565.53 180.431C1564.97 180.583 1564.23 180.675 1563.44 180.691C1561.41 180.821 1559.7 181.295 1557.73 181.539C1556.66 181.66 1555.47 181.686 1554.34 181.616C1553.03 181.536 1551.8 181.379 1550.73 181.155C1549.75 180.919 1548.53 180.775 1547.23 180.742C1545.94 180.71 1544.64 180.791 1543.53 180.975C1541.79 181.229 1540.04 181.359 1538.4 180.885C1538.48 180.578 1538.57 180.264 1538.64 179.933H1535.5C1536.13 178.949 1532.85 178.912 1531.06 178.358C1530.11 179.112 1525.68 178.622 1525.69 179.78L1531.4 179.98C1531.28 180.398 1531.17 180.758 1531.04 181.212L1523.97 181.966C1525.04 182.791 1524.83 182.914 1521.14 183.448C1520.86 182.674 1519.29 182.59 1516.97 182.807C1515.59 182.901 1514.18 182.962 1512.76 182.991C1511.73 181.99 1509.15 181.385 1506.41 180.618C1505.87 181.105 1505.53 181.432 1505.14 181.773C1503.94 181.749 1503.08 181.716 1502.16 181.716C1499.17 181.716 1496.28 181.666 1493.68 182.313C1492.48 182.621 1490.14 182.647 1488.28 182.691C1486.47 182.68 1484.66 182.643 1482.86 182.581C1478.55 182.547 1474.21 182.607 1469.91 182.497C1468.99 182.48 1468.1 182.412 1467.27 182.297C1466.45 182.183 1465.71 182.024 1465.11 181.829C1463.49 181.125 1461.38 181.052 1458.9 181.058L1461.3 180.157C1460.22 179.95 1459.19 179.573 1456.86 179.793C1457.6 180.234 1458.29 180.641 1458.96 181.045C1454.81 182.38 1450.03 181.95 1445.1 181.379C1444.24 181.526 1443.3 181.663 1442.45 181.833C1439.82 182.357 1437.2 182.364 1434.9 181.729C1433.09 181.229 1431.23 181.132 1429.15 181.472L1427.76 180.878C1427.49 180.923 1427.23 180.974 1426.99 181.028C1426.8 181.075 1426.65 181.142 1426.47 181.192C1424.17 181.859 1423.09 181.953 1420.22 181.562C1419.33 181.414 1418.5 181.239 1417.74 181.042C1415.24 180.484 1412.94 180.114 1409.47 180.665C1403.12 181.666 1395.89 181.896 1388.8 182.183C1385.6 182.31 1383.88 181.95 1382.94 181.065C1382.6 180.755 1382.63 180.397 1382.38 180.094C1381.72 179.249 1381.52 178.348 1378.9 177.66C1375.73 178.305 1372.65 178.925 1369.78 177.71C1368.14 178.044 1367.51 178.525 1365.24 178.602C1363.91 178.645 1362.84 179.239 1361.64 179.603C1361.56 179.63 1361.45 179.663 1361.33 179.667C1358.76 179.74 1357.73 180.257 1356.45 180.808C1355.96 181.076 1355.15 181.288 1354.16 181.41C1353.18 181.531 1352.07 181.554 1351.02 181.476C1348.21 181.279 1345.37 181.108 1342.18 180.905C1343.12 180.155 1343.9 179.391 1344.5 178.615C1344.8 177.822 1344.93 177.025 1344.9 176.228C1343.18 176.078 1341.3 175.561 1339.06 176.228C1338.52 176.382 1335.99 176.299 1335.46 176.102C1334.09 175.578 1332.02 175.254 1331.09 174.573C1329.28 173.271 1327.21 173.021 1322.46 173.161C1321.8 173.632 1321.13 174.109 1320.06 174.83C1319.18 174.246 1318.7 173.925 1317.96 173.421C1317.62 173.785 1317.47 173.965 1317.36 174.089L1307.94 174.713L1305.18 173.378L1301.97 174.152L1294.99 172.924C1293.97 173.258 1293 173.885 1291.87 173.905C1288.71 173.969 1287.42 174.573 1286.28 175.157C1284.8 175.905 1282.85 175.971 1280.13 175.825C1279.86 175.204 1279.61 174.596 1279.35 173.999C1277.83 174.039 1276.15 174.232 1275.44 174.076C1273.04 173.548 1270.64 173.862 1268.62 173.872C1267.73 174.433 1266.96 174.917 1266.45 175.25L1259.31 174.83C1259.14 175.361 1259.02 175.744 1258.83 176.362C1257.81 176.001 1257.32 175.825 1256.66 175.584C1255.77 176.045 1254.83 176.519 1253.94 177C1252.84 177.6 1252.36 177.667 1250.28 177.377C1249.69 177.297 1249.16 177.176 1248.57 177.096C1244.97 176.586 1241.49 176.252 1237.44 176.983C1235.32 177.367 1232.28 177.777 1229.67 177.143C1227.31 176.559 1224.22 176.256 1221.06 176.302C1220.93 177.774 1215.29 178.679 1209.99 178.081C1209.99 177.13 1209.99 177.13 1207.58 176.412C1205.85 176.638 1204.22 176.917 1202.71 177.243C1201.38 177.678 1200.22 178.15 1199.24 178.652L1196.45 178.204C1195.03 178.365 1193.74 178.658 1192.57 178.622C1188.38 178.485 1184.01 178.665 1180.01 178.111C1179.65 178.073 1179.27 178.058 1178.89 178.068C1178.51 178.077 1178.14 178.11 1177.81 178.164C1174.1 178.912 1169.91 179.466 1167.11 180.558C1166.76 180.718 1166.3 180.855 1165.74 180.96C1165.19 181.065 1164.56 181.135 1163.89 181.165C1163.23 181.195 1162.55 181.184 1161.91 181.133C1161.26 181.083 1160.66 180.993 1160.15 180.871C1157.22 180.147 1154.44 179.376 1151.57 178.628C1151 178.482 1150.37 178.341 1149.56 178.148C1147.95 178.832 1146.45 179.483 1144.84 180.167L1142.4 180.217C1142.31 180.551 1142.22 180.828 1142.1 181.189C1141.18 180.975 1140.49 180.821 1140.08 180.731C1138.67 180.922 1137.25 181.289 1136.29 181.212C1135.1 181.113 1133.99 180.948 1133.04 180.726C1132.08 180.505 1131.3 180.232 1130.74 179.924C1129.77 180.204 1129.06 180.401 1128.34 180.591C1127.62 180.781 1127.29 181.045 1126.56 181.142C1123.36 181.562 1120.87 182.306 1119.58 183.221C1118.09 184.223 1115.63 184.89 1112.86 185.558C1109.75 186.326 1106.55 186.559 1102.79 186.059C1102.62 185.658 1102.46 185.274 1102.24 184.764L1099.41 185.197L1101.56 186.115C1100.94 186.275 1100.27 186.416 1099.55 186.536C1096.24 187.013 1093.1 187.579 1090.18 188.225C1089.55 188.439 1088.72 188.603 1087.79 188.699C1086.85 188.794 1085.84 188.819 1084.86 188.769C1082.25 188.717 1079.75 188.456 1077.65 188.018C1078.76 186.659 1078.76 186.659 1077.91 186.065C1077.69 186.182 1077.33 186.292 1077.41 186.359C1077.71 186.633 1077.88 186.946 1076.66 186.96C1076.17 186.942 1075.71 186.896 1075.3 186.824C1074.88 186.753 1074.53 186.658 1074.26 186.546C1073.88 186.311 1073.71 186.055 1073.75 185.798C1073.64 185.408 1073.62 185.014 1073.55 184.57C1070.69 184.69 1068.07 184.72 1067.34 183.799C1066.38 182.58 1062.99 181.823 1060.73 180.855C1055.51 181.743 1049.92 181.456 1046.81 180.187C1044.94 180.057 1043.09 179.974 1041.36 179.8C1037.02 179.366 1036.65 179.396 1033.34 180.401C1031.91 180.835 1030.41 181.282 1028.03 181.279C1027.49 181.279 1026.63 181.249 1026.47 181.155C1025.32 180.541 1023.67 180.771 1022.11 180.851C1021.67 182.163 1021.25 183.422 1020.83 184.71C1018.43 184.657 1016.11 184.58 1013.77 184.56C1012.97 184.566 1012.19 184.502 1011.53 184.377C1010.87 184.251 1010.37 184.071 1010.11 183.862C1007.95 182.58 1007.9 182.587 1002.69 182.981L1002.81 182.958C1001.78 182.744 1000.81 182.504 999.731 182.32C998.846 182.189 997.927 182.078 996.98 181.986C996.284 182.697 994.746 182.137 993.702 182.116C993.008 182.075 992.288 182.084 991.61 182.142C990.933 182.201 990.321 182.307 989.834 182.45C988.994 182.676 988.099 182.886 987.156 183.078C986.495 183.011 985.955 182.968 985.522 182.908C982.724 182.53 982.124 181.786 981.919 181.055C981.715 180.324 984.718 180.548 985.967 180.217C984.874 179.356 983.156 180.327 981.643 180.097C980.646 179.58 979.517 179.026 976.839 178.792C977.091 179.526 977.283 180.234 974.629 180.461C971.494 180.741 969.26 181.362 966.666 181.856C964.774 182.256 962.765 182.611 960.661 182.918C957.105 183.379 953.465 183.787 949.755 184.143C946.344 184.476 944.423 184.126 942.873 183.161C941.552 182.33 939.871 181.539 938.526 180.711C937.663 180.278 937.181 179.794 937.12 179.299C937.301 178.682 937.06 178.381 934.598 178.431C934.332 178.43 934.07 178.415 933.826 178.385C933.583 178.355 933.363 178.312 933.181 178.258C932.927 178.152 932.591 178.063 932.197 177.999C931.802 177.934 931.361 177.895 930.905 177.884C930.449 177.874 929.99 177.892 929.562 177.938C929.135 177.983 928.75 178.055 928.437 178.148C924.63 177.433 924.63 177.433 921.375 178.251C921.183 178.298 920.894 178.388 920.774 178.375C920.174 178.305 919.573 178.211 918.372 178.041C916.763 178.121 914.769 178.375 915.646 179.346C913.695 179.137 911.687 178.972 909.641 178.852C908.043 178.789 906.674 178.678 906.037 178.271C905.005 177.577 902.326 177.604 900.501 177.317C897.991 176.899 896.477 177.801 894.387 178.041C893.835 178.104 893.595 178.341 893.078 178.448C891.169 178.849 889.103 179.092 886.809 178.709C884.809 178.41 882.534 178.284 880.275 178.348C879.069 178.354 877.864 178.33 876.672 178.278C871.868 178.101 867.22 177.61 862.26 177.917C861.628 177.932 860.992 177.919 860.374 177.881L858.632 176.739C857.431 176.826 856.314 176.899 855.221 176.983C854.131 177.103 852.995 177.188 851.834 177.237C849.432 177.257 847.415 177.363 846.646 178.038L841.373 177.176C842.01 177.607 842.298 177.794 842.731 178.084L831.801 177.517C831.957 177.163 832.041 176.849 832.27 176.515C832.702 175.905 832.39 175.765 830.096 175.648C829.697 175.633 829.296 175.625 828.895 175.624C827.898 175.29 827.237 174.853 826.3 174.803C823.982 174.683 823.43 174.226 822.805 173.672C820.668 174.216 818.818 174.83 816.176 174.626C814.614 175.127 813.269 175.524 812.056 175.961C810.266 176.592 808.513 177.23 806.867 177.891C805.222 178.552 803.853 179.152 800.718 178.822C800.274 179.066 800.106 179.343 799.589 179.41C796.334 179.837 791.398 179.333 789.645 178.441C789.236 178.238 788.72 178.051 788.215 177.837C785.129 178.522 782.546 179.243 779.484 179.73C776.601 180.194 774.8 180.881 772.71 181.529C772.121 181.713 771.641 181.926 771.185 182.093C770.833 182.094 770.482 182.083 770.14 182.06C766.38 181.516 766.008 181.562 764.723 182.727C764.505 183.01 764.009 183.27 763.29 183.479C762.571 183.687 761.657 183.836 760.651 183.909C758.742 183.468 757.216 183.121 755.691 182.774L759.078 182.814C758.86 182.694 758.554 182.588 758.179 182.502C757.805 182.416 757.371 182.353 756.904 182.317C755.307 182.237 755.823 182.584 755.835 182.814C755.031 182.717 753.661 182.671 753.505 182.52C752.869 181.903 751.295 181.649 749.277 181.476C748.365 181.659 747.416 181.843 746.107 182.1C745.879 181.362 745.686 180.745 745.47 180.02C742.72 180.725 742.456 180.788 741.651 180.561C740.222 180.161 737.82 180.05 737.231 179.379C737.063 179.199 735.934 179.086 735.357 178.966L731.502 179.633C727.286 178.966 723.659 178.038 718.291 178.028C717.802 178.256 717.093 178.442 716.244 178.565C715.395 178.687 714.44 178.742 713.487 178.722L711.144 177.56L708.646 178.071C710.256 178.482 711.661 178.842 713.054 179.192C712.609 179.717 711.696 180.201 710.398 180.602C709.101 181.002 707.462 181.305 705.632 181.482C703.41 181.716 700.996 182.03 698.425 181.462C699.723 180.297 696.203 179.513 695.387 178.298C694.414 179.146 690.294 179.066 690.727 180.05C690.727 180.09 690.078 180.157 689.718 180.207C687.784 180.461 685.947 180.688 683.641 180.411C682.44 180.267 680.782 180.381 679.341 180.381C678.317 180.421 677.278 180.421 676.254 180.381C674.995 180.254 673.647 180.209 672.315 180.249C670.983 180.288 669.701 180.412 668.568 180.611C666.658 180.11 664.76 180.027 662.07 180.244C660.7 180.363 659.245 180.384 657.839 180.305C656.432 180.226 655.12 180.05 654.023 179.793C651.969 179.306 648.126 179.329 645.616 179.73C644.761 179.868 643.779 179.933 642.793 179.917C641.513 179.891 640.263 179.794 639.118 179.633C637.569 179.396 635.407 179.142 634.962 178.765C634.29 178.237 633.135 177.767 631.611 177.4C627.468 177.854 626.147 179.253 621.571 179.476C621.39 179.854 620.93 180.218 620.222 180.545C619.513 180.872 618.57 181.154 617.451 181.375C613.848 180.211 609.212 179.68 604.48 179.039C604.275 179.459 603.933 179.874 603.459 180.277C603.263 180.403 602.978 180.517 602.621 180.613C602.265 180.708 601.843 180.782 601.381 180.831C600.08 180.894 598.756 180.907 597.442 180.871C595.592 180.871 593.598 180.745 591.929 180.898C584.848 181.539 577.396 181.805 569.962 181.683C567.752 181.653 565.434 181.829 563.5 181.349C563.224 181.279 562.528 181.305 562.071 181.349C557.507 181.659 553.856 180.915 554 179.65C554.072 179.079 554.492 178.512 554.745 177.944L550.181 177.247C552.138 175.177 552.138 175.177 551.226 174.7C549.22 175.104 549.917 176.068 547.334 176.285C545.04 175.831 543.083 175.391 540.945 175.037C538.339 174.606 537.762 174.035 538.399 173.244C538.573 172.892 538.653 172.536 538.639 172.18C537.27 172.367 535.984 172.597 534.807 172.867C533.606 173.224 532.177 173.074 530.928 173.201C529.679 173.328 527.493 173.592 527.133 173.912C526.4 174.58 524.43 174.69 522.797 174.93C520.719 175.23 518.389 175.394 516.275 175.678C514.87 175.868 513.717 176.192 512.36 176.412C508.757 177 505.718 176.646 504.481 175.524C504.217 175.29 503.929 174.943 503.28 174.857C500.362 174.523 499.761 173.698 498.32 173.067C496.47 172.266 495.569 171.288 492.315 170.658L490.309 171.362C486.766 170.431 485.036 170.491 481.337 171.696C477.362 170.724 472.762 170.29 467.645 170.721C466.444 170.337 465.471 170.023 464.498 169.72C462.096 169.95 460.247 170.641 457.148 170.16C459.466 169.352 456.439 168.902 455.587 168.311L458.409 167.71H453.317C454.076 167.333 454.906 166.968 455.803 166.615C456.764 166.282 457.785 165.994 456.548 165.51L448.14 166.512C449.341 167.804 450.374 169.075 452.608 170.207C449.473 170.541 446.735 170.791 444.057 171.088C441.03 171.422 438.724 171.161 436.706 170.507C435.497 170.078 433.753 169.79 431.818 169.7C430.782 169.675 429.809 169.551 429.067 169.349C428.324 169.146 427.857 168.879 427.747 168.591C424.852 168.962 423.507 168.575 422.414 168.024L424.816 167.109L421.393 166.896C421.237 167.403 421.105 167.874 420.973 168.294C416.349 169.145 412.301 168.655 408.566 167.96C406.56 167.583 405.023 167.246 402.236 167.44C400.591 167.553 398.513 167.176 396.544 167.012C396.435 167.406 396.351 167.764 396.267 168.107C393.865 168.318 391.799 168.518 389.638 168.698C389.023 168.756 388.368 168.77 387.728 168.742C384.125 168.531 380.522 168.281 376.918 168.074C375.792 168.044 374.658 168.044 373.532 168.074C373.368 168.222 373.264 168.374 373.219 168.528C373.688 170.023 373.327 170.257 368.007 170.317C363.887 170.364 361.737 171.068 359.287 171.766C358.624 171.975 357.749 172.124 356.777 172.193C355.124 172.235 353.462 172.241 351.805 172.213V169.926L343.025 169.316C343.433 169.903 343.722 170.3 343.998 170.701C342.461 171.328 340.251 170.981 338.209 170.918C337.837 171.302 337.524 171.612 337.236 171.919C335.919 172.017 334.639 172.152 333.417 172.32C328.778 173.115 323.582 173.626 318.176 173.819C314.464 173.952 314.02 173.942 312.939 172.877C312.843 172.784 312.687 172.69 312.519 172.573L309.84 172.654C309.756 173.044 309.684 173.371 309.648 173.575L302.514 174.176L305.733 174.993L300.592 175.427C300.736 175.731 300.784 176.011 301.013 176.282C301.241 176.552 301.721 176.899 302.214 177.307C301.187 177.477 300.067 177.6 298.899 177.67C297.202 177.703 295.497 177.646 293.878 177.5C291.957 177.31 293.554 176.766 292.954 176.419C292.87 176.372 292.557 176.352 291.933 176.252C291.753 176.586 291.596 176.886 291.404 177.253C290.795 177.25 290.187 177.265 289.591 177.3C286.864 177.54 284.162 177.814 281.436 178.051C280.716 178.134 279.917 178.148 279.166 178.091C277.136 177.787 275.238 177.423 273.269 177.09C275.575 176.198 277.845 175.487 278.637 174.509C276.163 174.219 274.746 174.539 273.833 175.02C272.89 175.545 272.087 176.088 271.431 176.646C270.578 177.313 269.413 177.56 266.915 177.393C261.596 177.064 256.618 176.402 252.358 175.457C250.293 174.983 248.443 174.456 245.549 175.047C245.104 175.137 244.167 175.047 243.651 175.027C243.519 175.441 243.399 175.778 243.291 176.092C241.345 176.122 239.904 176.122 238.486 176.175C237.336 176.193 236.211 176.277 235.184 176.422C232.841 176.839 230.692 177.333 228.422 177.784C225.911 178.281 224.819 178.615 222.681 179.66C221.612 180.174 218.345 180.304 217.768 179.803C216.675 178.849 213.949 179.112 210.934 178.825C212.136 179.216 212.64 179.409 213.204 179.603L212.712 179.743L206.395 178.478L201.23 180.247C196.546 179.803 194.816 178.719 194.024 177.544H182.842C179.059 178.899 176.02 179.072 169.907 178.268C171.6 177.463 169.727 176.859 168.706 176.202C165.367 176.395 165.679 177.026 165.992 177.67C165.283 177.737 164.526 177.891 164.07 177.841C161.824 177.594 159.65 177.297 157.38 177.009C153.705 177.911 152.684 179.116 151.999 180.347C150.882 182.35 147.892 182.557 142.571 182.374C139.226 182.203 135.918 181.98 132.663 181.706C131.554 181.65 130.436 181.611 129.312 181.589C131.474 182.968 135.317 183.749 138.067 184.703C137.118 184.894 136.194 185.074 135.293 185.264C133.191 185.705 131.017 186.125 129.035 186.599C126.633 187.193 124.231 186.987 121.829 186.599C120.024 186.296 117.929 186.153 115.824 186.189C113.818 186.219 111.212 186.326 110.143 185.571C107.969 185.978 105.915 185.975 104.294 185.601C102.673 185.227 104.354 184.837 105.075 184.54C103.946 183.902 102.372 184.159 100.607 184.243C101.183 184.83 101.724 185.381 102.252 185.912C99.4898 187.087 94.2653 186.636 90.7943 187.297C89.0888 186.669 86.9149 186.699 84.6209 186.916C84.4648 186.933 84.4287 187.037 84.3206 187.11L87.095 187.621C86.1582 187.818 85.4857 187.974 84.765 188.108C84.0444 188.242 83.2998 188.332 82.6752 188.442L80.9097 187.881L76.4178 190.054C73.5233 190.011 72.106 189.52 70.953 188.996C69.8 188.472 68.9113 187.891 67.8664 187.327C66.6152 187.502 65.411 187.702 64.2632 187.924C62.0533 188.435 61.8612 188.445 59.7713 187.878C57.324 187.175 54.4852 186.587 51.3641 186.135C46.9923 185.545 43.0408 184.713 38.8972 183.989C38.3837 183.878 37.8016 183.795 37.1797 183.742C33.7448 183.565 30.2858 183.408 26.5385 183.235C26.2022 183.452 25.7578 183.749 25.2054 184.103C22.8873 183.769 21.374 184.119 20.1009 184.723C17.0143 184.019 15.609 184.907 13.6633 185.217C10.8529 184.85 11.5015 184.089 10.913 183.355C8.36676 183.512 6.10879 183.412 5.196 182.5C2.4336 183.889 -1.06142 184.723 -5.96168 185.007C-6.9487 184.426 -8.10136 183.868 -9.40866 183.338C-10.9139 182.888 -12.5531 182.474 -14.3089 182.1L-16.0744 182.944L-18.0201 182.594C-16.2546 183.518 -19.9418 183.562 -20.5183 184.143C-20.9987 184.617 -21.6593 185.391 -24.6379 185.371C-28.3491 184.55 -32.805 184.58 -36.9486 184.463L-38.6901 187.133C-39.0326 187.131 -39.3682 187.106 -39.6694 187.061C-39.9707 187.015 -40.229 186.951 -40.4234 186.872C-40.6178 186.794 -40.7427 186.704 -40.7879 186.609C-40.8332 186.515 -40.7975 186.419 -40.6838 186.329C-39.6989 185.381 -40.8159 184.456 -40.8159 183.525C-40.7439 127.373 -40.7439 71.2214 -40.8159 15.0712C-40.8159 14.4771 -40.8159 13.8863 -40.7439 13.2922C-40.6138 13.0547 -40.4047 12.8212 -40.1193 12.5945L-25.875 15.0312C-26.4875 13.3355 -26.9799 11.937 -27.4843 10.5684C-26.4875 10.5684 -25.4786 10.5684 -24.4817 10.5684C-21.4019 10.5541 -18.3287 10.4838 -15.2818 10.3581C-11.6786 10.1579 -10.2974 10.8154 -8.70005 11.4463C-7.6071 11.8836 -6.62226 12.3375 -5.61338 12.7814C-2.35248 12.5769 0.546505 12.0607 2.57773 11.3228C4.67956 10.6118 5.44822 10.5517 8.58294 10.9389L5.44822 11.2961L5.55631 11.5264C7.71819 11.5598 9.89208 11.6432 12.054 11.6199C13.0292 11.5861 14.0185 11.6334 14.8971 11.7558C15.7757 11.8781 16.504 12.0701 16.9902 12.3074C17.6243 12.5455 18.3272 12.7688 19.0921 12.975L25.0973 11.6399C28.9166 12.1139 30.2257 13.0117 30.8863 13.9764C32.5677 14.0699 33.985 13.6426 34.8617 13.6927C38.2847 13.8529 40.6508 13.2788 43.4612 13.0051C44.9857 12.8645 46.615 12.8358 48.1912 12.9218C49.7673 13.0077 51.2368 13.2055 52.457 13.4958C53.8262 12.945 55.4236 12.4577 58.234 12.7314C59.7834 11.9703 60.7202 11.8168 63.8669 11.4496C65.2361 11.2894 66.269 10.8955 67.47 10.6352C68.9113 10.3314 70.4846 9.80404 71.9019 9.82407C76.3931 9.83255 80.7786 10.2036 84.5248 10.8922C83.2397 11.483 82.0266 12.0237 80.9217 12.5611C80.5928 12.7109 80.4183 12.883 80.4173 13.0585C80.4893 13.3923 80.7656 13.7261 81.0418 14.1667C81.2647 14.238 81.5502 14.292 81.8705 14.3236C83.2772 14.4306 84.5875 14.6184 85.717 14.8748C86.8465 15.1312 87.7701 15.4505 88.4282 15.8122C90.0666 16.5922 91.9818 17.3247 94.1452 17.9986C96.295 18.7062 98.9493 19.4038 102.552 19.1602C105.219 18.9799 107.357 19.2002 109.759 19.3738C112.161 19.5474 113.362 19.9679 112.941 20.5788C112.617 21.1062 113.254 21.2731 114.983 21.1963C116.201 21.1398 117.404 21.0618 118.586 20.9626C121.565 20.5612 124.323 20.0442 126.777 19.4272C127.714 19.1368 128.759 18.8698 130.176 18.4759C131.05 18.805 131.984 19.1214 132.975 19.4239C133.587 19.5974 134.488 19.8177 135.221 19.811C136.533 19.7617 137.866 19.842 138.988 20.0378C140.11 20.2336 140.948 20.5325 141.358 20.8825C141.634 21.0661 142.463 21.193 143.088 21.3298C145.67 21.8906 148.264 22.448 150.81 22.9988C148.793 23.9434 148.793 23.9434 150.81 24.3339C151.114 24.0296 151.516 23.7335 152.011 23.4494C152.432 23.2624 153.333 23.0188 153.957 23.0288C157.56 23.1022 160.863 23.436 162.965 24.3639C163.164 24.4258 163.31 24.4993 163.391 24.5791C163.473 24.6588 163.488 24.7427 163.436 24.8244C163.384 24.906 163.266 24.9834 163.091 25.0505C162.915 25.1176 162.688 25.1727 162.424 25.2118C161.56 25.3887 160.803 25.609 160.022 25.8093L160.623 26.0763C163.025 25.7859 165.919 25.629 167.913 25.1818C171.997 24.2572 176.02 25.0482 180.044 25.0215C180.14 25.0215 180.272 25.0616 180.344 25.0916C182.686 26.0162 186.349 26.093 189.952 26.2299C190.132 26.1364 190.325 26.0463 190.505 25.9561C192.402 24.9815 193.471 24.8646 197.171 25.155C200.87 25.4454 204.377 25.7025 207.98 25.9328C209.316 26.033 210.713 26.0551 212.081 25.9977C213.45 25.9402 214.761 25.8045 215.931 25.599C216.861 25.4633 217.885 25.3836 218.933 25.3653C221.408 25.2919 223.906 25.2552 225.803 25.2151L229.214 23.8199H233.298V22.9287C234.835 22.7952 236.493 22.7851 237.297 22.5515C239.315 21.9674 241.345 21.954 243.819 22.2177C244.86 22.372 246.048 22.4327 247.218 22.3913C250.329 22.1109 253.728 21.954 255.914 21.1529C256.326 20.9629 256.967 20.8195 257.723 20.748C258.479 20.6766 259.301 20.6817 260.045 20.7624C261.354 21.9507 261.354 21.9506 265.558 21.9874C265.75 21.4867 265.93 20.986 266.158 20.3952C267.564 20.2817 269.089 20.1649 270.578 20.0314C271.263 19.9679 272.152 19.9212 272.5 19.7777C272.641 19.7024 272.848 19.6381 273.101 19.5906C273.354 19.5431 273.646 19.5139 273.95 19.5056C274.254 19.4973 274.561 19.5102 274.842 19.5431C275.124 19.5761 275.371 19.628 275.563 19.6942C276.815 20.028 277.998 20.3813 279.106 20.7524L281.976 20.0481C283.826 20.1348 285.447 20.6722 287.465 20.235L292.269 21.1763C292.449 20.8425 292.557 20.6389 292.689 20.3752C295.32 20.6289 297.59 20.6489 299.271 20.0213C299.271 19.5307 296.713 19.3004 297.674 18.7596C298.875 18.0921 298.25 17.4478 296.917 16.7569C298.899 16.5433 300.832 16.4531 302.25 16.1661C305.733 15.4551 307.835 15.098 310.657 14.9277C311.842 14.8924 313 14.8068 314.092 14.6741C320.12 13.6533 326.931 13.0426 333.969 12.8916C336.371 12.8415 338.557 12.6246 340.767 13.0284C340.983 13.063 341.223 13.085 341.47 13.093C341.718 13.1011 341.969 13.095 342.208 13.0752C345.092 12.7965 347.901 12.4619 350.616 12.0738C355.995 11.1777 361.973 10.5941 368.187 10.3581C371.682 10.238 372.631 10.4316 373.64 11.3795C374.24 11.9303 374.733 12.4844 375.297 13.0485C377.843 12.9317 379.02 12.5211 380.221 12.0471C381.631 11.4703 383.289 10.9435 385.158 10.4783C388.4 9.71391 388.761 9.76063 391.919 10.6385C392.4 10.7687 393.121 10.8421 393.457 10.9923C395.342 11.8669 399.462 12.3275 399.366 13.5792C400.23 13.5925 401.095 13.5643 401.924 13.4958C404.025 13.19 406.005 12.8242 407.833 12.4043C408.437 12.2328 409.205 12.1134 410.046 12.0601C410.888 12.0068 411.766 12.022 412.577 12.1038C413.694 12.1973 414.703 12.3943 415.82 12.5044C416.804 12.5765 417.803 12.6311 418.811 12.668C418.102 12.1206 417.61 11.72 417.225 11.4563C419.195 10.8221 420.949 10.3247 422.402 9.76397C426.233 8.29196 430.257 6.8867 435.758 5.84194C440.093 5.01747 441.763 5.10427 444.849 6.26586C446.574 6.86714 448.634 7.38777 450.951 7.80797C452.152 8.03494 453.845 8.0316 455.298 8.14176C454.71 9.07303 454.71 9.07304 457.4 9.90752V8.79931C459.634 8.66913 461.688 8.53896 463.754 8.42881C465.82 8.31866 467.741 8.38207 468.918 8.96621C469.384 9.17007 470.018 9.34007 470.768 9.462C471.518 9.58393 472.362 9.65429 473.23 9.6672L485.048 10.2046C485.349 9.83743 485.637 9.46023 485.961 9.06302L488.027 9.2566C490.261 7.9882 490.261 7.98822 493.564 8.15512L496.242 6.69312C499.845 6.74652 500.47 7.60768 502.091 8.29863L511.123 7.70785C511.776 8.00865 512.316 8.32744 512.732 8.65915C512.868 8.91529 513.338 9.14854 514.054 9.31422C514.77 9.4799 515.681 9.56635 516.612 9.55702C517.272 9.55702 517.921 9.58707 518.581 9.60376L517.813 9.83743C519.794 10.2647 521.896 10.6619 523.818 11.1292C526.73 11.8261 529.478 12.5742 532.045 13.3689C532.703 13.5906 533.521 13.7716 534.445 13.9004C535.37 14.0291 536.381 14.1028 537.414 14.1166C538.339 14.1166 539.407 13.449 540.236 13.0418C540.479 12.8421 540.585 12.6315 540.548 12.421C543.443 12.0872 545.869 12.3275 548.235 12.698C548.983 12.8492 549.839 12.9539 550.745 13.0051C554.048 13.0452 557.363 13.0051 560.666 13.0418C562.347 13.0418 564.029 13.1252 565.962 13.1786C565.758 13.4256 565.662 13.5592 565.518 13.696C565.237 13.9465 565.294 14.2169 565.678 14.4566C566.063 14.6962 566.749 14.8887 567.608 14.9978C569.205 15.2615 570.55 15.1914 572.064 14.7641C573.265 14.4303 575.018 14.0031 577.036 14.3135C580.063 14.7742 583.318 15.1948 585.756 15.8423C588.194 16.4899 590.272 16.6701 593.226 16.4798C593.743 16.4498 594.283 16.4531 594.811 16.4231C596.241 16.343 596.973 16.5132 597.43 16.8904C598.211 17.5246 599.532 17.7216 601.441 17.5079C602.835 17.3548 604.188 17.1741 605.489 16.9672C609.019 16.3916 613.002 16.065 617.091 16.0159C619.205 15.9858 620.105 16.2796 620.838 16.7202C621.871 16.4932 622.712 16.313 623.528 16.126C624.345 15.9391 625.126 15.7355 625.931 15.5519C628.561 14.9644 630.735 15.0078 632.836 15.6988C633.279 15.8622 633.68 16.034 634.038 16.2128C636.344 16.2562 638.493 16.2495 640.571 16.3463C641.273 16.3894 641.999 16.3893 642.701 16.3461C643.402 16.3029 644.061 16.2175 644.631 16.096C646.564 15.7188 646.925 15.7989 648.234 16.3831C649.227 16.7777 650.293 17.1576 651.429 17.5212L650.66 18.082C652.077 18.1087 653.374 18.2423 654.263 18.1288C655.914 17.863 657.474 17.5557 658.923 17.2108L663.355 17.815C663.944 17.5747 664.484 17.341 665.277 17.0072L669.612 18.1488C669.408 17.5847 669.264 17.2175 669.132 16.8136C671.234 16.3463 673.516 16.3997 675.846 16.6768C678.377 16.9739 681.097 17.1261 683.845 17.1241C684.245 17.1174 684.646 17.1174 685.046 17.1241C686.029 17.1775 687.049 17.1333 687.927 16.9991C688.805 16.8648 689.486 16.6492 689.85 16.3897C690.18 16.228 690.584 16.0788 691.051 15.9458L697.993 16.9004C698.954 16.4064 699.879 15.9191 701.26 15.1947C701.824 15.8022 702.149 16.1527 702.461 16.5032C706.268 16.1494 706.544 14.9177 709.811 14.4303L707.037 14.3135C708.37 13.9096 709.439 13.8596 710.94 14.2034C713.512 14.7944 716.605 15.1839 719.9 15.3316C721.879 15.3769 723.827 15.4971 725.689 15.6887C726.456 15.7861 727.29 15.8365 728.133 15.8365C728.977 15.8365 729.81 15.7861 730.577 15.6887C731.682 15.5886 732.799 15.5085 733.88 15.4184C734.697 15.8256 735.429 16.1928 736.222 16.5833L737.952 16.1995L740.354 16.6367C743.489 15.6354 742.347 14.6573 740.27 13.6827C741.759 13.4857 743.092 13.3222 744.365 13.1352C746.359 12.8448 748.161 12.8449 749.698 13.3556C749.882 13.4326 750.125 13.4974 750.41 13.5451C750.694 13.5929 751.014 13.6225 751.345 13.6317C751.676 13.641 752.01 13.6297 752.323 13.5987C752.637 13.5677 752.922 13.5177 753.157 13.4524C753.829 11.8335 755.835 11.5464 761.336 12.1839C763.051 12.3429 764.83 12.4427 766.633 12.481C768.314 12.5511 770.044 12.5511 771.1 13.0218C771.857 13.3556 772.986 13.3556 774.283 13.2955C775.183 13.2481 776.11 13.256 776.998 13.3188C779.306 13.4795 781.583 13.6733 783.819 13.8996C786.918 14.2334 789.128 13.953 791.122 13.2621C794.521 12.0838 794.869 12.0838 799.757 12.5945L807.108 11.9269C807.6 12.3542 807.924 12.6412 808.309 12.9283C812.056 11.9269 809.438 10.8855 809.041 9.83743C811.047 9.78403 813.173 9.86412 812.933 9.06636C812.693 8.2686 812.801 8.23856 815.683 8.35539C816.207 8.36542 816.733 8.36542 817.257 8.35539C814.915 7.81465 816.536 7.2739 816.98 6.72315C820.98 6.5162 822.313 7.39074 824.343 8.02828C824.927 7.93149 825.478 7.81975 825.988 7.69449C828.39 7.02691 828.306 7.02691 831.285 7.3607C833.229 7.58021 835.238 7.75222 837.29 7.87475C842.554 8.1146 847.639 8.59504 852.339 9.29666C852.732 9.38055 853.181 9.44165 853.66 9.47622C854.14 9.5108 854.639 9.51815 855.129 9.4979C855.619 9.47765 856.089 9.4302 856.511 9.35835C856.934 9.28649 857.3 9.19174 857.588 9.07973C858.377 8.88391 859.108 8.6707 859.773 8.44217C859.923 8.35588 860.133 8.27872 860.391 8.21514C860.649 8.15156 860.95 8.1028 861.276 8.07175C861.602 8.04071 861.948 8.02798 862.292 8.03427C862.636 8.04055 862.972 8.06574 863.28 8.10838C863.617 8.44217 863.617 8.81604 864.109 8.87612C865.538 9.05303 867.412 9.28333 868.673 9.15983C870.198 9.00629 870.715 9.03966 871.303 9.40349C871.664 9.63047 872.096 9.84743 872.432 10.0277C874.931 10.0444 875.627 9.64717 876.035 9.12312C876.348 8.66916 877.032 8.26526 879.002 8.2252C884.527 8.11505 889.98 7.73452 895.601 8.08834C899.54 8.332 903.467 8.6992 907.611 8.53565C908.521 8.53557 909.426 8.57037 910.301 8.6391C910.902 9.83407 911.262 9.87747 915.105 9.48026C916.895 9.29 918.865 9.06969 920.87 9.64715C919.958 10.0777 919.045 10.5083 918.036 10.9823C921.435 11.3495 925.374 11.0424 927.788 11.9436L926.419 12.5778C927.764 13.2154 931.043 14.1266 932.424 14.16C933.085 14.16 933.806 14.0065 934.562 13.913C931.92 13.0585 931.896 12.4076 934.178 11.5765C935.475 11.0991 936.58 10.5951 935.835 9.94757C935.716 9.83876 935.716 9.72259 935.835 9.61378C935.974 9.32742 936.317 9.05162 936.844 8.80265C938.621 8.15858 939.763 7.39703 940.159 6.59296C940.988 5.34459 943.222 5.04084 947.618 5.46809C948.745 5.56256 949.892 5.63837 951.052 5.69509C955.304 5.97213 959.46 6.27923 962.991 7.08367C965.501 7.66112 968.155 8.24192 971.398 8.41883C973.452 8.5223 973.296 8.96956 973.632 9.31336C975.434 9.15982 976.923 8.92615 978.436 8.92615C981.23 8.90343 983.913 8.6161 986.039 8.11173C988.153 7.6778 990.255 7.28057 993.245 7.38739C994.707 7.3921 996.147 7.29086 997.425 7.09365C998.205 6.99067 999.071 6.94811 999.932 6.97043C1000.79 6.99276 1001.61 7.07914 1002.31 7.22049C1003.78 7.45748 1005.28 7.68112 1006.83 7.88807C1008.38 8.09502 1009.23 8.62575 1011.36 8.35205C1011.78 8.4933 1012.11 8.65367 1012.33 8.82604C1012.41 8.99882 1012.41 9.17396 1012.33 9.34673H1013.13C1013.3 9.01294 1013.47 8.67915 1013.69 8.25857H1019.51C1020.81 8.25857 1022.11 8.31201 1023.39 8.2853C1025.1 8.24859 1026.77 8.15844 1028.46 8.09168C1028.2 7.36068 1030.61 7.6444 1031.71 7.4241C1032.82 7.2038 1034.06 7.09032 1035.05 6.89004C1035.8 6.72982 1036.84 6.4294 1036.71 6.25583C1036.18 5.58825 1038.39 5.33791 1038.74 4.84057C1039.15 4.87394 1039.34 4.87396 1039.39 4.89398C1039.52 4.94886 1039.6 5.01013 1039.64 5.07424C1039.64 5.10095 1039.47 5.13764 1039.47 5.17101C1039.47 5.20439 1039.61 5.22442 1039.68 5.25446C1042.01 5.07755 1041.96 5.07422 1042.64 4.37993C1042.78 4.23974 1043.33 4.12627 1044.11 3.8559V4.81388C1045.31 4.56687 1046.51 4.45006 1046.78 4.23977C1046.98 3.93991 1046.98 3.63168 1046.78 3.33183C1048.54 3.49538 1050.13 3.76577 1051.74 3.76911C1054.61 3.7932 1057.49 3.70327 1060.28 3.50206C1063.24 3.26507 1065.88 2.61421 1069.21 3.19166C1069.36 3.21837 1069.7 3.15827 1069.96 3.13156C1073.32 2.71432 1076.68 2.28708 1080.06 1.88319C1081.26 1.743 1082.46 1.65955 1083.66 1.5494C1083.85 1.52146 1084.02 1.48542 1084.16 1.44261L1082.39 1.16553L1085.77 0.931897L1088.27 2.60085L1091.74 2.05009C1093.75 2.14021 1093.68 3.08483 1096.07 2.87788C1097.96 2.66214 1099.78 2.39728 1101.49 2.0868C1105.58 3.23837 1105.94 4.86061 1107.73 6.52622C1109.65 6.06225 1110.98 5.55824 1112.75 5.36798C1114.51 5.17772 1116.77 5.30123 1118.63 5.28787L1121.16 4.30317L1122.9 5.33127L1128.31 5.18772L1132.82 4.18635C1132.9 4.48529 1133.27 4.77281 1133.88 5.01924C1134.49 5.26566 1135.33 5.46206 1136.31 5.58825C1137.63 5.30453 1138.1 4.70705 1140.52 5.05086C1141.31 5.16434 1142.92 4.86062 1144.19 4.74045C1143.78 4.31654 1143.42 3.93935 1143.11 3.60556C1143.71 3.38468 1144.55 3.22406 1145.51 3.14815C1146.46 3.07223 1147.48 3.08516 1148.41 3.18498C1149.42 3.30181 1149.95 3.73908 1150.89 4.11627C1151.24 3.19501 1153.67 3.22839 1155.95 3.20169C1156.42 3.20169 1157.15 3.27512 1157.33 3.20169C1160.07 2.24037 1162.7 2.8679 1165.39 3.20169C1166.18 3.33171 1167.08 3.40404 1168 3.41197C1170.89 3.34188 1173.93 3.33854 1176.62 3.07818C1179.31 2.81783 1181.09 2.8679 1182.93 3.41197L1185.72 2.87454C1188.94 3.42529 1191.73 3.97939 1193.07 4.96741C1191.27 6.27586 1191.42 6.51955 1194.36 6.91009C1194.2 6.70314 1194.07 6.52623 1193.92 6.3293C1198.41 6.52623 1201.81 5.99549 1205.34 5.23111C1205.58 5.35462 1205.67 5.49148 1205.96 5.53488C1207.81 5.80858 1209.94 6.35597 1211.5 6.25249C1213.41 6.10918 1215.44 6.15041 1217.25 6.36935C1218.13 5.66172 1219.28 5.07425 1222.18 4.91069C1222.94 4.8673 1223.53 4.57687 1224.23 4.42333C1225.44 4.10819 1226.7 3.81074 1228.02 3.53213C1229.65 3.19834 1231.46 2.97468 1233.11 2.67093C1235.51 2.22699 1236.55 2.24369 1238.5 2.84451C1240.44 3.44533 1242.29 4.05949 1244.19 4.67033C1248.07 4.56685 1247.69 5.91871 1250.69 6.13901C1251.64 6.25427 1252.56 6.39043 1253.44 6.54623C1255.77 6.79653 1258.05 7.08754 1260.25 7.41746C1261.75 7.68115 1262.81 7.80798 1264.56 7.57767C1265.52 7.42938 1266.6 7.35659 1267.7 7.36718C1268.79 7.37777 1269.85 7.47132 1270.77 7.63773C1270.77 7.85469 1270.66 8.09504 1270.6 8.32536C1272.58 8.55567 1274.71 8.43214 1275.55 8.08834C1277.2 7.42076 1279.15 7.46751 1281.46 7.53093C1283.42 7.58768 1285.37 7.61104 1287.61 7.65443C1289.28 7.01022 1290.94 6.31927 1292.85 5.65169C1293.35 5.47812 1295.04 5.33458 1295.48 5.42804C1298.37 6.06224 1302.21 6.32262 1304.48 7.20048C1305 7.40076 1305.8 7.70116 1306.43 7.69115C1309.08 7.65443 1312 7.93814 1314.39 7.3006C1314.22 7.09031 1314.04 6.8867 1313.83 6.63302C1316.23 6.63302 1317.09 6.3493 1316.96 5.67504C1316.89 5.34125 1317.69 4.7538 1318.62 4.65701C1321.61 4.3399 1324.94 3.95602 1327.96 4.04614C1332.32 4.17298 1336.37 3.81251 1340.53 3.73574C1343.29 3.68567 1345.49 3.63895 1346.81 4.53685C1348.08 4.11293 1349.09 4.07619 1350.34 4.42667C1351.65 4.82371 1353.2 5.15169 1354.93 5.39467C1356.62 5.59828 1358.37 5.66838 1359.73 6.1023C1359.91 6.16826 1360.14 6.22319 1360.39 6.26366C1360.65 6.30412 1360.94 6.32925 1361.24 6.33741C1361.53 6.34556 1361.83 6.33657 1362.11 6.31104C1362.4 6.28552 1362.66 6.244 1362.88 6.18909C1364.45 5.81858 1366.07 6.05556 1367.43 6.38602C1370.02 7.01688 1370.36 6.99686 1373.53 6.5162C1377.13 5.97212 1380.74 5.39131 1384.86 5.29117C1388.54 5.20105 1392.2 5.14432 1395.53 4.59356L1398.26 5.40803C1400.03 4.61028 1400.43 4.51345 1401.6 4.67033C1402.02 4.94738 1402.46 5.24446 1402.87 5.52151C1406.33 5.52151 1406.85 5.69841 1405.94 6.46946L1409.89 7.47083C1409.8 7.23492 1410.05 6.99892 1410.57 6.81226C1411.1 6.62559 1411.86 6.50275 1412.71 6.46946C1414.14 7.26722 1415.23 8.15846 1418.5 8.66249C1423 7.28727 1427.58 8.32869 1432.03 8.52562C1434.88 8.11506 1437.94 8.62577 1440.44 8.44886C1442.41 8.01827 1444.2 7.66109 1445.85 7.25386C1447.85 6.75318 1449.17 6.68308 1450.85 7.25386C1453.26 8.05162 1457.39 8.41879 1458.31 9.59039C1458.31 9.65048 1458.67 9.69389 1458.89 9.73728L1463.01 10.5751C1464.04 10.2783 1464.9 9.94085 1465.58 9.57373C1467.03 8.41214 1468.2 8.23858 1472.41 8.62578C1472.55 9.96094 1472.79 10.0243 1477.6 10.3181C1479.44 10.4316 1481.36 10.4549 1482.86 10.8888C1483.61 11.1058 1484.84 11.0157 1486.08 10.9689C1488.31 10.8888 1491.4 10.6886 1492.75 11.4396C1494.57 12.471 1498.06 12.4777 1500.42 12.718C1502.51 12.4176 1503.9 12.0872 1505.44 12.0271C1507.16 11.9603 1508.22 12.3609 1508.72 12.8616C1508.9 12.6713 1509.07 12.4811 1509.27 12.2574L1516.32 12.3642L1523.71 10.0277C1529.87 10.6953 1531.74 11.1258 1535.28 12.4477C1536.17 12.7129 1537.15 12.9523 1538.22 13.162C1538.76 12.4944 1539.2 11.9603 1539.64 11.4329C1540.64 11.7667 1541.45 12.0405 1542.33 12.3409L1544.73 11.3628C1545.93 11.513 1547.06 11.7834 1547.79 11.72C1551.81 11.3595 1552.93 12.2107 1554.72 12.8582C1556.87 13.6426 1559.34 14.3102 1563.13 14.5272C1566.62 14.6803 1570.15 14.7407 1573.68 14.7074C1576.44 14.7074 1579.19 14.6407 1581.91 14.7074C1584.64 14.7742 1585.96 14.3736 1586.1 13.7061C1587.11 13.6111 1588.19 13.5984 1589.22 13.6695C1590.24 13.7405 1591.18 13.8922 1591.9 14.1066C1593.11 14.4404 1593.61 15.0279 1594.5 15.5519C1595.02 15.4291 1595.48 15.289 1595.87 15.1347C1596.77 14.6607 1597.97 14.634 1599.47 14.8876C1600.14 15.0117 1600.83 15.1233 1601.55 15.2214C1602.36 15.3122 1603.25 15.3288 1604.09 15.2687C1604.93 15.2087 1605.68 15.0751 1606.23 14.8876C1608.5 14.2201 1610.12 13.923 1612.03 14.2535C1615.2 14.7976 1617.8 14.5005 1620.59 14.0899C1621.75 13.9597 1622.96 13.8602 1624.19 13.7928C1622.72 14.881 1626.82 15.5085 1625.49 16.4632C1626.58 15.6654 1628.26 15.3183 1631.25 15.5519C1632.02 15.6153 1632.99 15.4618 1634.12 15.3883C1635.01 16.3597 1638.79 15.8323 1640.59 16.323C1640.52 16.6567 1640.45 16.9905 1640.32 17.6281C1641.96 16.9872 1643.02 17.0573 1644.38 17.3277C1646.46 17.7449 1649.03 17.7616 1651.49 17.7249C1652.82 17.6836 1654.13 17.6133 1655.42 17.5146V16.867L1660.29 17.2008C1660.6 16.9538 1660.78 16.817 1660.95 16.6801L1660.81 16.7268C1661.56 16.6033 1663.02 16.4431 1662.96 16.3597C1662.73 16.0259 1663.16 15.8089 1664.24 15.869C1664.9 15.9057 1665.52 16.1694 1665.94 16.3663C1666.2 16.5474 1666.36 16.7389 1666.41 16.9338L1669.76 16.857L1671.53 17.5046L1667.79 17.2075L1670.85 19.1301C1673.47 18.506 1676.23 18.0453 1677.97 17.3744C1680.29 16.4798 1682.97 16.6167 1685.99 16.8003C1687.41 16.8871 1688.97 17.0606 1690.27 16.9738C1694.16 16.7235 1697.87 16.9738 1701.64 17.104C1704.05 17.1908 1704.48 17.3744 1704.38 18.0586C1704.29 18.7429 1704.38 19.3605 1704.38 19.9746C1706.95 20.1182 1708.65 20.038 1709.62 19.3337C1710.05 19 1711.52 18.8464 1713.22 18.8331C1716.97 18.8569 1720.63 18.5301 1723.62 17.9051C1724.72 17.7319 1725.98 17.6583 1727.23 17.6948C1730.36 17.6948 1733.51 17.785 1736.49 17.8317C1737.31 17.4604 1738 17.0667 1738.54 16.6567C1739.14 15.9892 1740.31 15.6287 1742.89 15.5986C1743.66 15.5986 1744.44 15.375 1745.13 15.2214C1746.25 14.9778 1747.31 14.7074 1748.48 14.4237L1751.19 15.3049C1754.03 15.3049 1756.27 15.3049 1758.5 15.3049C1760.06 15.3056 1761.62 15.2811 1763.17 15.2315C1764.86 15.1702 1766.52 15.0765 1768.16 14.9511C1769.5 14.8443 1770.75 14.6573 1772.06 14.5138C1773.37 14.3703 1774.63 14.0999 1775.57 14.18C1778.62 14.4542 1781.9 14.4763 1785 14.2434C1785.89 14.1603 1786.86 14.1674 1787.73 14.2635C1789.88 14.6507 1791.34 14.4103 1793.02 14.0198C1793.77 13.8712 1794.57 13.7469 1795.42 13.6493L1800.23 15.0045C1801.61 14.7956 1803.05 14.6094 1804.51 14.4471C1805.49 14.3496 1806.54 14.3187 1807.58 14.3569C1810.71 14.5138 1813.05 14.2935 1814.67 13.5959C1815.3 13.3255 1815.87 13.0418 1816.43 12.7647C1820.03 12.975 1822.68 13.8129 1826.2 13.5826C1826.56 13.0685 1826.9 12.6045 1827.21 12.1606L1831.16 12.9951C1831.48 12.6613 1831.63 12.4877 1831.84 12.2741C1832.52 12.3075 1833.04 12.3242 1833.51 12.3609C1835.14 12.4777 1838.03 12.1873 1838.07 11.8235C1838.15 11.2026 1839.67 11.019 1841.2 10.8021C1843.8 10.4349 1846.32 10.021 1849.01 9.71723C1850.14 9.61108 1851.13 9.41709 1851.87 9.15841C1852.61 8.89972 1853.06 8.58729 1853.18 8.25857C1853.28 8.11657 1853.4 7.97615 1853.55 7.83799L1858.14 8.56567V7.23051C1861.14 7.49755 1862.94 6.77322 1865.6 6.60299L1864.64 7.04027C1866.75 7.14709 1868.83 7.47084 1871.06 7.14038C1871.29 7.10701 1871.78 7.25056 1872.14 7.25056C1877.28 7.25056 1882.44 7.66443 1887.54 7.21381C1889.45 7.04691 1890.53 7.27725 1891.28 7.86138C1892.18 7.24387 1893.33 6.97684 1895.46 7.1938C1896.03 7.25722 1896.97 7.13707 1897.62 7.04027C1899.72 6.72651 1901.76 6.37269 1903.83 6.0389C1906.42 5.61833 1909.11 5.43139 1911.79 5.8553L1913.98 4.95074L1922.28 5.78522C1923.86 4.73712 1924.68 3.68234 1928.28 3.1149L1930.83 3.55548C1931.47 3.3483 1932.19 3.16236 1932.99 3.00138C1935.97 2.54075 1938.99 2.10015 1942.04 1.66622C1942.37 1.61597 1942.73 1.58472 1943.1 1.57438C1943.47 1.56403 1943.84 1.57481 1944.2 1.60608C1944.55 1.63734 1944.88 1.68844 1945.16 1.75619C1945.44 1.82393 1945.67 1.90689 1945.83 2.00001C1946.7 2.3338 1947.64 2.66762 1948.81 3.1149C1951.05 2.23369 1954.81 2.69432 1957.45 2.11353L1953.63 0.885161C1955.8 0.491289 1957.06 -0.396606 1960.4 0.204216V0.210898Z" fill="white"/>
</svg>
